<svg xmlns="http://www.w3.org/2000/svg" width="13014.329" height="1280"><polygon fill="#fff" points="1.194,897.916 534.438,761.023 884.627,862.903 1032.662,761.023 1483.134,862.903 1592.17,896.847 1591.374,1273.574 0.398,1272.778"/><polygon fill="#fff" points="4775.316,754.992 4641.728,827.822 4571.749,880.256 4501.77,956.914 4470.571,1013.872 4389.383,1090.283 4245.218,1174.901 3998.922,1271.982 4774.521,1273.574"/><polygon fill="#fff" points="1588.987,903.286 1697.045,1041.219 1780.609,1155.822 1845.073,1198.797 1907.149,1236.963 2061.236,1275.166 1588.389,1272.778"/><path fill="#fff" d="M6314.687 720.788l-112.216 18.661-125.722-5.159-155.191-21.181-119.376-28.627-164.739-17.919-269.793-15.459-202.94 15.459-57.369 16.03-6.288-79.187 31.819-127.267 22.233-40.506 11.545-.311-4.29 40.103-7.573 16.017 6.401 1.523 22.58-6.426 21.04-34.674-1.727-27.458 19.323 10.181 8.063 20.385 7.333-.738-.102-15.265-.159-24.18-17.04-22.648-10.013-3.538 10.216-9.308 20.338 1.166 3.104-9.695-14.543-4.659-18.049-6.187-24.237 7.237-8.992-19.253-20.656-15.149-13.045-9.568-5.106 6.962 14.298 15.838 1.17 10.876-25.958-15.591-30.187-1.206-2.758-.109 2.582-.478-5.882-31.83-19.405-31.225-34.266-22.678-28.386-2.748 8.654-9.267 32.12-6.26.147-13.238-24.808-.28-39.283-.441-34.742 18.525 2.241-14.046 19.621-19.619-6.168-9.38-17.578 11.559-27.83 18.299-12.957 24.407-30.995-11.007-23.848 6.837-19.198 5.081 3.389 12.798 26.489-.165 12.649 12.768-13.238 3.928-23.634 28.28-1.81 31.39-1.146 19.819 9.474 1.447 11.825-25.928 25.773-11.932-4.065 35.564 25.027 46.464 28.912 9.929 8.414-1.557-8.785-21.383-2.923-52.443 14.973 1.17 26.182 54.08 32.869 167.388-19.999 152.57-.867.243-31.006 12.789-179.289 28.765-.796 515.417 1592.568-.796 1.592-557.751-53.991 5.765zm-1298.512-428.945l50.06 19.707 19.596 28.001-6.053-.241-.407 10.172 24.423 6.068 6.283 7.457-21.912.996-22.925 13.591-1.738-9.41-23.441-55.622-25.89-20.951 2.004.232zm-17.323 99.871l-20.831-49.945 20.237 4.928 2.658 3.864 48.68 46.073-4.626 6.695-5.867 24.626 8.538 2.035 17.375-22.451 39.247-13.274 1.56-.151-20.639 15.066-20.124 41.786-5.994 25.161 9.378 2.234 45.277-38.593 2.182-2.818 15.732-2.966-17.963 37.553-41.072 125.08-4.78 97.02-24.21 6.766.27-143.534-45.028-165.155z"/><path fill="#fff" d="M9498.24 719.992l-112.216 18.661-125.722-5.159-155.191-21.182-119.377-28.627-164.738-17.918-269.794-15.459-202.939 15.459-57.37 16.029-6.287-79.186 31.82-127.268 22.232-40.506 11.545-.311-4.289 40.102-7.574 16.018 6.401 1.523 22.58-6.426 21.04-34.674-1.727-27.458 19.322 10.182 8.064 20.385 7.332-.739-.102-15.265-.158-24.18-17.041-22.649-10.012-3.538 10.216-9.308 20.339 1.166 3.104-9.695-14.543-4.659-18.05-6.187-24.236 7.238-8.993-19.253-20.656-15.15-13.045-9.567-5.106 6.962 14.298 15.838 1.171 10.877-25.958-15.591-30.186-1.207-2.758-.109 2.582-.477-5.883-31.831-19.405-31.224-34.266-22.678-28.386-2.749 8.653-9.266 32.12-6.26.147-13.238-24.809-.28-39.282-.441-34.742 18.524 2.242-14.046 19.619-19.619-6.166-9.379-17.58 11.559-27.828 18.299-12.958 24.407-30.995-11.007-23.85 6.836-19.195 5.082 3.388 12.798 26.49-.165 12.647 12.769-13.237 3.928-23.634 28.28-1.81 31.389-1.146 19.82 9.475 1.447 11.825-25.928 25.773-11.932-4.065 35.564 25.027 46.464 28.911 9.928 8.415-1.556-8.786-21.383-2.923-52.443 14.973 1.17 26.182 54.08 32.869 167.388-19.999 152.57-.868.243-31.005 12.79-179.289 28.765-.795 515.416 1592.567-.796 1.591-557.751-53.99 5.764zm-1298.511-428.945l50.061 19.708 19.595 28-6.053-.241-.407 10.173 24.424 6.068 6.283 7.457-21.912.997-22.926 13.59-1.737-9.409-23.441-55.622-25.89-20.951 2.003.23zm-17.324 99.871l-20.831-49.945 20.237 4.927 2.658 3.865 48.68 46.072-4.626 6.696-5.866 24.626 8.537 2.035 17.375-22.452 39.247-13.273 1.56-.15-20.639 15.066-20.125 41.785-5.993 25.16 9.378 2.234 45.276-38.593 2.184-2.818 15.731-2.966-17.964 37.553-41.072 125.08-4.779 97.018-24.212 6.766.271-143.533-45.027-165.153z"/><polygon opacity=".5" fill="#fff" points="9978.422,915.936 10010.32,808.855 10124.239,753.417 10213.097,757.974 10256.387,703.768 10352.079,662 10434.101,662 10509.288,686.496 10561.691,737.396 10634.602,721.482 10693.839,749.343 10730.293,805.812 10794.089,814.932 10857.884,876.49 10838.551,941.99 10757.362,988.111 10630.044,992.64 10456.886,1008.598 10249.552,981.257 10137.91,997.206 10046.774,976.699"/><polygon opacity=".5" fill="#fff" points="11504.932,1324.943 11556.065,1153.283 11738.687,1064.409 11881.13,1071.72 11950.527,982.385 12103.929,913 12235.416,913 12355.949,954.693 12439.957,1037.518 12556.841,1012.615 12651.806,1057.58 12710.234,1148.248 12812.508,1162.942 12914.783,1261.67 12883.792,1366.69 12753.634,1440.638 12549.525,1447.902 12271.948,1473.491 11939.572,1429.658 11760.599,1455.219 11614.506,1422.351"/></svg>