<svg xmlns="http://www.w3.org/2000/svg" width="13014.329" height="1280"><g fill="#fff"><polygon opacity=".5" points="6367.318,577.798 7991.773,548.986 7990.982,1279 6393.465,1279"/><polygon opacity=".5" points="1.435,749.707 428.381,554.803 658.638,652.057 800.139,605.786 1138.197,651.98 1403.537,454.721 1537.13,533.171 1598,612.268 1598,1279.435 0.763,1278.636"/><g opacity=".5"><polygon points="1616.415,255.027 1789,274.465 1789,308.716 1631.613,324.451"/><polygon points="1711,331.006 1877,319.861 1877,381.843 1711,383.042"/><polygon points="1966,256.952 2117,245.807 2117,307.79 1966,308.989"/><polygon points="1810,307 1810,274.465 1946,260.803 1946,307"/><polygon points="1891.657,323 2039,323 2039,381.843 1901.457,372.771"/><polygon points="1711,210.1 1863,199.907 1863,256.595 1711,257.693"/><polygon points="2014.223,241.856 1878.784,254.992 1873.69,202.473 2000.303,198.001"/></g><g opacity=".5"><polygon points="4262.813,255.027 4435,274.465 4435,308.716 4277.812,324.451"/><polygon points="4357,331.006 4524,319.861 4524,381.843 4357,383.042"/><polygon points="4613,256.952 4763,245.807 4763,307.79 4613,308.989"/><polygon points="4457,307 4457,274.465 4593,260.803 4593,307"/><polygon points="4538.453,323 4687,323 4687,381.843 4548.855,372.771"/><polygon points="4357,210.1 4509,199.907 4509,256.595 4357,257.693"/><polygon points="4661.019,241.856 4525.581,254.992 4520.488,202.473 4647.1,198.001"/></g><polygon opacity=".5" points="1598.143,610.669 1678.971,813.551 4797,619.335 4797,1277.838 1598.664,1277.039"/><path opacity=".5" d="M6392.666 579.523l-91.186-9.736-.445-5.611 11.565-46.262 8.082-14.722 4.196-.114-1.561 14.577-2.752 5.822 2.326.556 8.209-2.338 7.646-12.603-.628-9.98 7.024 3.7 2.932 7.41 2.666-.267-.039-5.549-.055-8.79-6.195-8.231-3.639-1.286 3.712-3.384 7.394.423 1.129-3.524-5.289-1.693-6.559-2.248-8.811 2.63-3.27-6.999-7.508-5.504-4.742-3.479-1.854 2.53 5.198 5.758.424 3.954-9.436-5.668-10.973-.438-1-.041.937-.171-2.138-11.571-7.054-11.351-12.456-8.242-10.318-.999 3.146-3.368 11.676-2.276.053-4.811-9.018-.103-14.277-.159-12.63 6.732.815-5.106 7.131-7.129-2.243-3.41-6.389 4.2-10.115 6.652-4.711 8.872-11.267-4-8.669 2.484-6.977 1.847 1.229 4.653 9.631-.061 4.596 4.642-4.811 1.428-8.592 10.28-.656 11.41-.417 7.203 3.443.528 4.298-9.426 9.369-4.337-1.477 12.926 9.096 16.892 10.51 3.609 3.059-.565-3.193-7.773-1.062-19.064 5.441.426 9.518 19.658 11.948 60.847-2.104 16.064-73.92-7.894-273.297-280.551-172.609 194.247-55.138-55.138-64.729 88.701-131.854-136.175-155.002 220.076-542 30.222v658.503l1598.286-.799-1.62-697.516zm-122.484-128.599l18.196 7.163 7.124 10.178-2.201-.087-.148 3.697 8.878 2.208 2.286 2.71-7.965.362-8.334 4.941-.633-3.422-8.52-20.218-9.412-7.615.729.083zm-6.297 36.302l-7.571-18.154 7.354 1.791.969 1.405 17.693 16.746-1.682 2.433-2.131 8.954 3.102.738 6.317-8.16 14.266-4.825.565-.056-7.501 5.476-7.315 15.19-2.178 9.146 3.408.812 16.458-14.029.792-1.023 5.72-1.077-6.53 13.648-14.928 45.467-.341 6.889-10.14-1.083.039-20.257-16.366-60.031z"/><g opacity=".5"><polygon points="7491.607,320.158 7664,339.597 7664,373.846 7506.709,389.582"/><polygon points="7586,396.137 7753,384.992 7753,446.973 7586,448.172"/><polygon points="7841,322.084 7992,310.938 7992,372.92 7841,374.12"/><polygon points="7685,372 7685,339.597 7821,325.934 7821,372"/><polygon points="7767.043,389 7915,389 7915,446.973 7777.148,438.337"/><polygon points="7586,275.23 7738,265.039 7738,321.727 7586,322.824"/><polygon points="7889.609,306.987 7754.171,320.124 7749.078,267.604 7875.689,263.132"/></g><path opacity=".5" d="M9589.76 578.725l-91.188-9.738-.443-5.611 11.564-46.261 8.082-14.723 4.195-.114-1.559 14.578-2.754 5.822 2.326.554 8.209-2.338 7.646-12.603-.627-9.982 7.025 3.703 2.93 7.407 2.666-.266-.037-5.55-.057-8.788-6.195-8.233-3.637-1.286 3.711-3.383 7.393.422 1.129-3.524-5.287-1.692-6.561-2.25-8.811 2.63-3.27-6.999-7.508-5.505-4.742-3.479-1.854 2.532 5.197 5.756.424 3.955-9.436-5.668-10.975-.438-.998-.041.938-.173-2.139-11.57-7.055-11.35-12.455-8.242-10.318-1 3.146-3.368 11.674-2.276.057-4.812-9.018-.102-14.279-.161-12.629 6.732.814-5.104 7.131-7.131-2.242-3.411-6.389 4.202-10.115 6.653-4.711 8.872-11.268-4.003-8.666 2.485-6.979 1.849 1.229 4.651 9.631-.06 4.598 4.642-4.812 1.428-8.592 10.279-.656 11.409-.416 7.206 3.443.526 4.297-9.426 9.369-4.335-1.477 12.927 9.096 16.892 10.51 3.608 3.061-.566-3.195-7.773-1.062-19.063 5.443.425 9.516 19.657 11.947 60.847-2.104 16.065-73.918-7.895-853.181 31.167-542.542-40.799v729.525l1598.831-.801-1.071-697.513zm-122.485-128.602l18.193 7.164 7.127 10.177-2.201-.087-.148 3.699 8.879 2.207 2.283 2.71-7.965.361-8.334 4.94-.633-3.419-8.52-20.219-9.412-7.616.731.083zm-6.296 36.302l-7.572-18.153 7.354 1.791.969 1.405 17.691 16.747-1.68 2.435-2.131 8.952 3.102.738 6.318-8.16 14.266-4.825.564-.055-7.5 5.476-7.316 15.189-2.176 9.145 3.406.813 16.459-14.029.793-1.024 5.719-1.078-6.533 13.649-14.926 45.466-.34 6.891-10.143-1.083.041-20.256-16.365-60.034z"/><polygon opacity=".5" points="9636.031,844.824 9658.408,769.706 9738.322,730.816 9800.656,734.014 9831.023,696.645 9898.152,668 9955.693,668 10008.438,684.525 10045.197,719.907 10096.344,708.581 10137.9,728.041 10163.471,767.612 10208.227,773.989 10252.977,817.163 10239.416,863.107 10182.461,895.46 10093.146,898.634 9971.676,909.826 9826.229,890.647 9747.912,901.835 9683.979,887.451"/><polygon opacity=".5" points="10737.264,848.863 10753.641,793.888 10812.129,765.424 10857.75,767.764 10879.977,740.189 10929.105,719 10971.219,719 11009.818,731.322 11036.725,757.327 11074.158,749.093 11104.57,763.366 11123.289,792.341 11156.039,797.013 11188.795,828.615 11178.869,862.242 11137.186,885.919 11071.816,888.246 10982.916,896.438 10876.467,882.399 10819.148,890.587 10772.355,880.062"/><polygon opacity=".5" points="11790.549,1111.577 11831.119,975.384 11976.008,904.87 12089.021,910.669 12144.084,840.92 12265.791,787 12370.109,787 12465.74,818.951 12532.393,884.099 12625.127,864.062 12700.471,899.594 12746.828,971.458 12827.971,983.083 12909.115,1061.394 12884.527,1144.708 12781.262,1203.374 12619.324,1209.131 12399.094,1229.432 12135.391,1194.656 11993.395,1214.936 11877.484,1188.859"/></g></svg>