<svg xmlns="http://www.w3.org/2000/svg" width="256" height="26"><circle fill="#006EBE" cx="12.992" cy="12.667" r="4.445"/><rect x="19.333" y="11" opacity=".5" fill="#666" width="14" height="3"/><circle opacity=".5" fill="#666" cx="38.587" cy="12.667" r="4.445"/><rect x="45.333" y="11" opacity=".5" fill="#666" width="13" height="3"/><circle opacity=".5" fill="#666" cx="64.182" cy="12.667" r="4.445"/><rect x="71.333" y="11" opacity=".5" fill="#666" width="13" height="3"/><circle opacity=".5" fill="#666" cx="89.775" cy="12.667" r="4.445"/><rect x="96.333" y="11" opacity=".5" fill="#666" width="14" height="3"/><circle opacity=".5" fill="#666" cx="115.369" cy="12.667" r="4.445"/><rect x="121.333" y="11" opacity=".5" fill="#666" width="14" height="3"/><circle opacity=".5" fill="#666" cx="140.963" cy="12.667" r="4.445"/><rect x="148.333" y="11" opacity=".5" fill="#666" width="13" height="3"/><circle opacity=".5" fill="#666" cx="166.558" cy="12.667" r="4.445"/><rect x="173.333" y="11" opacity=".5" fill="#666" width="14" height="3"/><circle opacity=".5" fill="#666" cx="192.152" cy="12.667" r="4.444"/><rect x="198.333" y="11" opacity=".5" fill="#666" width="14" height="3"/><circle opacity=".5" fill="#666" cx="217.747" cy="12.667" r="4.445"/><rect x="224.333" y="11" opacity=".5" fill="#666" width="14" height="3"/><circle opacity=".5" fill="#666" cx="243.341" cy="12.667" r="4.445"/></svg>