<svg xmlns="http://www.w3.org/2000/svg" width="415.197" height="454.836"><g fill="#FCEE21"><polygon opacity=".5" points="11.081,381.861 90.159,23.696 357.048,89.375 269.548,445.467"/><polygon opacity=".5" points="90.353,23.745 166.204,9.37 404.2,67.939 357.048,89.375"/><polygon opacity=".5" points="404.185,67.813 337.619,424.32 269.548,445.467 10.997,381.84 88.165,32.637 356.812,90.331"/></g><linearGradient id="a" gradientUnits="userSpaceOnUse" x1="318.12" y1="1440.654" x2="318.12" y2="1205.444" gradientTransform="matrix(.987 .161 -.161 .987 93.332 -1130.051)"><stop offset="0" stop-color="#008F30"/><stop offset=".032" stop-color="#0F922D"/><stop offset=".092" stop-color="#379B27"/><stop offset=".176" stop-color="#77A81C"/><stop offset=".279" stop-color="#CEBB0E"/><stop offset=".292" stop-color="#D9BD0C"/><stop offset=".335" stop-color="#E2CD48"/><stop offset=".387" stop-color="#ECDF88"/><stop offset=".433" stop-color="#F4EDBB"/><stop offset=".474" stop-color="#FAF7E0"/><stop offset=".507" stop-color="#FEFDF7"/><stop offset=".528" stop-color="#fff"/><stop offset=".594" stop-color="#E5F3F9"/><stop offset=".736" stop-color="#A4D4E9"/><stop offset=".87" stop-color="#60B4D9"/></linearGradient><path fill="url(#a)" d="M213.723 110.812c-45.692-7.434-91.191 38.506-101.624 102.614-10.434 64.104 18.15 122.102 63.845 129.537 45.694 7.438 91.194-38.504 101.626-102.609 10.433-64.108-18.151-122.105-63.847-129.542z"/><path fill="#4BA82C" d="M164.584 196.273c1.795 2.609 5.844-.1 8.709-3.537 2.866-3.439 13.09-9.582 17.058-9.342 3.964.238 2.271 1.617 2.271 1.617l11.52 7.625 4.609.752 6.342-3.902s5.686-2.881 12.297 6.449l6.615 9.328c1.25 2.025 2.365 5.605 5.421 6.225 3.053.617 4.033-.922 4.187-1.869.153-.945-.724-5.242-3.125-9.139-2.399-3.896-9.171-13.738-21.679-18.928 5.626-1.756 13.887.438 16.983 1.549 3.095 1.111 10.967 4.939 12.25 5.271 1.281.328 5.9-1.953 3.183-6.885-4.018-5.146-24.115-7.688-27.205-7.342 2.285-1.186 6.843-2.527 11.036-2.938 4.194-.41 9.747-.234 11.478-1.166 1.731-.932 4.109-2.123-.239-5.986-4.348-3.863-19.986 1.238-25.371 3.76-.731-.727 3.566-4.76 9.379-9.152 5.812-4.396 8.403-6.889 9.226-8.211.821-1.322 3.28-7.477-5.648-4.074l-20.529 18.75s.658-12.639-1.54-28.775c-.841-6.568-7.437-6.307-7.036.92.404 7.225 1.989 20.592 1.858 22.148-.568.516-.979 1.541-5.226-7.404-4.251-8.945-4.965-10.518-7.102-13.049-2.138-2.535-6.721-6.436-7.029.676.193 1.779 2.146 4.719 3.637 8.238 1.489 3.52 5.529 9.273 5.933 12.012-2.348-1.234-8.288-4.99-14.009-7.137-5.72-2.145-8.815-2.527-10.146-.316-1.331 2.213 2.496 4.047 4.113 4.555 1.618.504 16.142 8.211 16.232 10.652-2.782-.816-16.365-4.605-24.805-2.705-8.442 1.906-6.827 7.631-3.54 7.559 3.291-.07 17.842-.738 21.096.154 3.253.896 5.33 3.781 1.71 4.406-3.623.626-27.229 12.926-22.914 19.211z"/><path fill="#1F140F" d="M214.026 108.95c-46.427-7.556-92.657 39.123-103.26 104.259-10.599 65.137 18.447 124.064 64.873 131.619 46.427 7.557 92.658-39.121 103.258-104.258 10.601-65.138-18.443-124.066-64.871-131.62zm-37.611 231.114c-43.769-7.121-71-63.566-60.828-126.072 10.171-62.506 53.898-107.402 97.666-100.279s71.002 63.568 60.83 126.074c-10.172 62.504-53.899 107.402-97.668 100.277z"/><path fill="#4BA82C" d="M176.415 340.064c23.81 3.877 47.604-7.645 65.993-29.016l-2.639-1.674-4.691 3.115-12.502-.455-19.89-4.574-9.189-8.412-2.633-8.742 1.975-8.842-.021-9.23-9.868-1.604-3.178 8.438 3.007 9.881-17.72 11.24-24.634-.852-14.305-6.337-2.313.48c10.793 25.118 29.37 42.805 52.608 46.584z"/><path d="M250.173 186.145c.361.031.729.002 1.094.002-.157-.367-.23-.82-.495-1.08-.394-.391-.918-.646-1.189-.826l.993-1.727c-.67.023-1.342.033-2.01.084l-.546.221c-.619-.002-1.241-.057-1.861-.09l-.166-.543c.42-.211.928-.34 1.234-.66.255-.264.272-.754.395-1.145-.382.002-.791-.086-1.134.025-.523.176-.999.49-1.497.75-1.029.541-1.649-.031-2.425-.738.742-.258 1.315-.355 1.767-.645.314-.199.467-.66.689-1.006-.394-.07-.786-.166-1.186-.201-.139-.012-.284.139-.438.18-.935.244-1.872.475-2.809.711l-.179-.385c.308-.223.641-.414.91-.676.248-.238.427-.549.635-.828-.37-.121-.801-.43-1.092-.328-.824.285-1.572.773-2.379 1.111-.329.141-.735.1-1.106.145.098-.4.303-.504.371-.664.149-.355.229-.742.339-1.115-.402.023-.845-.047-1.198.096-.552.217-1.014.658-1.566.859-.431.158-.941.098-1.649.15l.386-.639 1.038-1.494c-.612.131-1.24.223-1.837.414-.329.105-.604.379-.906.572l-1.09.684-.195-.258 1.232-1.576c-1.942-.801-2.606 1.76-4.43 1.387.307-.354.534-.531.641-.762.148-.324.204-.691.298-1.039-.389.035-.848-.045-1.151.137-.506.301-.885.799-1.361 1.158-.309.236-.692.379-1.043.562.168-.33.327-.666.509-.988.075-.139.248-.24.28-.379.078-.359.104-.73.149-1.094-.373.037-.84-.051-1.104.139-.675.488-1.23 1.137-1.889 1.646-.413.324-.927.518-1.396.77-.13-.428-.114-.588-.044-.719.404-.746.907-1.453 1.209-2.24.513-1.334-1.115-1.062-1.448-1.789l.04-.373c.378.061.785.049 1.115.199.503.229.967.555 1.423.873.478.328.988.746 1.43.072.428-.652-.213-.842-.625-1.156-.298-.229-.47-.621-.695-.939.389.031.821-.033 1.162.113.729.307 1.385.803 2.127 1.061.313.111.767-.186 1.156-.299-.216-.322-.395-.674-.651-.959-.249-.27-.576-.467-.869-.699.419-.207.714-.232.926-.111.52.293.965.758 1.513.947.357.125.838-.113 1.266-.188-.202-.316-.374-.66-.617-.939-.216-.256-.516-.445-.778-.662l.28-.459c.614.303 1.271.551 1.836.93.874.588 1.645 1.441 3.069.627l-1.901-1.865c.451-.186.749-.205.976-.088.799.426 1.558.928 2.367 1.338.311.158.706.143 1.065.205-.104-.371-.17-.762-.331-1.107-.128-.275-.374-.496-.568-.74l.316-.336c.587.463 1.148.975 1.774 1.381.628.408 1.327.711 1.994 1.059l.318-.348c-.424-.639-.847-1.279-1.449-2.195.692.254 1.133.332 1.469.559.526.354.957.85 1.485 1.199.298.197.711.221 1.071.322l-.21-1.02-.147-.557c.982-.051 1.065.066 1.991 1.033.399.418 1.024.615 1.549.916l.15-1.785c.185-.025.602-.031.979-.158.319-.109.592-.359.886-.545-.242-.277-.434-.684-.735-.795-.438-.164-.956-.115-1.353-.148.184-.557.332-1.016.479-1.475-.576.115-1.184.16-1.729.369-.47.182-.841.602-1.303.818-.282.135-.648.084-.978.115.016-.336.002-.68.064-1.008.061-.324.203-.633.324-.98-1.304-.434-1.709.514-2.202 1.164-.692.918-1.474 1.059-2.791.473l2.981-2.305c-.626-.686-1.479-.482-2.227-.012-.661.416-1.198 1.029-1.8 1.547-.443.383-.897.754-1.346 1.127l-.311-.309c.331-.457.733-.881.97-1.381.134-.289.002-.705-.008-1.064-.343.1-.804.092-1.009.314-.613.676-1.103 1.467-1.702 2.158-.268.312-.688.498-1.17.832-.008-.383-.051-.518-.007-.607.328-.652 1.047-1.443.02-1.92-.951-.441-.862.742-1.263 1.186-.6.666-.882 1.764-2.37 1.844.365-.695.647-1.119.801-1.584.089-.283-.03-.631-.057-.949-.346.09-.796.074-1.015.291-.355.354-.56.857-.821 1.303-.389.662-.771 1.33-1.154 1.994l-.35-.178.79-2.375c-2.233.264-1.964 2.633-3.478 3.268-.021-.467.161-.842.215-1.232.041-.301-.085-.625-.135-.938-.301.1-.721.113-.879.32-.355.463-.583 1.027-.859 1.551l-.814 1.537-.544.043c1.338-2.801-.062-3.908-2.487-4.477.689-.213 1.261-.213 1.825-.281.543-.066 1.099-.146 1.602-.342.217-.08.313-.469.464-.721-.231-.111-.452-.266-.697-.324-.424-.105-.864-.15-1.3-.223l-.029-.379c.294-.107.582-.293.882-.309.592-.033 1.202.104 1.783.023.372-.051.705-.363 1.057-.559-.241-.221-.469-.461-.731-.658-.225-.166-.487-.277-.735-.412l.096-.34c.358.059.714.143 1.076.17.633.051 1.275.133 1.901.072.274-.027.517-.373.777-.574-.217-.242-.392-.551-.658-.711-.376-.229-.817-.346-1.232-.51l.062-.465 1.325.021c.747.02 1.504.121 2.235.027.263-.035.463-.537.693-.822-.299-.182-.578-.412-.898-.527-.334-.121-.704-.129-1.061-.188l-.047-.35c.452-.164.897-.416 1.364-.471.787-.094 1.59-.049 2.384-.088.781-.037 1.118-.457 1.057-1.213l-1.511-.559.052-.438c.631-.02 1.264-.012 1.892-.07.366-.035.721-.174 1.082-.266-.114-.355-.214-.713-.343-1.062-.065-.176-.18-.332-.288-.529.161-.139.263-.299.394-.33 1.069-.244 2.139-.482 3.219-.684.952-.18 1.146-.584.561-1.352-.138-.18-.394-.27-.633-.424 1.284-1.008 2.321-1.744 3.261-2.59.376-.338.537-.918.793-1.387-.531.117-1.065.236-1.597.359l-.097.066c-1.104.854-2.21 1.705-3.309 2.564-.459.357-.783.494-1.051-.24-.147-.404-.563-.711-.858-1.061-.177.414-.476.818-.507 1.242-.101 1.357-.331 2.59-1.966 3.229l-.111-1.303c.548-.303.962-.447 1.247-.723.134-.129.133-.631-.002-.75-.184-.168-.584-.248-.833-.174-1.712.52-1.989 1.043-1.841 2.803.062.734.176 1.596-.689 2.082-.153-.375-.153-.711-.112-1.043.072-.619.179-1.305-.711-1.332-.878-.027-.767.672-.826 1.285-.095.979-.301 1.947-.459 2.92l-.278-.051-.231-3.105c-1.597 1.553-1.366 3.623-2.201 5.266-.164-.242-.185-.459-.244-.666-.108-.371-.241-.734-.365-1.104-.316.334-.799.615-.918 1.01-.244.793-.249 1.656-.438 2.469-.097.42-.374.799-.57 1.197l-.437-.154c.039-.613.187-1.242.083-1.83-.064-.377-.492-.689-.758-1.031-.226.318-.611.621-.643.955-.088.949-.005 1.91-.041 2.865-.017.488-.148.977-.229 1.463l-.436-.041c-.029-.572.028-1.172-.12-1.717-.088-.322-.494-.561-.759-.836-.205.295-.545.572-.584.887-.076.613.015 1.25.034 1.805l-1.344-.377c-.109.518-.239 1.029-.327 1.551-.021.143.072.307.125.459.309.9-.213 1.287-.969 1.631-.103-.199-.251-.355-.223-.463.289-1.094-.711-1.445-1.118-2.148-.965-1.652-1.39-.025-2.043.18-.096.029-.218-.029-.579-.086l.914-.996c.518-.553 1.079-1.072 1.518-1.678.15-.205.002-.631-.014-.957-.288.039-.628-.008-.848.135-.473.309-.88.717-1.313 1.082l-.323-.242c.202-.357.355-.758.62-1.061.76-.867 1.595-1.672 2.337-2.553.176-.211.111-.625.157-.943-.375.01-.799-.084-1.106.066-.284.139-.434.549-.664.82-.231.275-.488.531-.734.797l-.412-.197c.163-.555.229-1.166.511-1.652.433-.752 1.059-1.393 1.51-2.137.17-.281.079-.719.11-1.084-.337.072-.702.088-1.004.234-.312.152-.562.43-.842.652l-.288-.229c.138-.332.244-.686.423-.996.478-.83 1.043-1.613 1.455-2.473.165-.352.021-.85.013-1.281-.371.209-.772.381-1.11.635-.22.162-.354.441-.524.668-.143-.443-.082-.785.091-1.057.526-.84 1.143-1.625 1.629-2.484.192-.344.133-.83.19-1.252-.439.166-.947.242-1.297.518-.349.279-.538.756-.937 1.348-.338-1.227-.246-1.975.619-2.594.504-.357.916-.879 1.269-1.396.125-.186.053-.699-.113-.836-.166-.135-.617-.078-.851.057-.39.223-.707.574-1.157.959-.163-.414-.296-.654-.354-.91-.293-1.322.351-2.264 1.175-3.219.344-.398.617-1.461.428-1.615-.746-.609-1.021.262-1.405.715-.044.053-.145.061-.389.15-.143-.422-.363-.832-.41-1.262-.189-1.746-.284-3.498-.511-5.234-.047-.361-.5-.668-.766-1-.181.357-.523.717-.519 1.07.019 1.109.172 2.219.263 3.332.067.838.117 1.678.187 2.627l-1.803-.959-.279.287c.154.375.243.795.475 1.115.442.613 1.08 1.107 1.424 1.762.365.705.486 1.535.713 2.312l-.384.211-1.951-.941-.422.973c1.874.828 3.166 2.668 2.733 3.807-.656-.654-1.315-1.314-2.099-2.1-.398 2.781 2.685 3.68 2.404 6.158-.55-.234-.938-.637-1.396-.924-.26-.164-.636-.145-.959-.207-.006.359-.156.818.013 1.059.304.441.812.736 1.203 1.127.523.527 1.059 1.057 1.504 1.648.144.191.016.586.012.887-.33-.047-.773.027-.969-.16-.601-.566-1.104-1.234-1.916-2.176.058.869-.08 1.582.185 2.076.342.633 1.019 1.084 1.533 1.629.409.43.795.883 1.19 1.328l-.283.27-1.816-.938c-.154 1.473 1.064 2.002 1.574 2.926.174.316.236.693.349 1.043-.34-.062-.686-.096-1.014-.195-.263-.08-.491-.299-.756-.342-.279-.047-.576.041-.866.072.073.281.058.641.233.836.558.619 1.214 1.146 1.77 1.77.323.359.519.834.772 1.254l-.428.357-2.716-2.234-.882 2.789c-1.107-1.844.703-3.08.324-4.76l-1.881 1.742c-.145-1.555 1.708-2.76.34-4.346l-1.281 1.863-.345-.205c.369-1.207.776-2.4 1.084-3.623.071-.279-.194-.645-.304-.973-.3.211-.665.365-.879.641-.288.365-.456.82-.677 1.234l-.503-.146c.182-1.107.404-2.211.517-3.326.035-.346-.236-.719-.368-1.082-.257.33-.562.633-.758.996-.133.252-.114.586-.163.885l-.413-.031c-.016-.404-.074-.812-.038-1.209.06-.627.272-1.25.257-1.873-.014-.527-.255-1.047-.396-1.572l-.993 1.129-.304.072c.012-.4-.004-.76.04-1.111.105-.869.282-1.729.344-2.598.019-.275-.245-.566-.381-.85-.221.189-.528.34-.647.58-.227.455-.346.965-.511 1.451l-.439-.061c.009-.508-.051-1.027.05-1.516.109-.541.453-1.041.528-1.582.042-.316-.238-.68-.373-1.021-.268.197-.584.354-.794.602-.207.246-.309.582-.57 1.104-.806-1.258-1.545-2.229-.943-3.584.16-.363.396-.756.373-1.121-.019-.311-.358-.604-.555-.904-.25.18-.555.318-.739.549-.171.213-.215.525-.316.795-.636-.91-1.728-1.637-.703-2.834.108-.127.031-.586-.112-.705-.129-.109-.487-.004-.715.084-.155.061-.258.252-.482.484-.387-.639-.659-1.223-1.062-1.693-.262-.307-.719-.449-1.089-.666-.013.453-.166.965-.006 1.344.297.701.783 1.324 1.357 2.252l-1.564-.441c-.121.914.076 1.396 1.141 1.328.441-.027.916.434 1.375.674l-.163.352c-.257-.01-.523-.066-.771-.02-.308.053-.599.193-.897.295.155.297.249.654.478.875.215.207.589.236.856.402 1.004.633 2.354.879 2.661 2.164l-1.191 1.045c.446.297.897.588 1.339.893.474.322.938.656 1.403.986l-.19.311c-.184-.029-.37-.092-.552-.082-.316.016-.63.076-.946.119.129.34.165.77.401.996.361.344.866.529 1.292.811.75.49 1.483 1.004 2.225 1.504l-.311.498-2.031-1.018c-.451 1.697-.321 1.924 1.173 2.209.392.072.819.072 1.165.244.433.217.795.57 1.188.865l-.252.484-2.802-.791c.312 1.609 1.261 2.223 2.724 2.262.504.014.997.242 1.696.422l-1.811.803c.459.363.91.738 1.381 1.082.157.117.417.109.542.242.321.344.593.736.887 1.109-2.279-.465-2.484-.523-2.63 2.074 2.186-.729 2.89-.58 3.859.971-2.387-.859-4.43-1.1-4.636 2.365-.214-1.105-.132-2.062-.194-3.006-.028-.395-.363-.766-.557-1.145-.301.287-.685.529-.882.875-.172.303-.144.723-.203 1.088-.379-.279-.501-.611-.575-.955-.146-.697-.195-1.426-.428-2.092-.112-.338-.532-.57-.814-.848-.131.342-.307.674-.382 1.027-.054.264.021.553.039.832l-.418.068c-.121-.66-.248-1.318-.36-1.98-.093-.541-.07-1.133-.291-1.611-.119-.256-.647-.318-.989-.469-.095.305-.253.607-.271.916-.025.447.05.898.085 1.346l-.328.133c-.221-.32-.499-.615-.645-.963-.233-.549-.287-1.193-.591-1.688-.282-.461-.794-.781-1.206-1.162-.119.443-.232.889-.362 1.328-.016.055-.117.084-.358.242-.192-.529-.382-1.016-.545-1.514-.182-.568-.257-1.186-.536-1.699-.139-.26-.621-.334-.949-.492-.084.314-.229.627-.241.943-.019.422.066.846.105 1.268l-.392.129c-.197-.34-.404-.672-.584-1.02-.386-.736-.699-1.521-1.166-2.203-.154-.225-.686-.193-1.045-.281-.009.322-.089.664-.011.967.127.49.354.951.638 1.674-1.517-.275-2.016-1.119-2.41-2.109-.187-.467-.42-.949-.763-1.303-.184-.191-.638-.119-.97-.168-.002.326-.055.664.011.975.073.359.255.697.389 1.045l-.431.27c-.521-.602-1.048-1.199-1.563-1.807-.327-.389-.639-.787-.962-1.18-.219.49-.438.979-.667 1.465-.031.064-.114.104-.225.197-.812-.174-1.646-1.129-2.734.086l1.932 1.279-.251 1.549c.492-.029.99-.02 1.471-.105.303-.053.568-.293.874-.377.443-.121.905-.174 1.283-.242l-.329 1.535c.446.043.893.137 1.338.111.304-.016.592-.23.898-.293.414-.082.838-.104 1.257-.15-.163.432-.431.527-.591.715-.177.205-.405.562-.332.732.097.223.449.412.722.463.248.043.526-.141.799-.188.803-.137 1.607-.256 2.406-.381-.445.754-.763 1.293-1.076 1.83.609-.047 1.245.004 1.817-.166 1.036-.305 1.962-.199 3.201.363-1.006.371-1.701.594-2.367.893-.2.088-.312.385-.463.586.227.109.463.326.68.307.867-.086 1.726-.293 2.597-.365.578-.047 1.172.062 1.759.1l-.016.432c-.33.082-.696.102-.98.264-.33.189-.848.537-.822.766.074.635.545.672 1.165.531.785-.174 1.62-.137 2.43-.191l.022.438c-.409.055-.829.068-1.224.182-.267.074-.493.287-.739.438.182.238.334.645.548.684.648.109 1.32.1 1.986.094.697-.006 1.502-.377 1.942.736-.506.098-.97.094-1.335.285-.384.199-.67.586-1.001.893.466.203.936.576 1.396.566.568-.01 1.119-.42 1.7-.5.404-.055.845.154 1.271.244l-.076.334c-1.055.236-2.11.467-3.164.699l-.038.377c1.517.738 3.343.094 5 .764-2.741.381-1.203 2.299-1.51 3.607-.28-.275-.489-.566-.593-.891-.214-.686-.296-1.422-.585-2.068-.142-.309-.632-.461-.964-.686-.114.348-.334.695-.324 1.035.011.445.204.887.319 1.328l-.281.18c-.262-.279-.588-.52-.774-.842-.463-.789-.789-1.668-1.318-2.404-.235-.326-.827-.395-1.258-.58.062.428.089.865.195 1.283.091.348.277.666.419.998l-.354.184c-.23-.295-.496-.566-.683-.887-.342-.584-.565-1.252-.978-1.771-.23-.287-.747-.344-1.136-.506-.002.391-.05.785.01 1.164.034.232.234.441.363.66l-.199.219c-.319-.219-.713-.379-.947-.67-.396-.49-.643-1.107-1.051-1.588-.316-.375-.785-.623-1.187-.928.028.486.005.984.103 1.455.063.316.304.594.468.893l-.288.246c-.268-.252-.591-.467-.794-.764-.449-.656-.778-1.406-1.286-2.012-.207-.248-.745-.221-1.134-.32.034.359-.028.771.133 1.059.157.283.541.439.825.65-1.552.596-2.001-.398-2.613-1.041-.56-.586-1.076-1.146-2.184-.846l1.157 1.826c-1.986-.188-2.335-2.643-4.608-2.562l1.51 2.16-.227.277c-.436-.27-.893-.51-1.305-.811-.707-.518-1.358-1.115-2.091-1.592-.229-.15-.637-.021-.964-.021.057.318.007.736.188.943.429.484.971.871 1.522 1.344-1.613.479-2.453.121-3.666-1.369-.208-.256-.607-.355-.917-.527-.041.42-.166.855-.098 1.26.055.342.337.646.517.965l-.193.26c-.391-.104-.806-.152-1.163-.326-.642-.312-1.222-.781-1.886-1.014-.325-.115-.784.152-1.181.25l.576.846.384.588c-.737.145-1.38.201-1.967.412-.297.105-.497.484-.738.742.323.162.636.43.967.459.527.047 1.069-.068 1.805-.131-.254.434-.456.648-.503.891-.06.307.009.639.021.959.36-.031.789.043 1.065-.127.313-.197.454-.652.739-.922.464-.439.983-.818 1.481-1.223l.287.287-.318 1.051.147.318c.545-.262 1.121-.479 1.632-.801.529-.332.999-.764 1.496-1.15l.226.291-1.126 1.699c1.969.312 2.776-1.652 4.238-2.104l.156.312-1.071 1.475.235.289c.402-.1.861-.111 1.193-.32.641-.398 1.209-.912 1.808-1.379.614-.48 1.199-.449 1.898.123-.36.215-.724.311-.861.539-.293.486-.471 1.041-.692 1.568.566-.117 1.204-.113 1.685-.387.645-.365 1.138-.992 1.761-1.408.261-.174.692-.092 1.043-.125l.088.369c-.317.213-.708.369-.939.654-.213.26-.259.658-.381.998.389.07.822.287 1.148.178.387-.127.659-.562 1.017-.814.412-.289.863-.523 1.297-.783l.25.355c-.327.275-.683.521-.971.828-.272.291-.475.645-.708.971.47.074.978.301 1.396.188.514-.141.923-.635 1.431-.844.59-.244 1.24-.346 1.862-.51l.281.604c-.476.262-.986.471-1.4.805-.218.174-.263.561-.384.852.321.107.681.357.959.287.353-.086.625-.459.963-.656.586-.346 1.194-.65 1.792-.973l.262.455c-.293.209-.644.373-.869.643-.303.357-.506.795-.752 1.199.472-.014.965.059 1.403-.064.487-.137.921-.461 1.388-.686.386-.184.783-.338 1.476-.635l-1.538 2.025c.692-.09 1.39-.168 2.08-.271.617-.094 1.231-.219 1.953-.348-1.01.967-1.796 1.723-2.855 2.734l3.547 1.859-.129.375c-.441-.033-.955.064-1.314-.127-.795-.424-1.486-1.047-2.278-1.484-.391-.215-.912-.193-1.372-.279.131.4.229.816.408 1.193.132.277.368.504.56.756l-.272.275c-.407-.33-.798-.686-1.227-.984-.478-.334-.96-.709-1.502-.887-.27-.086-.669.23-1.011.363.184.275.318.604.558.811.348.301.774.516 1.164.764l-.165.355c-.507-.127-1.031-.213-1.525-.385-.791-.273-1.546-.65-2.346-.885-.28-.084-.643.129-.965.205.175.268.302.594.535.791.37.316.81.549 1.219.814l-.135.324c-.39-.086-.801-.121-1.162-.271-.586-.244-1.113-.645-1.712-.826-.339-.104-.771.098-1.162.162.166.336.285.703.507.988.22.281.547.475.829.709l-.192.395c-.438-.152-.873-.322-1.316-.453-.753-.217-1.503-.461-2.274-.584-.2-.033-.467.34-.704.525.2.203.374.451.612.602.313.201.678.324 1.021.482l-.182.475c-.66-.23-1.316-.477-1.981-.691-.557-.18-1.117-.371-1.692-.455-.187-.025-.54.246-.592.439-.042.16.21.465.404.605.358.262.771.451 1.162.67l-.065.404c-.467.027-.938.109-1.396.064-.635-.061-1.258-.293-1.887-.301-.312-.002-.625.336-.938.521.213.244.393.531.645.727.214.164.508.219.767.32l-.057.334c-.441.002-.888.053-1.325.006-.709-.076-1.413-.285-2.122-.299-.329-.008-.667.309-.998.477.303.254.573.58.916.75.339.168.752.176 1.135.256l-.01.33c-.285.059-.567.152-.855.172-.991.062-1.992.043-2.976.172-.34.045-.633.436-.948.668.306.238.582.582.926.686.44.131.94.07 1.551.098-.958 1.203-1.412 1.379-2.55 1.178-.431-.076-.88-.164-1.305-.111-.263.033-.609.275-.7.512-.06.145.249.496.461.676.275.23.62.377.932.559-.843 1.385-3.009.07-3.554 1.924l1.258.518c-.412.521-.809.918-1.063 1.393-.116.211.056.576.099.869.249-.053.53-.051.742-.174.321-.184.591-.457.708-.553l1.334.98c.207-.477.463-.939.604-1.434l.116-1.184c.087-.328.322-.617.515-.965.205.191.295.236.316.301.177.527.298 1.24 1.042.93.274-.117.337-.812.433-1.258.139-.652.222-1.316.344-2.062l1.278 1.248c.27-.457.572-.9.798-1.379.314-.67.573-1.367.856-2.051l.343.107c.005.256-.021.518.019.77.048.324.145.641.222.963.286-.221.708-.381.834-.67.321-.727.461-1.527.77-2.258.177-.42.539-.764.817-1.143l.36.221c-.078.486-.194.973-.223 1.459-.011.246.137.5.21.75.265-.125.674-.182.77-.385.283-.605.438-1.271.651-1.912.215-.633.259-1.414 1.391-1.512-.12.406-.241.68-.273.965-.039.311.003.629.011.943.325-.082.788-.057.952-.27.358-.449.561-1.023.841-1.539.251-.457.523-.906.785-1.359l.407.225c-.147.385-.36.76-.415 1.16-.05.379.065.779.108 1.172.299-.195.688-.322.882-.592.344-.482.561-1.053.854-1.572.248-.443.529-.863.799-1.291l.383.15c-.06.514-.182 1.033-.158 1.543.011.314.244.617.377.926.238-.215.562-.387.692-.652.282-.566.423-1.205.702-1.775.174-.363.493-.656.745-.982l.315.197c-.105.404-.257.807-.289 1.219-.017.268.149.547.233.822.267-.129.641-.186.782-.398.351-.525.565-1.146.896-1.688.218-.357.545-.646.824-.967l.31.211c-.11.256-.261.504-.32.773-.069.305-.057.625-.075.939.36-.064.787-.033 1.066-.223.265-.178.348-.604.556-.887.392-.533.816-1.043 1.227-1.561l.376.256-.456.977c-.301.646-.966 1.387-.825 1.914l.041.189.019-.002c.365-.049.722-.125 1.078-.213.485-.768 1.013-1.506 1.383-2.318.491-1.092 1.334-.924 2.233-1.023l-1.616 2.729c.681-.232 1.361-.467 2.052-.65.503-1.287 1.698-1.686 3.563-1.02 2.482.885 3.683 2.043 2.33 5.357.713 2.43.149 5.025-.491 7.434-.282 1.062-.643 2.201-.908 3.361l.312.109c.851.305 1.712.576 2.58.836l.053-.141-.047.145c1.012.303 2.035.586 3.061.863.479-3.352.707-6.725.119-10.025l-.197-.082.041-.699-.093-.412c-.091-.375-.011-.672.171-.881.031-.342.077-.678.153-1.01.427-1.799 1.717-2.699 3.685-2.781 2.229-.094 2.957.398 3.759 2.375.188.461.627.822.949 1.23l.511-.244-.405-2.338.336-.264c.403.43.956.797 1.169 1.307.252.602.278 1.322.278 1.992-.004 1.074.58 1.191 1.404 1.199l-.132-2.693.288-.109c.177.221.446.412.516.662.189.689.236 1.422.462 2.096.115.34.498.588.758.877.143-.33.347-.646.412-.99.073-.373.021-.768.019-1.152l.5-.041c.104.773.213 1.545.304 2.318.099.846.101 1.742 1.406 2.035l-.146-2.52.378-.133c.182.404.46.793.517 1.213.062.459-.135.949-.122 1.424.013.479.091.975.254 1.42.048.131.698.201.716.158.18-.451.296-.93.408-1.404.072-.307.105-.621.155-.934.469.215.778.479.81.77.093.896.025 1.807.129 2.697.044.398.354.768.545 1.15.247-.326.575-.621.726-.988.141-.344.095-.766.131-1.154.371.199.547.404.541.602-.022.633-.193 1.271-.139 1.895.027.352.38.678.583 1.016.262-.293.589-.553.762-.893.135-.27.076-.633.104-.955l.461.012c.579 1.377-.186 2.781-.237 4.355l1.731.074.021-2.078.411-.068c.171.404.453.797.486 1.213.042.545-.232 1.123-.149 1.65.101.617.438 1.193.676 1.789l1.191-1.16c-.006.342.018.68-.023 1.012-.053.436-.283.885-.213 1.285.089.504.407.969.628 1.451.331-.277.658-.559.996-.824.047-.039.149-.01.478-.014l-.616 3.779-.495.184.465 1.244 1.481-2.479.448.139c-.06.539-.081 1.088-.191 1.617-.083.424-.416.838-.379 1.234.035.398.391.77.604 1.152l.652-.803.363-.35c.346.525.59 1.033.965 1.412.197.199.625.172.945.248.035-.324.16-.672.083-.965-.136-.512-.396-.988-.559-1.373l1.483-.469c-.331-.408-.617-.863-1.003-1.211-.348-.316-.822-.488-1.198-.781-.219-.17-.354-.453-.526-.684.285-.17.557-.434.86-.479.275-.039.581.205.88.24.232.025.479-.08.72-.127-.079-.203-.103-.51-.248-.588-.902-.484-1.86-.865-2.738-1.391-.482-.289-.838-.789-1.249-1.195.499-.037 1-.078 1.502-.105l.226.07c.348-.072.692-.164 1.038-.248-.21-.332-.342-.814-.639-.965-.736-.369-1.558-.564-2.325-.873-.324-.129-.605-.373-.905-.562.342-.248.557-.182.721-.244.353-.131.68-.328 1.019-.5-.238-.311-.414-.732-.726-.9-.402-.219-.924-.199-1.377-.338-.701-.217-1.388-.482-2.08-.727l.098-.379c.341-.002.7.066 1.015-.023.29-.084.531-.334.796-.51-.208-.26-.371-.588-.636-.758-.205-.131-.547-.027-.813-.09-.911-.211-1.816-.449-2.724-.674l.078-.51 2.547-.066c-.993-2.303-3.244-.678-4.731-1.99.711-.018 1.113.029 1.483-.059.301-.072.563-.307.843-.467-.202-.219-.373-.57-.617-.629-.689-.164-1.407-.199-2.11-.301-.591-.086-1.18-.189-1.769-.285l.066-.408c.216-.021.436-.035.653-.068.402-.061.825-.082 1.193-.236.099-.041.131-.654.021-.723-.38-.232-.826-.441-1.26-.467-.589-.037-1.186.131-1.781.16-.293.016-.59-.086-.888-.133l.016-.316 2.558-.578c-1.702-1.664-3.797-.072-5.499-1.451.607-.174.988-.223 1.303-.393.261-.139.448-.42.668-.635-.27-.195-.538-.551-.804-.547-.628.008-1.252.195-1.878.297-.345.055-.692.078-1.039.117l-.104-.307 1.575-.566-.316-.756c-.574.014-1.155-.014-1.728.047-.776.08-1.543.275-2.319.316-.233.012-.567-.281-.691-.521-.063-.127.184-.477.362-.656.936-.934.817-1.322-.461-1.773-.525-.188-.983-.557-1.475-.844l.231-.549c.555.156 1.157.217 1.64.492.506.285.866.824 1.355 1.156.275.186.686.172 1.033.25-.029-.354.016-.736-.112-1.047-.149-.348-.456-.629-.692-.939l.332-.342c.558.449 1.09.939 1.686 1.334.368.244.833.34 1.251.504-.014-.43-.033-.857-.039-1.285 0-.066.062-.135.197-.402.687.625 1.307 1.248 1.996 1.785.252.197.667.197 1.004.283-.054-.367-.018-.781-.181-1.092-.223-.418-.599-.758-.908-1.129l.29-.357c.374.281.822.504 1.11.855l1.29 1.857c.183.221.593.25.896.365.021-.324.133-.68.041-.967-.174-.537-.471-1.035-.715-1.551l.293-.275c.374.271.804.492 1.114.826.458.494.771 1.133 1.262 1.584.316.293.84.357 1.273.525l.212-.361-1.18-2.137.376-.256 1.461 1.742c.515.605.934 1.451 2.009.807l-.801-1.77.312-.209c.295.27.663.494.873.82.366.562.637 1.191.944 1.791.468.916 1.049.975 1.741.23l-1.175-2.109.292-.273c.348.191.786.305 1.025.588l1.218 1.758c.789.91 1.653 1.752 2.488 2.623l.185-.188c-.569-1.094-1.137-2.188-1.708-3.281l.517-.275c.856 1.422 1.714 2.842 2.609 4.334 1.694-.805-.423-1.992.13-3.312 1.268 1.918 1.969 3.973 3.648 5.268-.168-.688-.481-1.289-.66-1.93-.099-.342.033-.752.063-1.133.283.279.651.514.831.848.282.52.422 1.115.648 1.666.412.994 1.056 1.225 1.795.699l-.836-1.053.361-.451c.407.076.815.165 1.227.203zm-50.176-21.866c1.114.219 2.21.529 3.297.865.134.041.176.383.261.582l-.207.246c-.431-.16-.855-.355-1.297-.475-.409-.111-.84-.146-1.232-.211l-.534 3.287-.313.053c-.145-.449-.351-.889-.414-1.348-.097-.703-.159-1.424-.103-2.127.023-.317.412-.897.542-.872zm2.928 3.95c-.267.59-.658 1.123-.999 1.678l-.32.027c.135-.83.243-1.668.442-2.486.023-.104.514-.098.786-.141.041.31.2.675.091.922zm-3.894 4.691c.429.25.896.459 1.264.779.078.07-.212.555-.331.848l-1.337-.99.404-.637zm-.572-1.422l.096-.439c.726-.318 1.372-.23 1.912.42l-.115.432-1.893-.413zm-3.699 5.371c2.454-1.506 3.484-1.641 4.283-.4-1.48-.112-2.69 1.051-4.283.4zm4.594 2.301c-.291-.117-.461-.545-.685-.83.27-.189.514-.473.81-.553 1.444-.377 2.606.541 3.247 2.521-1.176-.386-2.295-.71-3.372-1.138zm5.417-7.465c-.342-.092-.716-.062-1.076-.086.006.359-.025.725.026 1.078.036.262.181.512.274.764l-.454.199c-.209-.502-.562-1-.588-1.512-.026-.607.182-1.246.394-1.836.075-.213.456-.465.683-.447.86.068 1.742 1.18 1.811 2.35-.413-.203-.725-.416-1.07-.51zm3.946-4.621l-2.137-.199.119 1.51-.33.113c-.13-.449-.462-.957-.35-1.332.185-.607.71-1.615 1.004-1.586.669.064 1.289.66 1.927 1.041l-.233.453zm5.153 4.578l.365.082-.204 2.176-1.311-1.025 1.15-1.233zm-1.26-5.363c-.335.561-.776 1.057-1.179 1.578-.191-.316-.616-.754-.528-.92.295-.553.771-1.01 1.382-1.75.185.586.417.934.325 1.092zm-2.047 13.537l1.994-1.607.396.477-1.966 1.645-.424-.515zm5.346 2.197l-4.532.137c1.22-2.342 2.737-2.438 4.532-.137zm-.015-12.09c.138-.098.599-.037.624.045.084.254.071.557.017.826-.117.586-.286 1.16-.436 1.74l-.314.023c-.168-.621-.407-1.238-.465-1.871-.028-.241.322-.571.574-.763zm-.024 7.694l.002-1.006 1.442.234.014.58-1.458.192zm2.289-5.346c-.328-1.258-2.005-3.766-2.881-4.145.721-.268 1.18-.584 1.631-.57.745.018 1.507.18 2.216.416.293.098.729.645.661.814-.431 1.094-.978 2.137-1.627 3.485zm1.804 4.432l-.543-.299c.36-.562.973-1.111 1.005-1.691.027-.484-.628-1.006-1.064-1.635.844-.059 2.06.719 1.998.941-.25.951-.894 1.801-1.396 2.684z"/><path fill-rule="evenodd" clip-rule="evenodd" d="M233.532 202.543c.741 1.1 1.484 2.197 2.226 3.295l-.382.275c-.733-1.094-1.468-2.186-2.202-3.277l.358-.293z"/><path fill="#1F140F" d="M178.366 290.842s-11.091 11.465-34.581 7.641c-23.49-3.822-16.342-12.449-14.44-12.705 1.905-.258 3.69.195 4.157 1.807.465 1.615.695 2.703-.46 2.838-1.156.139-1.636-1.396-1.636-1.396s-2.457 2.676.92 3.305c3.378.629 4.81-3.465 3.787-4.887-1.021-1.42-3.598-4.227-7.376-2.898-3.776 1.328-4.94 5.994-1.735 9.668 3.204 3.678 28.372 10.121 40.593 5.152 12.214-4.973 12.305-5.525 13.704-7.158 1.398-1.633 2.949-8.176 2.653-10.328-.3-2.152-2.284-6.361-2.129-7.307.153-.945.685-2.477 3.229-2.062l4.907.799c1.97.32 2.688 2.377 2.238 5.137-.45 2.76-2.775 9.094-2.746 11.893.028 2.797 2.415 17.992 23.54 21.43s26.706.465 27.515-4.504c.808-4.965-4.294-9.922-7.807-5.721-3.517 4.205 2.615 7.791 4.339 5.156.847-1.236-.27-1.822-1.147-1.398s-3.131-1.158-1.259-2.715c1.035-.883 4.588 1.152 3.955 4.529-.63 3.377-4.455 5.828-22.007 2.971-17.549-2.855-23.627-8.941-23.91-17.645-.16-3.992.271-8.615.752-9.59.48-.973 1.933-9.393 1.396-12.557-.537-3.16-.84-6.287.402-7.943 1.241-1.662 2.591-5.973 2.057-8.162-.532-2.191-.039-3.73 1.236-6.111 1.279-2.381 1.144-7.014 1.188-8.789.046-1.771.63-3.861 1.112-4.834.48-.975.966-4.449.729-6.473-.237-2.025-.098-3.377.556-4.404.651-1.025 2.109-4.025 1.774-6.428-.337-2.4.274-3.678.705-4.334.429-.658 1.173-5.23 1.173-5.23l.367-.264s2.042 1.869 4.724 2.307c2.679.436 7.644-2.723 8.812-9.895.307-1.893-.881-3.543-.881-3.543s1.28-3.463.313-4.805c-.733-1.018-1.959.492-1.959.492s-.901-.428-1.405-1.301c-.506-.871-1.325-2.301-1.325-2.301s-3.361-.223-9.298 2.938c-1.184-3.672-3.319-5.961-7.971-6.717-4.65-.758-8.864 2.764-9.237 5.051-.371 2.285-1.913 11.258-1.586 13.738.322 2.482 3.058 6.566 5.186 6.912 1.418.23 2.375-.18 2.375-.18l.724.523s-1.83 12.242-2.099 13.9c-.27 1.652-1.396 2.602-1.835 4.799-.438 2.191-1.199 8.867-1.652 10.654-.451 1.787-1.347 1.801-1.834 4.799l-.346 2.127c-.282 1.734.301 6.117.128 9.164-.172 3.047-2.928 10.043-5.04 14.068-2.111 4.025-2.428 7.453-1.968 11.088.461 3.634-.425 8.589-1.577 9.699z"/><path fill="#D70E18" d="M197.128 184.498c-1.312-.215-2.589-.088-3.753.258l-.754.256-.076 2.037s-1.983 1.012-2.06 1.484l-.656 4.02s2.68-2.658 3.317-2.857c.641-.201.753 1.338.272 1.682-.479.348-2.629 2-2.145 3.293.249.525 1.366.404 1.784.049.146-.158.606.4-.24 1.477-.842 1.078-1.954 4.172-2.416 7.012-.463 2.838-.289 4.381 1.959 4.748 2.244.365 4.049-2.133 5.021-5.131.976-2.996.581-5.062 1.041-6.385.456-1.322 1.169-2.055 1.476-3.158.311-1.102.254-1.598.318-1.951.063-.354.625-1.354.625-1.354s1.602.018 1.788 1.867c.051.436-.452.535-.637 1.295-.184.758-1.33 3.316-.894 4.746.435 1.428.565 2.482 1.514 2.635l.947.156s1.912-6.549 1.538-9.461c-1.182-3.673-3.318-5.962-7.969-6.718z"/><path fill="#D70E18" d="M207.357 192.25c1.125.547.692 3.572-.041 5.092-.732 1.52-1.334 5.73-.8 6.666.534.938 2.081 3.707 4.631 3.363 2.853-.385 6.109-3.254 6.325-6.07.218-2.816-.345-5.338-1.975-7.605-1.634-2.268-3.451-3.822-3.57-5.123-1.359.293-3.258.881-5.631 2.033.001.003-.062 1.097 1.061 1.644z"/><path fill="#4BA82C" d="M205.55 198.51c.073-1.203.109-2.834.003-3.336-.107-.504-.646-.469-.646-.469l-.002.006c-.443 2.877-1.344 5.965-1.344 5.965l-.711-.117s-.002.91.939 1.004c.946.094 1.231.203 1.231.203s.455-2.055.53-3.256z"/><path fill="#4BA82C" d="M200.945 207.047c.367-1.09 1.65-1.49 2.559.719.282.836-.493 3.439-.607 3.725-.112.285-.858 2.045-1.592 2.168-.729.123-2.985-2.062-2.926-2.781.055-.719 1.864-.646 2.062-1.111.196-.464.153-1.687.504-2.72z"/><path fill="#4BA82C" d="M194.775 218.848c-1.011 1.996 1.142 4.918 2.797 5.188 1.656.27 3.019-1.025 3.136-1.371.116-.346.913-3.371.653-4.02-.258-.648-.749-1.943-1.502-2.064-.75-.124-3.921-.032-5.084 2.267z"/><path fill="#4BA82C" d="M196.951 228.973c1.973.738 2.831.461 2.831.461s.889 1.297.453 3.229c-.438 1.93-2.996 3.881-4.959 3.439s-3.499-2.936-2.881-5.625c.622-2.691 2.438-3.588 2.438-3.588s1.198 1.738 2.118 2.084z"/><path fill="#4BA82C" d="M189.855 240.5c-.967 2.084.914 7.434 4.284 7.979 2.096.039 3.018-.766 3.206-1.037.183-.271.301-2.83.109-3.701-.102-.455.034-1.58.316-1.953.263-.348-.097-1.592-1.201-1.895-1.103-.301-5.406-2.215-6.714.607z"/><path fill="#4BA82C" d="M188.808 254.834c-.293 1.223 3.185 3.855 3.659 3.934.473.074 1.967-.529 2.313-2.658.346-2.129-.691-2.844-1.045-2.902-.355-.058-4.705.69-4.927 1.626z"/><path fill="#4BA82C" d="M186.093 266.104c-.065 1.744 2.463 2.951 3.446 3.232.98.279 3.104-.104 3.104-.104s1.103-2.309-.316-3.268c-1.423-.958-6.172-1.487-6.234.14z"/><path fill-rule="evenodd" clip-rule="evenodd" d="M126.3 237.473c.894-.73 1.728-1.543 2.684-2.172 2.097-1.379 2.869-1.248 4.601.561 1.171 1.223 2.686.992 3.154-.615.661-2.254 1.116-4.57 1.655-6.859.046-.193.003-.451.114-.58.409-.477.865-.914 1.304-1.367.028.512.144 1.039.068 1.537-.366 2.445-.827 4.881-1.168 7.332-.306 2.172 2.504 4.32 4.55 3.516.262-.104.54-.344.643-.588.048-.121-.27-.43-.467-.602l-.786-.539c-.713-.65-.7-1.434.17-1.85 1.867-.889 3.769-1.734 5.721-2.404.542-.186 1.452.125 1.958.514 2.553 1.982 5.312 3.543 8.474 4.262 5.141 1.17 9.802.041 13.918-3.225 1.234-.98 1.752-.953 2.444.447.509 1.033.421 2.047-.352 2.895-.756.83-1.637.455-2.545.17-.583-.182-1.327-.219-1.893-.02-3.266 1.15-6.588 1.855-10.072 1.676-.871-.047-1.756.109-2.616.008-2.778-.334-5.117-1.615-7.215-3.436-.701-.609-1.55-1.131-2.418-1.42-.412-.137-1.034.375-1.561.592.218.379.375.816.666 1.129.849.922.872 1.486.054 2.504-2.458 3.062-7.806 3.621-10.729-.133-.644-.826-1.146-.916-1.979-.367-1.071.709-2.114.227-3.026-.359-1.518-.979-3.009-1.162-4.602-.25-.116.066-.299.02-.451.025l-.298-.382z"/><path fill-rule="evenodd" clip-rule="evenodd" d="M219.493 256.131c.327-1.672 3.158-3.328 4.691-2.746 1.228.465 2.429 1.012 3.683 1.383 1.906.562 3.107-.254 3.439-2.184.219-1.262.542-2.508.677-3.773.197-1.852 1.511-2.5 2.991-3.02 2.218-.779 4.436-1.547 6.663-2.309.298-.1.62-.182.929-.166.197.01.486.172.547.336.062.166-.034.508-.179.617-.413.305-.858.592-1.334.779-2.188.867-4.385 1.721-6.59 2.537-.899.332-1.5.848-1.671 1.832-.168.943-.386 1.877-.606 2.809-.892 3.732-5.039 5.723-8.492 3.947-1.493-.766-2.804-1.072-4.209.02-.082.064-.226.064-.345.059l-.194-.121z"/><path fill-rule="evenodd" clip-rule="evenodd" d="M247.74 244.928c-.003.328.028.664-.016.986-.351 2.566-.721 5.131-1.068 7.697-.067.514-.109 1.035-.081 1.551.107 1.805 1.531 2.943 3.294 2.564.293-.062.6-.547.708-.896.317-1.029 1.041-1.822 2.01-1.73.72.07 1.513.789 1.992 1.428.252.334.12 1.408-.212 1.662-1.649 1.262-3.447 2.314-5.654 2.193-3.354-.178-4.161-2.508-3.833-4.748.458-3.076 1.036-6.133 1.581-9.195.058-.303.189-.613.355-.877.171-.273.428-.496.646-.742l.278.107z"/><path fill-rule="evenodd" clip-rule="evenodd" d="M242.937 252.885c.584 1.471-.772 3.896-2.79 5.35-2.018 1.451-5.208 1.908-6.635.732 4.339-.27 7.322-2.459 9.425-6.082z"/><path fill-rule="evenodd" clip-rule="evenodd" d="M133.361 229.268c-.348-.254-.594-.354-.713-.535-.438-.668-.937-.619-1.507-.209-.656.473-1.192.197-1.441-.416-.12-.295.064-.854.303-1.125.454-.523 1.081-.775 1.592-.041.452.656.866.766 1.557.283.277-.191.91-.152 1.206.043.262.18.495.902.361 1.062-.349.414-.908.649-1.358.938z"/><path fill-rule="evenodd" clip-rule="evenodd" d="M224.894 249.018c-.408-.137-.672-.16-.839-.297-.617-.51-1.079-.314-1.501.248-.485.645-1.081.543-1.499.031-.203-.244-.195-.834-.047-1.166.277-.633.801-1.062 1.505-.51.63.492 1.058.473 1.574-.191.205-.268.826-.418 1.161-.316.304.09.745.711.664.902-.212.5-.675.892-1.018 1.299z"/><path fill-rule="evenodd" clip-rule="evenodd" d="M148.702 244.246c-.834.371-1.434.848-2.001.812-.368-.025-.686-.799-1.025-1.236.563-.326 1.115-.873 1.691-.904.363-.018.77.734 1.335 1.328z"/></svg>