<svg xmlns="http://www.w3.org/2000/svg" width="635.873" height="352.034"><polygon opacity=".5" fill="#ff0" points="357.484,194.909 370.426,216.845 349.395,216.845 341.307,227.144 305.719,233.431 291.158,241.362 245.865,254.263 234.54,268.845 208.659,268.845 189.246,254.333 152.04,268.266 137.481,253.845 119.684,253.845 76.009,232.007 86.578,218.416 111.707,208.333 111.707,192.845 121.303,192.845 137.481,181.034 155.275,170.845 174.687,170.845 202.185,161.28 234.54,172.67 250.718,171.092 279.836,183.893 287.924,191.845 308.954,191.845 336.453,197.289"/><polygon opacity=".5" fill="#ff0" points="546.924,199.804 559.865,221.845 538.835,221.845 530.747,232.042 495.158,238.277 480.599,246.182 435.303,258.674 423.98,272.845 398.098,272.845 378.685,258.731 341.481,271.966 326.922,256.845 309.123,256.845 265.448,235.907 276.298,222.763 301.707,213.129 301.707,197.845 310.743,197.845 326.922,186.535 344.714,176.845 364.126,176.845 391.626,166.677 423.98,177.766 440.157,176.036 469.275,187.867 477.363,194.845 498.392,194.845 525.893,201.236"/><polygon opacity=".5" fill="#603813" points="96.086,166.03 131.611,210.845 186.448,210.845 163.981,166.706"/><polygon opacity=".5" fill="#603813" points="180.015,144.905 197.778,167.845 225.196,167.845 213.963,145.515"/><polygon opacity=".5" fill="#603813" points="115.271,151.501 133.032,173.845 160.45,173.845 149.218,151.81"/><polygon opacity=".5" fill="#603813" points="137.507,112.545 148.384,166.312 195.322,190.288 195.358,142.751"/><polygon opacity=".5" fill="#603813" points="193.025,94.598 156.94,138.815 168.614,192.397 206.884,161.066"/><polygon opacity=".5" fill="#603813" points="231.608,172.09 213.198,194.277 219.035,221.069 238.353,205.362"/><polygon opacity=".5" fill="#603813" points="210.798,110.358 192.388,132.549 198.225,159.339 217.543,143.635"/><polygon opacity=".5" fill="#603813" points="253.954,123.718 203.733,145.79 190.297,196.755 236.753,186.671"/><polygon opacity=".5" fill="#603813" points="188.555,112.148 190.203,169.199 234.089,202.08 242.529,153.345"/><polygon opacity=".5" fill="#603813" points="268.439,145.5 269.036,174.325 290.979,190.769 295.312,166.249"/><polygon opacity=".5" fill="#603813" points="212.308,112.438 212.908,141.265 234.851,157.705 239.184,133.188"/><polygon opacity=".5" fill="#603813" points="253.684,94.301 230.15,143.853 253.338,191.186 281.871,153.161"/><polygon opacity=".5" fill="#603813" points="308.875,113.227 253.486,126.977 230.699,176.856 280.112,174.73"/><polygon opacity=".5" fill="#603813" points="293.29,198.376 265.254,205.098 253.861,230.038 278.738,229.051"/><polygon opacity=".5" fill="#603813" points="313.65,136.494 285.613,143.218 274.219,168.155 299.097,167.174"/><polygon opacity=".5" fill="#603813" points="340.176,173.062 286.751,160.613 245.44,193.349 288.665,213.131"/><polygon opacity=".5" fill="#603813" points="218.383,161.13 253.907,205.845 308.743,205.845 286.278,161.759"/><polygon opacity=".5" fill="#603813" points="302.312,140.007 320.073,162.845 347.493,162.845 336.259,140.561"/><polygon opacity=".5" fill="#603813" points="237.567,147.604 255.329,170.845 282.747,170.845 271.514,148.362"/><polygon opacity=".5" fill="#603813" points="259.804,107.75 270.68,161.518 317.618,185.493 317.654,137.953"/><polygon opacity=".5" fill="#603813" points="291.341,168.934 255.257,213.152 266.93,266.735 305.2,235.404"/><polygon opacity=".5" fill="#603813" points="363.496,186.477 345.088,208.665 350.923,235.459 370.24,219.752"/><polygon opacity=".5" fill="#603813" points="333.094,105.563 314.685,127.754 320.521,154.543 339.84,138.837"/><polygon opacity=".5" fill="#603813" points="385.841,138.105 335.622,160.177 322.185,211.145 368.641,201.06"/><polygon opacity=".5" fill="#603813" points="320.444,126.537 322.092,183.585 365.977,216.466 374.416,167.731"/><polygon opacity=".5" fill="#603813" points="400.327,159.889 400.925,188.714 422.868,205.155 427.2,180.636"/><polygon opacity=".5" fill="#603813" points="334.605,107.643 335.203,136.469 357.149,152.907 361.479,128.39"/><polygon opacity=".5" fill="#603813" points="385.573,108.688 362.039,158.239 385.227,205.575 413.759,167.548"/><polygon opacity=".5" fill="#603813" points="431.172,108.432 375.781,122.184 352.995,172.062 402.409,169.935"/><polygon opacity=".5" fill="#603813" points="434.771,227.152 406.735,233.872 395.34,258.81 420.219,257.824"/><polygon opacity=".5" fill="#603813" points="435.947,131.699 407.909,138.42 396.516,163.361 421.393,162.377"/><polygon opacity=".5" fill="#603813" points="472.064,187.451 418.639,175.004 377.328,207.735 420.552,227.521"/><polygon opacity=".5" fill="#603813" points="385.391,217.345 362.713,199.543 336.089,206.097 352.311,224.984"/><polygon opacity=".5" fill="#603813" points="434.348,238.377 410.929,188.77 359.618,176.713 370.952,222.88"/><polygon opacity=".5" fill="#603813" points="394.325,283.467 418.787,231.901 394.642,182.668 364.972,222.24"/><polygon opacity=".5" fill="#603813" points="314.351,193.474 326.919,167.524 314.845,142.901 299.843,162.773"/><polygon opacity=".5" fill="#603813" points="363.706,258.026 376.275,232.077 364.202,207.459 349.198,227.328"/><polygon opacity=".5" fill="#603813" points="318.608,255.373 362.094,221.934 362.952,169.233 320.255,190.133"/><polygon opacity=".5" fill="#603813" points="217.117,210.119 195.288,192.981 169.663,199.291 185.278,217.473"/><polygon opacity=".5" fill="#603813" points="264.238,230.362 241.699,182.612 192.311,171.008 203.22,215.444"/><polygon opacity=".5" fill="#603813" points="235.667,279.095 259.213,229.466 235.972,182.074 207.415,220.167"/><polygon opacity=".5" fill="#603813" points="246.516,280.301 258.614,255.324 246.993,231.629 232.554,250.756"/><polygon opacity=".5" fill="#603813" points="196.245,249.273 208.341,224.296 196.722,200.604 182.28,219.727"/><polygon opacity=".5" fill="#603813" points="152.837,246.719 194.694,214.536 195.519,163.809 154.423,183.929"/><polygon opacity=".5" fill="#603813" points="311.561,203.902 292.744,189.133 270.656,194.571 284.115,210.242"/><polygon opacity=".5" fill="#603813" points="361.773,240.537 342.342,199.379 299.77,189.375 309.175,227.679"/><polygon opacity=".5" fill="#603813" points="306.218,261.214 326.516,218.43 306.482,177.582 281.866,210.415"/><polygon opacity=".5" fill="#603813" points="336.496,254.403 346.924,232.873 336.906,212.445 324.459,228.932"/><polygon opacity=".5" fill="#603813" points="293.57,237.656 303.996,216.127 293.979,195.701 281.532,212.185"/><polygon opacity=".5" fill="#603813" points="251.355,259.433 287.435,231.691 288.147,187.965 252.722,205.306"/><polygon opacity=".5" fill="#603813" points="290.741,111.49 309.556,126.261 331.646,120.822 318.187,105.15"/><polygon opacity=".5" fill="#603813" points="250.122,94.04 269.551,135.198 312.125,145.204 302.721,106.901"/><polygon opacity=".5" fill="#603813" points="291.287,68.567 270.99,111.352 291.024,152.201 315.641,119.367"/><polygon opacity=".5" fill="#603813" points="337.746,123.338 327.319,144.869 337.335,165.297 349.783,148.81"/><polygon opacity=".5" fill="#603813" points="308.733,77.736 298.306,99.268 308.322,119.695 320.771,103.208"/><polygon opacity=".5" fill="#603813" points="346.152,79.941 310.071,107.683 309.359,151.408 344.785,134.07"/></svg>