<?xml version="1.0" encoding="utf-8"?>
<!-- Generator: Adobe Illustrator 16.0.0, SVG Export Plug-In . SVG Version: 6.00 Build 0)  -->
<!DOCTYPE svg PUBLIC "-//W3C//DTD SVG 1.1//EN" "http://www.w3.org/Graphics/SVG/1.1/DTD/svg11.dtd">
<svg version="1.1" id="Layer_1" xmlns="http://www.w3.org/2000/svg" xmlns:xlink="http://www.w3.org/1999/xlink" x="0px" y="0px"
	 width="13014.328px" height="1280px" viewBox="0 0 13014.328 1280" enable-background="new 0 0 13014.328 1280"
	 xml:space="preserve">
<g>
	<polygon fill="#FFFFFF" points="1907.148,1244.185 1845.073,1206.019 1780.609,1163.044 1697.045,1048.44 1592.148,914.542 
		1592.17,904.068 1483.134,870.125 1032.662,768.245 884.627,870.125 534.438,768.245 1.194,905.138 0.398,1280 1591.374,1280.796 
		1591.376,1280.016 2061.236,1282.388 	"/>
	<path fill="#FFFFFF" d="M6368.678,1231.722l-53.99-132l-112.217-148l-125.722-120l-155.19-111.391l-119.377-28.627l-164.738-17.92
		l-269.793-15.459l-202.939,15.459l-57.369,16.03l-6.289-79.187l31.819-127.268l22.233-40.506l11.545-0.311l-4.291,40.103
		l-7.572,16.018l6.4,1.522l22.58-6.426l21.04-34.674l-1.728-27.458l19.324,10.181l8.062,20.385l7.333-0.737l-0.103-15.266
		l-0.158-24.18l-17.041-22.648l-10.013-3.538l10.216-9.308l20.338,1.166l3.104-9.695l-14.543-4.659l-18.049-6.187l-24.236,7.237
		l-8.992-19.253l-20.656-15.149l-13.045-9.568l-5.105,6.963l14.298,15.838l1.17,10.876l-25.958-15.591l-30.188-1.206l-2.758-0.109
		l2.582-0.478l-5.881-31.83l-19.405-31.226l-34.267-22.678l-28.386-2.748l8.653-9.267l32.121-6.26l0.146-13.238l-24.809-0.28
		l-39.283-0.441l-34.742,18.525l2.242-14.046l19.621-19.619l-6.168-9.38l-17.578,11.559l-27.83,18.299l-12.957,24.407
		l-30.996-11.007l-23.848,6.837l-19.198,5.081l3.39,12.798l26.488-0.165l12.648,12.768l-13.237,3.928L4841.754,317l-1.811,31.39
		l-1.146,19.819l9.474,1.446l11.826-25.928l25.772-11.932l-4.065,35.563l25.027,46.464l28.912,9.93l8.414-1.558l-8.785-21.383
		l-2.923-52.442l14.974,1.17l26.182,54.08l32.869,167.388l-19.999,152.569l-0.867,0.243l-31.006,12.789l-179.289,28.766l0.003-3.161
		l-133.588,72.83l-69.979,52.434l-69.979,76.658l-31.199,56.958l-81.188,76.411l-144.165,84.618l-246.296,97.081l775.6,1.592v-0.004
		l1612.576-0.797L6368.678,1231.722z M5016.175,299.064l50.06,19.707l19.597,28.001l-6.054-0.241l-0.406,10.173l24.422,6.067
		l6.283,7.457l-21.912,0.996l-22.924,13.591l-1.738-9.41l-23.441-55.621l-25.89-20.952L5016.175,299.064z M5067.82,700.858
		l-24.21,6.767l0.271-143.534l-45.029-165.155l-20.83-49.945l20.236,4.929l2.658,3.863l48.68,46.073l-4.625,6.695l-5.867,24.626
		l8.537,2.035l17.375-22.451l39.248-13.274l1.56-0.15l-20.64,15.065l-20.123,41.786l-5.994,25.161l9.377,2.234l45.277-38.593
		l2.182-2.818l15.732-2.966l-17.963,37.553l-41.072,125.08L5067.82,700.858z"/>
	<path fill="#FFFFFF" d="M9602.264,1103.792L9498.24,957.349l-112.217-101.409l-125.721-75.2l-155.191-61.205l-119.377-28.628
		l-164.738-17.918l-269.794-15.459l-202.939,15.459l-57.37,16.029l-6.287-79.186l31.82-127.269l22.232-40.506l11.545-0.311
		l-4.289,40.102l-7.574,16.018l6.401,1.523l22.58-6.426l21.04-34.674l-1.727-27.458l19.322,10.182l8.064,20.385l7.332-0.739
		l-0.102-15.265l-0.158-24.18l-17.041-22.649l-10.012-3.538l10.216-9.308l20.339,1.166l3.104-9.695l-14.543-4.659l-18.05-6.187
		l-24.236,7.238l-8.993-19.254l-20.656-15.149l-13.045-9.567l-5.106,6.962l14.298,15.839l1.171,10.877l-25.958-15.592l-30.186-1.207
		l-2.758-0.108l2.582-0.478l-5.883-31.83l-19.405-31.225l-34.266-22.678l-28.386-2.749l8.653-9.266l32.12-6.26l0.147-13.238
		l-24.809-0.28l-39.282-0.441l-34.742,18.524l2.242-14.046l19.619-19.619l-6.166-9.379l-17.58,11.559l-27.828,18.299l-12.958,24.407
		l-30.995-11.007l-23.85,6.836l-19.195,5.082l3.389,12.798l26.49-0.165l12.646,12.769l-13.236,3.928l-23.635,28.28l-1.81,31.389
		l-1.146,19.82l9.475,1.446l11.825-25.928l25.772-11.932l-4.064,35.563l25.027,46.464l28.91,9.929l8.416-1.557l-8.787-21.383
		l-2.922-52.442l14.973,1.17l26.182,54.08l32.869,167.388l-19.998,152.569l-0.869,0.243l-31.004,12.79l-99.048,99.356
		l-56.222,103.504l-34.734,164.617l-10.092,176.704l1742.654-0.797L9602.264,1103.792z M8199.729,298.269l50.061,19.708l19.595,28
		l-6.053-0.241l-0.407,10.174l24.424,6.067l6.283,7.457l-21.912,0.997l-22.926,13.59l-1.737-9.409l-23.441-55.622l-25.89-20.951
		L8199.729,298.269z M8251.372,700.06l-24.212,6.767l0.271-143.533l-45.027-165.153l-20.83-49.945l20.236,4.928l2.658,3.864
		l48.68,46.072l-4.626,6.696l-5.866,24.626l8.537,2.035l17.375-22.452l39.247-13.273l1.56-0.149l-20.639,15.065l-20.125,41.785
		l-5.993,25.16l9.378,2.234l45.276-38.594l2.184-2.817l15.731-2.966l-17.964,37.553l-41.072,125.08L8251.372,700.06z"/>
</g>
<polygon opacity="0.5" fill="#FFFFFF" enable-background="new    " points="9978.422,923.157 10010.32,816.077 10124.238,760.639 
	10213.098,765.195 10256.387,710.989 10352.078,669.222 10434.102,669.222 10509.289,693.718 10561.691,744.618 10634.602,728.704 
	10693.84,756.564 10730.293,813.034 10794.09,822.153 10857.883,883.712 10838.551,949.212 10757.363,995.333 10630.043,999.861 
	10456.887,1015.819 10249.551,988.479 10137.91,1004.428 10046.773,983.921 "/>
<polygon opacity="0.5" fill="#FFFFFF" enable-background="new    " points="11504.932,1332.165 11556.066,1160.505 
	11738.688,1071.631 11881.129,1078.941 11950.527,989.606 12103.93,920.222 12235.416,920.222 12355.949,961.915 
	12439.957,1044.739 12556.84,1019.837 12651.805,1064.802 12710.234,1155.47 12812.508,1170.164 12914.783,1268.892 
	12883.793,1373.911 12753.633,1447.859 12549.525,1455.124 12271.949,1480.713 11939.572,1436.88 11760.598,1462.44 
	11614.506,1429.572 "/>
</svg>
