<svg xmlns="http://www.w3.org/2000/svg" width="13014.328" height="1280"><g fill="#fff"><polygon points="1907.148,1244.185 1845.073,1206.019 1780.609,1163.044 1697.045,1048.44 1592.148,914.542 1592.17,904.068 1483.134,870.125 1032.662,768.245 884.627,870.125 534.438,768.245 1.194,905.138 0.398,1280 1591.374,1280.796 1591.376,1280.016 2061.236,1282.388"/><path d="M6368.678 1231.722l-53.99-132-112.217-148-125.722-120-155.19-111.391-119.377-28.627-164.738-17.92-269.793-15.459-202.939 15.459-57.369 16.03-6.289-79.187 31.819-127.268 22.233-40.506 11.545-.311-4.291 40.103-7.572 16.018 6.4 1.522 22.58-6.426 21.04-34.674-1.728-27.458 19.324 10.181 8.062 20.385 7.333-.737-.103-15.266-.158-24.18-17.041-22.648-10.013-3.538 10.216-9.308 20.338 1.166 3.104-9.695-14.543-4.659-18.049-6.187-24.236 7.237-8.992-19.253-20.656-15.149-13.045-9.568-5.105 6.963 14.298 15.838 1.17 10.876-25.958-15.591-30.188-1.206-2.758-.109 2.582-.478-5.881-31.83-19.405-31.226-34.267-22.678-28.386-2.748 8.653-9.267 32.121-6.26.146-13.238-24.809-.28-39.283-.441-34.742 18.525 2.242-14.046 19.621-19.619-6.168-9.38-17.578 11.559-27.83 18.299-12.957 24.407-30.996-11.007-23.848 6.837-19.198 5.081 3.39 12.798 26.488-.165 12.648 12.768-13.237 3.928-23.632 28.282-1.811 31.39-1.146 19.819 9.474 1.446 11.826-25.928 25.772-11.932-4.065 35.563 25.027 46.464 28.912 9.93 8.414-1.558-8.785-21.383-2.923-52.442 14.974 1.17 26.182 54.08 32.869 167.388-19.999 152.569-.867.243-31.006 12.789-179.289 28.766.003-3.161-133.588 72.83-69.979 52.434-69.979 76.658-31.199 56.958-81.188 76.411-144.165 84.618-246.296 97.081 775.6 1.592v-.004l1612.576-.797-18.42-48.272zm-1352.503-932.658l50.06 19.707 19.597 28.001-6.054-.241-.406 10.173 24.422 6.067 6.283 7.457-21.912.996-22.924 13.591-1.738-9.41-23.441-55.621-25.89-20.952 2.003.232zm51.645 401.794l-24.21 6.767.271-143.534-45.029-165.155-20.83-49.945 20.236 4.929 2.658 3.863 48.68 46.073-4.625 6.695-5.867 24.626 8.537 2.035 17.375-22.451 39.248-13.274 1.56-.15-20.64 15.065-20.123 41.786-5.994 25.161 9.377 2.234 45.277-38.593 2.182-2.818 15.732-2.966-17.963 37.553-41.072 125.08-4.78 97.019z"/><path d="M9602.264 1103.792l-104.024-146.443-112.217-101.409-125.721-75.2-155.191-61.205-119.377-28.628-164.738-17.918-269.794-15.459-202.939 15.459-57.37 16.029-6.287-79.186 31.82-127.269 22.232-40.506 11.545-.311-4.289 40.102-7.574 16.018 6.401 1.523 22.58-6.426 21.04-34.674-1.727-27.458 19.322 10.182 8.064 20.385 7.332-.739-.102-15.265-.158-24.18-17.041-22.649-10.012-3.538 10.216-9.308 20.339 1.166 3.104-9.695-14.543-4.659-18.05-6.187-24.236 7.238-8.993-19.254-20.656-15.149-13.045-9.567-5.106 6.962 14.298 15.839 1.171 10.877-25.958-15.592-30.186-1.207-2.758-.108 2.582-.478-5.883-31.83-19.405-31.225-34.266-22.678-28.386-2.749 8.653-9.266 32.12-6.26.147-13.238-24.809-.28-39.282-.441-34.742 18.524 2.242-14.046 19.619-19.619-6.166-9.379-17.58 11.559-27.828 18.299-12.958 24.407-30.995-11.007-23.85 6.836-19.195 5.082 3.389 12.798 26.49-.165 12.646 12.769-13.236 3.928-23.635 28.28-1.81 31.389-1.146 19.82 9.475 1.446 11.825-25.928 25.772-11.932-4.064 35.563 25.027 46.464 28.91 9.929 8.416-1.557-8.787-21.383-2.922-52.442 14.973 1.17 26.182 54.08 32.869 167.388-19.998 152.569-.869.243-31.004 12.79-99.048 99.356-56.222 103.504-34.734 164.617-10.092 176.704 1742.654-.797-78.451-175.405zm-1402.535-805.523l50.061 19.708 19.595 28-6.053-.241-.407 10.174 24.424 6.067 6.283 7.457-21.912.997-22.926 13.59-1.737-9.409-23.441-55.622-25.89-20.951 2.003.23zm51.643 401.791l-24.212 6.767.271-143.533-45.027-165.153-20.83-49.945 20.236 4.928 2.658 3.864 48.68 46.072-4.626 6.696-5.866 24.626 8.537 2.035 17.375-22.452 39.247-13.273 1.56-.149-20.639 15.065-20.125 41.785-5.993 25.16 9.378 2.234 45.276-38.594 2.184-2.817 15.731-2.966-17.964 37.553-41.072 125.08-4.779 97.017z"/></g><polygon opacity=".5" fill="#fff" enable-background="new" points="9978.422,923.157 10010.32,816.077 10124.238,760.639 10213.098,765.195 10256.387,710.989 10352.078,669.222 10434.102,669.222 10509.289,693.718 10561.691,744.618 10634.602,728.704 10693.84,756.564 10730.293,813.034 10794.09,822.153 10857.883,883.712 10838.551,949.212 10757.363,995.333 10630.043,999.861 10456.887,1015.819 10249.551,988.479 10137.91,1004.428 10046.773,983.921"/><polygon opacity=".5" fill="#fff" enable-background="new" points="11504.932,1332.165 11556.066,1160.505 11738.688,1071.631 11881.129,1078.941 11950.527,989.606 12103.93,920.222 12235.416,920.222 12355.949,961.915 12439.957,1044.739 12556.84,1019.837 12651.805,1064.802 12710.234,1155.47 12812.508,1170.164 12914.783,1268.892 12883.793,1373.911 12753.633,1447.859 12549.525,1455.124 12271.949,1480.713 11939.572,1436.88 11760.598,1462.44 11614.506,1429.572"/></svg>