<?xml version="1.0" encoding="utf-8"?>
<!-- Generator: Adobe Illustrator 16.0.0, SVG Export Plug-In . SVG Version: 6.00 Build 0)  -->
<!DOCTYPE svg PUBLIC "-//W3C//DTD SVG 1.1//EN" "http://www.w3.org/Graphics/SVG/1.1/DTD/svg11.dtd">
<svg version="1.1" id="Layer_1" xmlns="http://www.w3.org/2000/svg" xmlns:xlink="http://www.w3.org/1999/xlink" x="0px" y="0px"
	 width="13014.329px" height="1280px" viewBox="0 0 13014.329 1280" enable-background="new 0 0 13014.329 1280"
	 xml:space="preserve">
<polygon fill="#FFFFFF" points="1.194,897.916 534.438,761.023 884.627,862.903 1032.662,761.023 1483.134,862.903 1592.17,896.847 
	1591.374,1273.574 0.398,1272.778 "/>
<polygon fill="#FFFFFF" points="4775.316,754.992 4641.728,827.822 4571.749,880.256 4501.77,956.914 4470.571,1013.872 
	4389.383,1090.283 4245.218,1174.901 3998.922,1271.982 4774.521,1273.574 "/>
<polygon fill="#FFFFFF" points="1588.987,903.286 1697.045,1041.219 1780.609,1155.822 1845.073,1198.797 1907.149,1236.963 
	2061.236,1275.166 1588.389,1272.778 "/>
<path fill="#FFFFFF" d="M6314.687,720.788l-112.216,18.661l-125.722-5.159l-155.191-21.181l-119.376-28.627l-164.739-17.919
	l-269.793-15.459l-202.94,15.459l-57.369,16.03l-6.288-79.187l31.819-127.267l22.233-40.506l11.545-0.311l-4.29,40.103
	l-7.573,16.017l6.401,1.523l22.58-6.426l21.04-34.674l-1.727-27.458l19.323,10.181l8.063,20.385l7.333-0.738l-0.102-15.265
	l-0.159-24.18l-17.04-22.648l-10.013-3.538l10.216-9.308l20.338,1.166l3.104-9.695l-14.543-4.659l-18.049-6.187l-24.237,7.237
	l-8.992-19.253l-20.656-15.149l-13.045-9.568l-5.106,6.962l14.298,15.838l1.17,10.876l-25.958-15.591l-30.187-1.206l-2.758-0.109
	l2.582-0.478l-5.882-31.83l-19.405-31.225l-34.266-22.678l-28.386-2.748l8.654-9.267l32.12-6.26l0.147-13.238l-24.808-0.28
	l-39.283-0.441l-34.742,18.525l2.241-14.046l19.621-19.619l-6.168-9.38l-17.578,11.559l-27.83,18.299l-12.957,24.407l-30.995-11.007
	l-23.848,6.837l-19.198,5.081l3.389,12.798l26.489-0.165l12.649,12.768l-13.238,3.928l-23.634,28.28l-1.81,31.39l-1.146,19.819
	l9.474,1.447l11.825-25.928l25.773-11.932l-4.065,35.564l25.027,46.464l28.912,9.929l8.414-1.557l-8.785-21.383l-2.923-52.443
	l14.973,1.17l26.182,54.08l32.869,167.388l-19.999,152.57l-0.867,0.243l-31.006,12.789l-179.289,28.765l-0.796,515.417
	l1592.568-0.796l1.592-557.751L6314.687,720.788z M5016.175,291.843l50.06,19.707l19.596,28.001l-6.053-0.241l-0.407,10.172
	l24.423,6.068l6.283,7.457l-21.912,0.996l-22.925,13.591l-1.738-9.41l-23.441-55.622l-25.89-20.951L5016.175,291.843z
	 M4998.852,391.714l-20.831-49.945l20.237,4.928l2.658,3.864l48.68,46.073l-4.626,6.695l-5.867,24.626l8.538,2.035l17.375-22.451
	l39.247-13.274l1.56-0.151l-20.639,15.066l-20.124,41.786l-5.994,25.161l9.378,2.234l45.277-38.593l2.182-2.818l15.732-2.966
	l-17.963,37.553l-41.072,125.08l-4.78,97.02l-24.21,6.766l0.27-143.534L4998.852,391.714z"/>
<path fill="#FFFFFF" d="M9498.24,719.992l-112.216,18.661l-125.722-5.159l-155.191-21.182l-119.377-28.627l-164.738-17.918
	l-269.794-15.459l-202.939,15.459l-57.37,16.029l-6.287-79.186l31.82-127.268l22.232-40.506l11.545-0.311l-4.289,40.102
	l-7.574,16.018l6.401,1.523l22.58-6.426l21.04-34.674l-1.727-27.458l19.322,10.182l8.064,20.385l7.332-0.739l-0.102-15.265
	l-0.158-24.18l-17.041-22.649l-10.012-3.538l10.216-9.308l20.339,1.166l3.104-9.695l-14.543-4.659l-18.05-6.187l-24.236,7.238
	l-8.993-19.253l-20.656-15.15l-13.045-9.567l-5.106,6.962l14.298,15.838l1.171,10.877l-25.958-15.591l-30.186-1.207l-2.758-0.109
	l2.582-0.477l-5.883-31.831l-19.405-31.224l-34.266-22.678l-28.386-2.749l8.653-9.266l32.12-6.26l0.147-13.238l-24.809-0.28
	l-39.282-0.441l-34.742,18.524l2.242-14.046l19.619-19.619l-6.166-9.379l-17.58,11.559l-27.828,18.299l-12.958,24.407
	l-30.995-11.007l-23.85,6.836l-19.195,5.082l3.388,12.798l26.49-0.165l12.647,12.769l-13.237,3.928l-23.634,28.28l-1.81,31.389
	l-1.146,19.82l9.475,1.447l11.825-25.928l25.773-11.932l-4.065,35.564l25.027,46.464l28.911,9.928l8.415-1.556l-8.786-21.383
	l-2.923-52.443l14.973,1.17l26.182,54.08l32.869,167.388l-19.999,152.57l-0.868,0.243l-31.005,12.79l-179.289,28.765l-0.795,515.416
	l1592.567-0.796l1.591-557.751L9498.24,719.992z M8199.729,291.047l50.061,19.708l19.595,28l-6.053-0.241l-0.407,10.173
	l24.424,6.068l6.283,7.457l-21.912,0.997l-22.926,13.59l-1.737-9.409l-23.441-55.622l-25.89-20.951L8199.729,291.047z
	 M8182.405,390.918l-20.831-49.945l20.237,4.927l2.658,3.865l48.68,46.072l-4.626,6.696l-5.866,24.626l8.537,2.035l17.375-22.452
	l39.247-13.273l1.56-0.15l-20.639,15.066l-20.125,41.785l-5.993,25.16l9.378,2.234l45.276-38.593l2.184-2.818l15.731-2.966
	l-17.964,37.553l-41.072,125.08l-4.779,97.018l-24.212,6.766l0.271-143.533L8182.405,390.918z"/>
<polygon opacity="0.5" fill="#FFFFFF" points="9978.422,915.936 10010.32,808.855 10124.239,753.417 10213.097,757.974 
	10256.387,703.768 10352.079,662 10434.101,662 10509.288,686.496 10561.691,737.396 10634.602,721.482 10693.839,749.343 
	10730.293,805.812 10794.089,814.932 10857.884,876.49 10838.551,941.99 10757.362,988.111 10630.044,992.64 10456.886,1008.598 
	10249.552,981.257 10137.91,997.206 10046.774,976.699 "/>
<polygon opacity="0.5" fill="#FFFFFF" points="11504.932,1324.943 11556.065,1153.283 11738.687,1064.409 11881.13,1071.72 
	11950.527,982.385 12103.929,913 12235.416,913 12355.949,954.693 12439.957,1037.518 12556.841,1012.615 12651.806,1057.58 
	12710.234,1148.248 12812.508,1162.942 12914.783,1261.67 12883.792,1366.69 12753.634,1440.638 12549.525,1447.902 
	12271.948,1473.491 11939.572,1429.658 11760.599,1455.219 11614.506,1422.351 "/>
</svg>
