<?xml version="1.0" encoding="utf-8"?>
<!-- Generator: Adobe Illustrator 16.0.0, SVG Export Plug-In . SVG Version: 6.00 Build 0)  -->
<!DOCTYPE svg PUBLIC "-//W3C//DTD SVG 1.1//EN" "http://www.w3.org/Graphics/SVG/1.1/DTD/svg11.dtd">
<svg version="1.1" id="Layer_1" xmlns="http://www.w3.org/2000/svg" xmlns:xlink="http://www.w3.org/1999/xlink" x="0px" y="0px"
	 width="13014.329px" height="1280px" viewBox="0 0 13014.329 1280" enable-background="new 0 0 13014.329 1280"
	 xml:space="preserve">
<g>
	<polygon opacity="0.5" fill="#FFFFFF" points="6367.318,577.798 7991.773,548.986 7990.982,1279 6393.465,1279 	"/>
	<polygon opacity="0.5" fill="#FFFFFF" points="1.435,749.707 428.381,554.803 658.638,652.057 800.139,605.786 1138.197,651.98 
		1403.537,454.721 1537.13,533.171 1598,612.268 1598,1279.435 0.763,1278.636 	"/>
	<g opacity="0.5">
		<polygon fill="#FFFFFF" points="1616.415,255.027 1789,274.465 1789,308.716 1631.613,324.451 		"/>
		<polygon fill="#FFFFFF" points="1711,331.006 1877,319.861 1877,381.843 1711,383.042 		"/>
		<polygon fill="#FFFFFF" points="1966,256.952 2117,245.807 2117,307.79 1966,308.989 		"/>
		<polygon fill="#FFFFFF" points="1810,307 1810,274.465 1946,260.803 1946,307 		"/>
		<polygon fill="#FFFFFF" points="1891.657,323 2039,323 2039,381.843 1901.457,372.771 		"/>
		<polygon fill="#FFFFFF" points="1711,210.1 1863,199.907 1863,256.595 1711,257.693 		"/>
		<polygon fill="#FFFFFF" points="2014.223,241.856 1878.784,254.992 1873.69,202.473 2000.303,198.001 		"/>
	</g>
	<g opacity="0.5">
		<polygon fill="#FFFFFF" points="4262.813,255.027 4435,274.465 4435,308.716 4277.812,324.451 		"/>
		<polygon fill="#FFFFFF" points="4357,331.006 4524,319.861 4524,381.843 4357,383.042 		"/>
		<polygon fill="#FFFFFF" points="4613,256.952 4763,245.807 4763,307.79 4613,308.989 		"/>
		<polygon fill="#FFFFFF" points="4457,307 4457,274.465 4593,260.803 4593,307 		"/>
		<polygon fill="#FFFFFF" points="4538.453,323 4687,323 4687,381.843 4548.855,372.771 		"/>
		<polygon fill="#FFFFFF" points="4357,210.1 4509,199.907 4509,256.595 4357,257.693 		"/>
		<polygon fill="#FFFFFF" points="4661.019,241.856 4525.581,254.992 4520.488,202.473 4647.1,198.001 		"/>
	</g>
	<polygon opacity="0.5" fill="#FFFFFF" points="1598.143,610.669 1678.971,813.551 4797,619.335 4797,1277.838 1598.664,1277.039 	
		"/>
	<path opacity="0.5" fill="#FFFFFF" d="M6392.666,579.523l-91.186-9.736l-0.445-5.611l11.565-46.262l8.082-14.722l4.196-0.114
		l-1.561,14.577l-2.752,5.822l2.326,0.556l8.209-2.338l7.646-12.603l-0.628-9.98l7.024,3.7l2.932,7.41l2.666-0.267l-0.039-5.549
		l-0.055-8.79l-6.195-8.231l-3.639-1.286l3.712-3.384l7.394,0.423l1.129-3.524l-5.289-1.693l-6.559-2.248l-8.811,2.63l-3.27-6.999
		l-7.508-5.504l-4.742-3.479l-1.854,2.53l5.198,5.758l0.424,3.954l-9.436-5.668l-10.973-0.438l-1-0.041l0.937-0.171l-2.138-11.571
		l-7.054-11.351l-12.456-8.242l-10.318-0.999l3.146-3.368l11.676-2.276l0.053-4.811l-9.018-0.103l-14.277-0.159l-12.63,6.732
		l0.815-5.106l7.131-7.129l-2.243-3.41l-6.389,4.2l-10.115,6.652l-4.711,8.872l-11.267-4l-8.669,2.484l-6.977,1.847l1.229,4.653
		l9.631-0.061l4.596,4.642l-4.811,1.428l-8.592,10.28l-0.656,11.41l-0.417,7.203l3.443,0.528l4.298-9.426l9.369-4.337l-1.477,12.926
		l9.096,16.892l10.51,3.609l3.059-0.565l-3.193-7.773l-1.062-19.064l5.441,0.426l9.518,19.658l11.948,60.847l-2.104,16.064
		l-73.92-7.894l-273.297-280.551l-172.609,194.247l-55.138-55.138l-64.729,88.701l-131.854-136.175L5338,589.113l-542,30.222
		v658.503l1598.286-0.799L6392.666,579.523z M6270.182,450.924l18.196,7.163l7.124,10.178l-2.201-0.087l-0.148,3.697l8.878,2.208
		l2.286,2.71l-7.965,0.362l-8.334,4.941l-0.633-3.422l-8.52-20.218l-9.412-7.615L6270.182,450.924z M6263.885,487.226l-7.571-18.154
		l7.354,1.791l0.969,1.405l17.693,16.746l-1.682,2.433l-2.131,8.954l3.102,0.738l6.317-8.16l14.266-4.825l0.565-0.056l-7.501,5.476
		l-7.315,15.19l-2.178,9.146l3.408,0.812l16.458-14.029l0.792-1.023l5.72-1.077l-6.53,13.648l-14.928,45.467l-0.341,6.889
		l-10.14-1.083l0.039-20.257L6263.885,487.226z"/>
	<g opacity="0.5">
		<polygon fill="#FFFFFF" points="7491.607,320.158 7664,339.597 7664,373.846 7506.709,389.582 		"/>
		<polygon fill="#FFFFFF" points="7586,396.137 7753,384.992 7753,446.973 7586,448.172 		"/>
		<polygon fill="#FFFFFF" points="7841,322.084 7992,310.938 7992,372.92 7841,374.12 		"/>
		<polygon fill="#FFFFFF" points="7685,372 7685,339.597 7821,325.934 7821,372 		"/>
		<polygon fill="#FFFFFF" points="7767.043,389 7915,389 7915,446.973 7777.148,438.337 		"/>
		<polygon fill="#FFFFFF" points="7586,275.23 7738,265.039 7738,321.727 7586,322.824 		"/>
		<polygon fill="#FFFFFF" points="7889.609,306.987 7754.171,320.124 7749.078,267.604 7875.689,263.132 		"/>
	</g>
	<path opacity="0.5" fill="#FFFFFF" d="M9589.76,578.725l-91.188-9.738l-0.443-5.611l11.564-46.261l8.082-14.723l4.195-0.114
		l-1.559,14.578l-2.754,5.822l2.326,0.554l8.209-2.338l7.646-12.603l-0.627-9.982l7.025,3.703l2.93,7.407l2.666-0.266l-0.037-5.55
		l-0.057-8.788l-6.195-8.233l-3.637-1.286l3.711-3.383l7.393,0.422l1.129-3.524l-5.287-1.692l-6.561-2.25l-8.811,2.63l-3.27-6.999
		l-7.508-5.505l-4.742-3.479l-1.854,2.532l5.197,5.756l0.424,3.955l-9.436-5.668l-10.975-0.438l-0.998-0.041l0.938-0.173
		l-2.139-11.57l-7.055-11.35l-12.455-8.242l-10.318-1l3.146-3.368l11.674-2.276l0.057-4.812l-9.018-0.102l-14.279-0.161
		l-12.629,6.732l0.814-5.104l7.131-7.131l-2.242-3.411l-6.389,4.202l-10.115,6.653l-4.711,8.872l-11.268-4.003l-8.666,2.485
		l-6.979,1.849l1.229,4.651l9.631-0.06l4.598,4.642l-4.812,1.428l-8.592,10.279l-0.656,11.409l-0.416,7.206l3.443,0.526l4.297-9.426
		l9.369-4.335l-1.477,12.927l9.096,16.892l10.51,3.608l3.061-0.566l-3.195-7.773l-1.062-19.063l5.443,0.425l9.516,19.657
		l11.947,60.847l-2.104,16.065l-73.918-7.895l-853.181,31.167L7992,547.514v729.525l1598.831-0.801L9589.76,578.725z
		 M9467.275,450.123l18.193,7.164l7.127,10.177l-2.201-0.087l-0.148,3.699l8.879,2.207l2.283,2.71l-7.965,0.361l-8.334,4.94
		l-0.633-3.419l-8.52-20.219l-9.412-7.616L9467.275,450.123z M9460.979,486.425l-7.572-18.153l7.354,1.791l0.969,1.405
		l17.691,16.747l-1.68,2.435l-2.131,8.952l3.102,0.738l6.318-8.16l14.266-4.825l0.564-0.055l-7.5,5.476l-7.316,15.189l-2.176,9.145
		l3.406,0.813l16.459-14.029l0.793-1.024l5.719-1.078l-6.533,13.649l-14.926,45.466l-0.34,6.891l-10.143-1.083l0.041-20.256
		L9460.979,486.425z"/>
	<polygon opacity="0.5" fill="#FFFFFF" points="9636.031,844.824 9658.408,769.706 9738.322,730.816 9800.656,734.014 
		9831.023,696.645 9898.152,668 9955.693,668 10008.438,684.525 10045.197,719.907 10096.344,708.581 10137.9,728.041 
		10163.471,767.612 10208.227,773.989 10252.977,817.163 10239.416,863.107 10182.461,895.46 10093.146,898.634 9971.676,909.826 
		9826.229,890.647 9747.912,901.835 9683.979,887.451 	"/>
	<polygon opacity="0.5" fill="#FFFFFF" points="10737.264,848.863 10753.641,793.888 10812.129,765.424 10857.75,767.764 
		10879.977,740.189 10929.105,719 10971.219,719 11009.818,731.322 11036.725,757.327 11074.158,749.093 11104.57,763.366 
		11123.289,792.341 11156.039,797.013 11188.795,828.615 11178.869,862.242 11137.186,885.919 11071.816,888.246 10982.916,896.438 
		10876.467,882.399 10819.148,890.587 10772.355,880.062 	"/>
	<polygon opacity="0.5" fill="#FFFFFF" points="11790.549,1111.577 11831.119,975.384 11976.008,904.87 12089.021,910.669 
		12144.084,840.92 12265.791,787 12370.109,787 12465.74,818.951 12532.393,884.099 12625.127,864.062 12700.471,899.594 
		12746.828,971.458 12827.971,983.083 12909.115,1061.394 12884.527,1144.708 12781.262,1203.374 12619.324,1209.131 
		12399.094,1229.432 12135.391,1194.656 11993.395,1214.936 11877.484,1188.859 	"/>
</g>
</svg>
