<svg xmlns="http://www.w3.org/2000/svg" width="13014.328" height="1280"><g fill="#fff"><g opacity=".5"><polygon points="1616.415,258.788 1789,278.226 1789,312.477 1631.613,328.212"/><polygon points="1711,334.767 1877,323.622 1877,385.604 1711,386.803"/><polygon points="1966,260.713 2117,249.568 2117,311.551 1966,312.75"/><polygon points="1810,310.761 1810,278.226 1946,264.563 1946,310.761"/><polygon points="1891.657,326.761 2039,326.761 2039,385.604 1901.457,376.532"/><polygon points="1711,213.861 1863,203.668 1863,260.355 1711,261.454"/><polygon points="2014.223,245.617 1878.784,258.753 1873.689,206.234 2000.303,201.762"/></g><g opacity=".5"><polygon points="4262.812,258.788 4435,278.226 4435,312.477 4277.812,328.212"/><polygon points="4357,334.767 4524,323.622 4524,385.604 4357,386.803"/><polygon points="4613,260.713 4763,249.568 4763,311.551 4613,312.75"/><polygon points="4457,310.761 4457,278.226 4593,264.563 4593,310.761"/><polygon points="4538.453,326.761 4687,326.761 4687,385.604 4548.855,376.532"/><polygon points="4357,213.861 4509,203.668 4509,260.355 4357,261.454"/><polygon points="4661.02,245.617 4525.581,258.753 4520.488,206.234 4647.1,201.762"/></g><g opacity=".5"><polygon points="7491.607,323.919 7664,343.357 7664,377.606 7506.709,393.343"/><polygon points="7586,399.897 7753,388.753 7753,450.733 7586,451.933"/><polygon points="7841,325.845 7992,314.698 7992,376.681 7841,377.881"/><polygon points="7685,375.761 7685,343.357 7821,329.694 7821,375.761"/><polygon points="7767.043,392.761 7915,392.761 7915,450.733 7777.148,442.098"/><polygon points="7586,278.991 7738,268.8 7738,325.487 7586,326.585"/><polygon points="7889.609,310.748 7754.171,323.885 7749.078,271.365 7875.689,266.893"/></g><path opacity=".5" enable-background="new" d="M9749.041 966.614l-117.262-292.893-69.007-55.142-65.22-43.871-.441-5.611 11.562-46.261 8.082-14.724 4.195-.113-1.559 14.577-2.754 5.822 2.328.555 8.207-2.339 7.648-12.603-.629-9.982 7.027 3.703 2.93 7.407 2.664-.266-.035-5.55-.059-8.788-6.195-8.233-3.637-1.286 3.711-3.383 7.395.422 1.129-3.524-5.289-1.691-6.559-2.25-8.812 2.63-3.27-6.999-7.508-5.505-4.742-3.479-1.852 2.532 5.195 5.756.426 3.955-9.438-5.668-10.973-.438-1-.041.939-.173-2.139-11.57-7.055-11.35-12.455-8.242-10.318-1 3.146-3.368 11.674-2.276.057-4.812-9.018-.103-14.279-.161-12.629 6.732.814-5.104 7.131-7.131-2.242-3.41-6.389 4.201-10.115 6.653-4.711 8.872-11.268-4.003-8.666 2.485-6.979 1.849 1.229 4.651 9.631-.061 4.598 4.642-4.812 1.429-8.59 10.278-.656 11.409-.418 7.206 3.445.526 4.297-9.426 9.367-4.335-1.477 12.927 9.098 16.892 10.508 3.608 3.062-.566-3.195-7.772-1.062-19.063 5.443.425 9.516 19.657 11.947 60.847-2.104 16.065-73.918-7.895-853.181 31.166-541.757-40.739v-.548l-1616.577 28.672-73.716-7.871-.445-5.611 11.564-46.262 8.082-14.722 4.196-.114-1.562 14.577-2.752 5.821 2.326.557 8.209-2.338 7.646-12.604-.628-9.979 7.024 3.7 2.932 7.409 2.666-.267-.039-5.549-.055-8.79-6.195-8.231-3.639-1.286 3.711-3.384 7.395.423 1.129-3.523-5.289-1.693-6.559-2.248-8.812 2.63-3.271-6.999-7.508-5.504-4.742-3.479-1.854 2.529 5.198 5.759.424 3.954-9.437-5.668-10.973-.438-1-.041.938-.171-2.139-11.571-7.055-11.351-12.455-8.242-10.318-.999 3.146-3.368 11.676-2.275.053-4.812-9.018-.103-14.277-.159-12.63 6.731.815-5.105 7.131-7.129-2.244-3.41-6.389 4.2-10.115 6.651-4.711 8.872-11.268-4-8.668 2.484-6.978 1.847 1.229 4.653 9.631-.062 4.596 4.643-4.811 1.428-8.592 10.28-.656 11.41-.417 7.203 3.442.527 4.299-9.426 9.369-4.337-1.478 12.926 9.097 16.893 10.51 3.608 3.059-.564-3.193-7.773-1.062-19.063 5.44.426 9.519 19.658 11.948 60.847-2.104 16.063-73.92-7.894-273.297-280.551-172.597 194.25-55.139-55.139-64.729 88.701-131.854-136.175-155.001 220.077-542 30.222v.062l-3117.029 194.154-80.307-201.573v-2.107l-60.87-79.097-133.593-78.45-265.34 197.26-338.058-46.195-141.5 46.271-230.258-97.254-426.946 194.904-.672 528.929 1597.237.8 3197.336.799h1v-.001l1596.392-.797.073 1.96h1597.518l1772.81-.801-14.752-315.346zm-3478.859-511.929l18.196 7.163 7.124 10.178-2.201-.087-.148 3.697 8.879 2.208 2.285 2.71-7.965.362-8.334 4.94-.633-3.422-8.52-20.218-9.412-7.615.729.084zm20.171 117.672l-10.14-1.083.039-20.257-16.367-60.031-7.57-18.153 7.354 1.791.969 1.404 17.693 16.746-1.682 2.434-2.131 8.954 3.102.737 6.316-8.159 14.267-4.825.565-.057-7.502 5.477-7.314 15.189-2.178 9.146 3.408.812 16.457-14.028.793-1.023 5.72-1.077-6.53 13.648-14.928 45.467-.341 6.888zm3175.905-116.512l18.193 7.164 7.127 10.177-2.201-.087-.148 3.699 8.879 2.207 2.283 2.71-7.965.36-8.334 4.94-.633-3.419-8.52-20.219-9.412-7.616.731.084zm20.17 117.675l-10.143-1.083.041-20.256-16.365-60.034-7.572-18.153 7.354 1.791.969 1.405 17.691 16.747-1.68 2.436-2.131 8.951 3.102.738 6.318-8.16 14.266-4.825.564-.055-7.5 5.477-7.316 15.188-2.176 9.146 3.406.812 16.459-14.029.793-1.023 5.719-1.078-6.533 13.649-14.926 45.466-.34 6.89z"/><polygon opacity=".5" enable-background="new" points="9750.058,848.585 9772.435,773.467 9852.349,734.577 9914.683,737.774 9945.05,700.405 10012.179,671.761 10069.72,671.761 10122.464,688.286 10159.224,723.668 10210.37,712.342 10251.927,731.802 10277.497,771.373 10322.253,777.75 10367.003,820.924 10353.442,866.868 10296.487,899.221 10207.173,902.395 10085.702,913.587 9940.255,894.407 9861.938,905.596 9798.005,891.212"/><polygon opacity=".5" enable-background="new" points="10737.264,852.624 10753.641,797.648 10812.129,769.185 10857.75,771.524 10879.977,743.95 10929.105,722.761 10971.219,722.761 11009.818,735.083 11036.725,761.088 11074.158,752.854 11104.57,767.127 11123.289,796.102 11156.039,800.773 11188.795,832.376 11178.869,866.003 11137.186,889.68 11071.816,892.007 10982.916,900.198 10876.467,886.16 10819.148,894.348 10772.355,883.823"/><polygon opacity=".5" enable-background="new" points="11790.549,1115.338 11831.119,979.145 11976.008,908.631 12089.021,914.43 12144.084,844.681 12265.791,790.761 12370.109,790.761 12465.74,822.712 12532.393,887.859 12625.127,867.823 12700.471,903.354 12746.828,975.219 12827.971,986.844 12909.115,1065.155 12884.527,1148.469 12781.262,1207.135 12619.324,1212.892 12399.094,1233.192 12135.391,1198.417 11993.395,1218.696 11877.484,1192.62"/></g></svg>