<?xml version="1.0" encoding="utf-8"?>
<!-- Generator: Adobe Illustrator 16.0.0, SVG Export Plug-In . SVG Version: 6.00 Build 0)  -->
<!DOCTYPE svg PUBLIC "-//W3C//DTD SVG 1.1//EN" "http://www.w3.org/Graphics/SVG/1.1/DTD/svg11.dtd">
<svg version="1.1" id="Layer_1" xmlns="http://www.w3.org/2000/svg" xmlns:xlink="http://www.w3.org/1999/xlink" x="0px" y="0px"
	 width="13014.328px" height="1280px" viewBox="0 0 13014.328 1280" enable-background="new 0 0 13014.328 1280"
	 xml:space="preserve">
<g>
	<g opacity="0.5">
		<polygon fill="#FFFFFF" points="1616.415,258.788 1789,278.226 1789,312.477 1631.613,328.212 		"/>
		<polygon fill="#FFFFFF" points="1711,334.767 1877,323.622 1877,385.604 1711,386.803 		"/>
		<polygon fill="#FFFFFF" points="1966,260.713 2117,249.568 2117,311.551 1966,312.75 		"/>
		<polygon fill="#FFFFFF" points="1810,310.761 1810,278.226 1946,264.563 1946,310.761 		"/>
		<polygon fill="#FFFFFF" points="1891.657,326.761 2039,326.761 2039,385.604 1901.457,376.532 		"/>
		<polygon fill="#FFFFFF" points="1711,213.861 1863,203.668 1863,260.355 1711,261.454 		"/>
		<polygon fill="#FFFFFF" points="2014.223,245.617 1878.784,258.753 1873.689,206.234 2000.303,201.762 		"/>
	</g>
	<g opacity="0.5">
		<polygon fill="#FFFFFF" points="4262.812,258.788 4435,278.226 4435,312.477 4277.812,328.212 		"/>
		<polygon fill="#FFFFFF" points="4357,334.767 4524,323.622 4524,385.604 4357,386.803 		"/>
		<polygon fill="#FFFFFF" points="4613,260.713 4763,249.568 4763,311.551 4613,312.75 		"/>
		<polygon fill="#FFFFFF" points="4457,310.761 4457,278.226 4593,264.563 4593,310.761 		"/>
		<polygon fill="#FFFFFF" points="4538.453,326.761 4687,326.761 4687,385.604 4548.855,376.532 		"/>
		<polygon fill="#FFFFFF" points="4357,213.861 4509,203.668 4509,260.355 4357,261.454 		"/>
		<polygon fill="#FFFFFF" points="4661.02,245.617 4525.581,258.753 4520.488,206.234 4647.1,201.762 		"/>
	</g>
	<g opacity="0.5">
		<polygon fill="#FFFFFF" points="7491.607,323.919 7664,343.357 7664,377.606 7506.709,393.343 		"/>
		<polygon fill="#FFFFFF" points="7586,399.897 7753,388.753 7753,450.733 7586,451.933 		"/>
		<polygon fill="#FFFFFF" points="7841,325.845 7992,314.698 7992,376.681 7841,377.881 		"/>
		<polygon fill="#FFFFFF" points="7685,375.761 7685,343.357 7821,329.694 7821,375.761 		"/>
		<polygon fill="#FFFFFF" points="7767.043,392.761 7915,392.761 7915,450.733 7777.148,442.098 		"/>
		<polygon fill="#FFFFFF" points="7586,278.991 7738,268.8 7738,325.487 7586,326.585 		"/>
		<polygon fill="#FFFFFF" points="7889.609,310.748 7754.171,323.885 7749.078,271.365 7875.689,266.893 		"/>
	</g>
	<path opacity="0.5" fill="#FFFFFF" enable-background="new    " d="M9749.041,966.614l-117.262-292.893l-69.007-55.142
		l-65.22-43.871l-0.441-5.611l11.562-46.261l8.082-14.724l4.195-0.113l-1.559,14.577l-2.754,5.822l2.328,0.555l8.207-2.339
		l7.648-12.603l-0.629-9.982l7.027,3.703l2.93,7.407l2.664-0.266l-0.035-5.55l-0.059-8.788l-6.195-8.233l-3.637-1.286l3.711-3.383
		l7.395,0.422l1.129-3.524l-5.289-1.691l-6.559-2.25l-8.812,2.63l-3.27-6.999l-7.508-5.505l-4.742-3.479l-1.852,2.532l5.195,5.756
		l0.426,3.955l-9.438-5.668l-10.973-0.438l-1-0.041l0.939-0.173l-2.139-11.57l-7.055-11.35l-12.455-8.242l-10.318-1l3.146-3.368
		l11.674-2.276l0.057-4.812l-9.018-0.103l-14.279-0.161l-12.629,6.732l0.814-5.104l7.131-7.131l-2.242-3.41l-6.389,4.201
		l-10.115,6.653l-4.711,8.872l-11.268-4.003l-8.666,2.485l-6.979,1.849l1.229,4.651l9.631-0.061l4.598,4.642l-4.812,1.429
		l-8.59,10.278l-0.656,11.409l-0.418,7.206l3.445,0.526l4.297-9.426l9.367-4.335l-1.477,12.927l9.098,16.892l10.508,3.608
		l3.062-0.566l-3.195-7.772l-1.062-19.063l5.443,0.425l9.516,19.657l11.947,60.847l-2.104,16.065l-73.918-7.895l-853.181,31.166
		l-541.757-40.739v-0.548l-1616.577,28.672l-73.716-7.871l-0.445-5.611l11.564-46.262l8.082-14.722l4.196-0.114l-1.562,14.577
		l-2.752,5.821l2.326,0.557l8.209-2.338l7.646-12.604l-0.628-9.979l7.024,3.7l2.932,7.409l2.666-0.267l-0.039-5.549l-0.055-8.79
		l-6.195-8.231l-3.639-1.286l3.711-3.384l7.395,0.423l1.129-3.523l-5.289-1.693l-6.559-2.248l-8.812,2.63l-3.271-6.999l-7.508-5.504
		l-4.742-3.479l-1.854,2.529l5.198,5.759l0.424,3.954l-9.437-5.668l-10.973-0.438l-1-0.041l0.938-0.171l-2.139-11.571l-7.055-11.351
		l-12.455-8.242l-10.318-0.999l3.146-3.368l11.676-2.275l0.053-4.812l-9.018-0.103l-14.277-0.159l-12.63,6.731l0.815-5.105
		l7.131-7.129l-2.244-3.41l-6.389,4.2l-10.115,6.651l-4.711,8.872l-11.268-4l-8.668,2.484l-6.978,1.847l1.229,4.653l9.631-0.062
		l4.596,4.643l-4.811,1.428l-8.592,10.28l-0.656,11.41l-0.417,7.203l3.442,0.527l4.299-9.426l9.369-4.337l-1.478,12.926
		l9.097,16.893l10.51,3.608l3.059-0.564l-3.193-7.773l-1.062-19.063l5.44,0.426l9.519,19.658l11.948,60.847l-2.104,16.063
		l-73.92-7.894l-273.297-280.551L5744.723,475.41l-55.139-55.139l-64.729,88.701l-131.854-136.175L5338,592.874l-542,30.222v0.062
		L1678.971,817.312l-80.307-201.573v-2.107l-60.87-79.097l-133.593-78.45l-265.34,197.26L800.803,607.15l-141.5,46.271
		l-230.258-97.254L2.099,751.071L1.427,1280l1597.237,0.8L4796,1281.599h0.333H4797v-0.001l1596.392-0.797l0.073,1.96h1597.518
		l1772.81-0.801L9749.041,966.614z M6270.182,454.685l18.196,7.163l7.124,10.178l-2.201-0.087l-0.148,3.697l8.879,2.208l2.285,2.71
		l-7.965,0.362l-8.334,4.94l-0.633-3.422l-8.52-20.218l-9.412-7.615L6270.182,454.685z M6290.353,572.357l-10.14-1.083l0.039-20.257
		l-16.367-60.031l-7.57-18.153l7.354,1.791l0.969,1.404l17.693,16.746l-1.682,2.434l-2.131,8.954l3.102,0.737l6.316-8.159
		l14.267-4.825l0.565-0.057l-7.502,5.477l-7.314,15.189l-2.178,9.146l3.408,0.812l16.457-14.028l0.793-1.023l5.72-1.077
		l-6.53,13.648l-14.928,45.467L6290.353,572.357z M9466.258,455.845l18.193,7.164l7.127,10.177l-2.201-0.087l-0.148,3.699
		l8.879,2.207l2.283,2.71l-7.965,0.36l-8.334,4.94l-0.633-3.419l-8.52-20.219l-9.412-7.616L9466.258,455.845z M9486.428,573.52
		l-10.143-1.083l0.041-20.256l-16.365-60.034l-7.572-18.153l7.354,1.791l0.969,1.405l17.691,16.747l-1.68,2.436l-2.131,8.951
		l3.102,0.738l6.318-8.16l14.266-4.825l0.564-0.055l-7.5,5.477l-7.316,15.188l-2.176,9.146l3.406,0.812l16.459-14.029l0.793-1.023
		l5.719-1.078l-6.533,13.649l-14.926,45.466L9486.428,573.52z"/>
	<polygon opacity="0.5" fill="#FFFFFF" enable-background="new    " points="9750.058,848.585 9772.435,773.467 9852.349,734.577 
		9914.683,737.774 9945.05,700.405 10012.179,671.761 10069.72,671.761 10122.464,688.286 10159.224,723.668 10210.37,712.342 
		10251.927,731.802 10277.497,771.373 10322.253,777.75 10367.003,820.924 10353.442,866.868 10296.487,899.221 10207.173,902.395 
		10085.702,913.587 9940.255,894.407 9861.938,905.596 9798.005,891.212 	"/>
	<polygon opacity="0.5" fill="#FFFFFF" enable-background="new    " points="10737.264,852.624 10753.641,797.648 
		10812.129,769.185 10857.75,771.524 10879.977,743.95 10929.105,722.761 10971.219,722.761 11009.818,735.083 11036.725,761.088 
		11074.158,752.854 11104.57,767.127 11123.289,796.102 11156.039,800.773 11188.795,832.376 11178.869,866.003 11137.186,889.68 
		11071.816,892.007 10982.916,900.198 10876.467,886.16 10819.148,894.348 10772.355,883.823 	"/>
	<polygon opacity="0.5" fill="#FFFFFF" enable-background="new    " points="11790.549,1115.338 11831.119,979.145 
		11976.008,908.631 12089.021,914.43 12144.084,844.681 12265.791,790.761 12370.109,790.761 12465.74,822.712 12532.393,887.859 
		12625.127,867.823 12700.471,903.354 12746.828,975.219 12827.971,986.844 12909.115,1065.155 12884.527,1148.469 
		12781.262,1207.135 12619.324,1212.892 12399.094,1233.192 12135.391,1198.417 11993.395,1218.696 11877.484,1192.62 	"/>
</g>
</svg>
