<?xml version="1.0" encoding="utf-8"?>
<!-- Generator: Adobe Illustrator 16.0.0, SVG Export Plug-In . SVG Version: 6.00 Build 0)  -->
<!DOCTYPE svg PUBLIC "-//W3C//DTD SVG 1.1//EN" "http://www.w3.org/Graphics/SVG/1.1/DTD/svg11.dtd">
<svg version="1.1" id="Layer_1" xmlns="http://www.w3.org/2000/svg" xmlns:xlink="http://www.w3.org/1999/xlink" x="0px" y="0px"
	 width="256px" height="26px" viewBox="0 0 256 26" enable-background="new 0 0 256 26" xml:space="preserve">
<g>
	<circle fill="#006EBE" cx="12.992" cy="12.667" r="4.445"/>
	<rect x="19.333" y="11" opacity="0.5" fill="#666666" width="14" height="3"/>
	<circle opacity="0.5" fill="#666666" cx="38.587" cy="12.667" r="4.445"/>
	<rect x="45.333" y="11" opacity="0.5" fill="#666666" width="13" height="3"/>
	<circle opacity="0.5" fill="#666666" cx="64.182" cy="12.667" r="4.445"/>
	<rect x="71.333" y="11" opacity="0.5" fill="#666666" width="13" height="3"/>
	<circle opacity="0.5" fill="#666666" cx="89.775" cy="12.667" r="4.445"/>
	<rect x="96.333" y="11" opacity="0.5" fill="#666666" width="14" height="3"/>
	<circle opacity="0.5" fill="#666666" cx="115.369" cy="12.667" r="4.445"/>
	<rect x="121.333" y="11" opacity="0.5" fill="#666666" width="14" height="3"/>
	<circle opacity="0.5" fill="#666666" cx="140.963" cy="12.667" r="4.445"/>
	<rect x="148.333" y="11" opacity="0.5" fill="#666666" width="13" height="3"/>
	<circle opacity="0.5" fill="#666666" cx="166.558" cy="12.667" r="4.445"/>
	<rect x="173.333" y="11" opacity="0.5" fill="#666666" width="14" height="3"/>
	<circle opacity="0.5" fill="#666666" cx="192.152" cy="12.667" r="4.444"/>
	<rect x="198.333" y="11" opacity="0.5" fill="#666666" width="14" height="3"/>
	<circle opacity="0.5" fill="#666666" cx="217.747" cy="12.667" r="4.445"/>
	<rect x="224.333" y="11" opacity="0.5" fill="#666666" width="14" height="3"/>
	<circle opacity="0.5" fill="#666666" cx="243.341" cy="12.667" r="4.445"/>
</g>
</svg>
