<?xml version="1.0" encoding="utf-8"?>
<!-- Generator: Adobe Illustrator 16.0.0, SVG Export Plug-In . SVG Version: 6.00 Build 0)  -->
<!DOCTYPE svg PUBLIC "-//W3C//DTD SVG 1.1//EN" "http://www.w3.org/Graphics/SVG/1.1/DTD/svg11.dtd">
<svg version="1.1" id="Layer_1" xmlns="http://www.w3.org/2000/svg" xmlns:xlink="http://www.w3.org/1999/xlink" x="0px" y="0px"
	 width="635.873px" height="685.472px" viewBox="0 0 635.873 685.472" enable-background="new 0 0 635.873 685.472"
	 xml:space="preserve">
<g>
	<g>
		<polygon opacity="0.5" fill="#B3B3B3" points="394.913,648.856 326.419,367.48 251.808,350.688 184.431,372.364 172.393,588.895 
			148.333,581.683 162.765,338.799 246.964,266.948 331.427,266.948 405.742,295.692 470.698,370.126 487.539,601.006 		"/>
		<polygon opacity="0.5" fill="#666666" points="448.513,343.948 318.595,343.948 187.436,317.666 205.072,302.411 317.975,327.67 
			431.756,325.603 		"/>
		<polygon opacity="0.5" fill="#666666" points="448.729,343.645 318.044,338.69 187.491,317.442 181.115,323.134 314.8,351.948 
			454.928,351.948 		"/>
		<polygon opacity="0.25" fill="#B3B3B3" points="377.363,576.759 232.53,627.353 198.847,612.818 173.74,564.657 184.431,372.364 
			251.808,350.688 326.419,367.48 		"/>
	</g>
	<g>
		<polygon opacity="0.5" fill="#666666" points="331.181,214.283 314.26,220.163 305.198,219.401 303.089,211.925 		"/>
		
			<rect x="292.313" y="172.015" transform="matrix(-0.0837 0.9965 -0.9965 -0.0837 530.0888 -98.8644)" opacity="0.5" fill="#666666" width="36.376" height="44.56"/>
		<polygon opacity="0.5" fill="#666666" points="286.778,210.554 302.478,219.173 311.54,219.935 314.867,212.914 		"/>
		
			<rect x="287.449" y="201.76" transform="matrix(0.9965 0.0837 -0.0837 0.9965 18.0555 -24.5215)" opacity="0.5" fill="#666666" width="28.195" height="2.729"/>
		
			<rect x="288.287" y="191.792" transform="matrix(0.9965 0.0837 -0.0837 0.9965 17.2274 -24.6305)" opacity="0.5" fill="#666666" width="28.19" height="2.728"/>
		
			<rect x="289.124" y="181.824" transform="matrix(0.9965 0.0837 -0.0837 0.9965 16.3949 -24.734)" opacity="0.5" fill="#666666" width="28.192" height="2.728"/>
		<polygon opacity="0.5" fill="#FCEE21" points="287.188,42.67 323.742,36.615 358.778,48.684 380.4,88.219 370.005,125.068 
			342.805,144.685 334.224,178.035 289.821,174.306 286.923,139.992 263.374,116.112 259.271,78.047 		"/>
		<polygon opacity="0.5" fill="#FCEE21" points="334.224,178.035 342.805,144.685 370.005,125.068 380.4,88.219 358.778,48.684 
			323.742,36.615 289.449,48.337 272.713,81.001 275.911,115.34 292.915,137.453 289.821,174.306 		"/>
		<polygon opacity="0.5" fill="#666666" points="344.175,99.625 319.359,159.446 305.766,158.306 296.606,93.504 307.883,154.831 
			315.132,155.442 		"/>
		<polygon opacity="0.5" fill="#666666" points="344.175,99.625 320.086,100.189 296.606,93.504 		"/>
	</g>
</g>
</svg>
