<?xml version="1.0" encoding="utf-8"?>
<!-- Generator: Adobe Illustrator 16.0.0, SVG Export Plug-In . SVG Version: 6.00 Build 0)  -->
<!DOCTYPE svg PUBLIC "-//W3C//DTD SVG 1.1//EN" "http://www.w3.org/Graphics/SVG/1.1/DTD/svg11.dtd">
<svg version="1.1" id="Layer_1" xmlns="http://www.w3.org/2000/svg" xmlns:xlink="http://www.w3.org/1999/xlink" x="0px" y="0px"
	 width="419.916px" height="703.095px" viewBox="0 0 419.916 703.095" enable-background="new 0 0 419.916 703.095"
	 xml:space="preserve">
<g>
	<g>
		<polygon opacity="0.5" fill="#603813" points="63.898,459.928 45.719,532.729 94.927,624.633 163.686,655.45 302.842,662.902 
			353.274,576.545 360.594,507.855 336.776,428.685 227.24,376.743 120.903,384.31 		"/>
		<polygon opacity="0.5" fill="#603813" points="87.968,538.021 99.064,520.513 121.736,526.175 134.97,549.803 123.738,562.896 
			122.859,539.086 106.864,527.234 		"/>
		<polygon opacity="0.5" fill="#603813" points="99.424,587.044 107.492,574.097 123.796,578.168 133.223,595.517 125.102,605.11 
			124.448,588.079 112.978,579.421 		"/>
		<polygon opacity="0.5" fill="#603813" points="147.714,576.727 157.713,566.499 173.896,573.741 181.261,591.769 171.624,598.951 
			173.36,582.776 162.749,572.33 		"/>
		<polygon opacity="0.5" fill="#603813" points="72.034,464.011 46.491,500.912 76.114,466.837 		"/>
		<polygon opacity="0.5" fill="#603813" points="68.469,478.286 42.927,515.188 72.55,481.113 		"/>
		<polygon opacity="0.5" fill="#603813" points="279.861,605.217 251.508,611.432 280.549,608.353 		"/>
		<polygon opacity="0.5" fill="#603813" points="285.171,609.484 256.818,615.701 285.859,612.62 		"/>
		<polygon opacity="0.5" fill="#603813" points="280.527,657.295 237.062,668.468 281.763,662.104 		"/>
		<polygon opacity="0.5" fill="#603813" points="172.574,652.059 128.293,644.767 171.767,656.957 		"/>
		<polygon opacity="0.5" fill="#603813" points="48.377,521.935 52.907,566.583 53.316,521.434 		"/>
		<polygon opacity="0.5" fill="#603813" points="54.627,536.386 59.156,581.034 59.565,535.885 		"/>
		<polygon opacity="0.5" fill="#603813" points="189.525,650.984 145.243,643.691 188.718,655.881 		"/>
		<polygon opacity="0.5" fill="#603813" points="264.824,653.375 221.359,664.546 266.06,658.184 		"/>
	</g>
	<g>
		<polygon opacity="0.5" fill="#666666" points="234.108,257.461 221.435,261.236 230.934,270.175 203.921,378.349 204.089,378.39 
			227.24,376.743 253.731,389.305 327.499,151.143 336.947,138.803 321.735,135.072 261.607,120.057 264.378,136.244 		"/>
		<polygon opacity="0.5" fill="#666666" points="262.188,276.223 321.735,135.072 336.947,138.803 327.499,151.143 290.153,269.381 
			296.965,281.248 284.729,283.271 253.398,390.384 		"/>
	</g>
	<polygon opacity="0.75" fill="#006EBE" points="329.572,137.03 334.402,117.689 365.505,73.895 376.989,74.781 369.186,59.27 
		270.504,34.627 256.312,44.646 267.053,49.452 274.159,102.645 269.329,121.987 	"/>
</g>
</svg>
