<svg xmlns="http://www.w3.org/2000/svg" width="300" height="420.887"><linearGradient id="a" gradientUnits="userSpaceOnUse" x1="150" y1="407.278" x2="150" y2="13.604"><stop offset="0" stop-color="#009030"/><stop offset=".039" stop-color="#38942D"/><stop offset=".114" stop-color="#6F9E27"/><stop offset=".217" stop-color="#AEB01B"/><stop offset=".292" stop-color="#DABE0C"/><stop offset=".336" stop-color="#E4CF67"/><stop offset=".387" stop-color="#EEE19E"/><stop offset=".434" stop-color="#F6EFCB"/><stop offset=".474" stop-color="#FCF9EA"/><stop offset=".507" stop-color="#FEFEFB"/><stop offset=".528" stop-color="#fff"/><stop offset=".591" stop-color="#EDF6FB"/><stop offset=".726" stop-color="#B1D8EC"/><stop offset=".87" stop-color="#60B5DA"/></linearGradient><path fill="url(#a)" d="M150 13.604c-77.483 0-140.3 88.127-140.3 196.837 0 108.716 62.817 196.837 140.3 196.837s140.3-88.121 140.3-196.837c0-108.71-62.817-196.837-140.3-196.837z"/><path fill="#4DA92C" d="M91.798 167.997c3.664 3.824 9.626-1.741 13.438-8.186 3.805-6.453 19.047-19.35 25.66-20.019 6.62-.672 4.187 2.062 4.187 2.062l21.081 9.495h7.82l9.425-8.146s8.619-6.288 22.049 7.346l13.438 13.634c2.604 3.013 5.413 8.621 10.629 8.825 5.209.196 6.413-2.604 6.413-4.213 0-1.6-2.608-8.464-7.621-14.253-5.013-5.799-18.843-20.232-40.902-25.448 8.825-4.409 23.056-3.006 28.475-2.001 5.414 1.002 19.448 5.209 21.652 5.413 2.205.196 9.226-4.816 3.407-12.23-8.02-7.422-41.902-6.22-46.915-4.816 3.458-2.572 10.622-6.017 17.439-7.821 6.817-1.805 16.042-3.005 18.647-5.013 2.612-2.001 6.22-4.605-2-9.822-8.222-5.216-32.689 7.421-40.908 13.03-1.399-.997 4.61-8.817 13.035-17.643 8.417-8.82 12.027-13.634 13.03-16.043 1.004-2.4 3.413-13.233-10.426-5.209-13.831 8.018-28.869 36.493-28.869 36.493s-2.314-21.055-10.284-47.122c-3.154-10.627-13.979-8.417-11.375 3.411 2.604 11.831 8.825 33.482 9.021 36.086-.8 1.006-1.2 2.81-10.622-10.825-9.429-13.634-11.03-16.041-15.242-19.65-4.213-3.608-12.834-8.817-11.43 3.013.798 2.886 4.816 7.216 8.221 12.63 3.412 5.412 11.633 13.837 13.037 18.246-4.212-1.404-15.038-6.017-25.063-8.018-10.026-2.008-15.242-1.808-16.843 2.205-1.608 4.009 5.209 6.012 8.018 6.416 2.808.4 28.875 9.219 29.676 13.234-4.816-.604-28.272-3.208-41.71 2.205-13.43 5.412-9.218 14.435-3.805 13.43 5.413-1.003 29.269-6.016 34.886-5.412 5.617.604 9.829 4.814 4.009 6.816-5.809 2.01-41.502 28.674-32.678 37.9z"/><path d="M150 10.444c-78.728 0-142.556 89.536-142.556 199.997 0 110.452 63.828 200.003 142.555 200.003 78.728 0 142.555-89.551 142.555-200.003.001-110.461-63.826-199.997-142.554-199.997zm0 391.922c-74.22 0-134.388-85.935-134.388-191.925-.001-105.999 60.167-191.919 134.388-191.919s134.388 85.92 134.388 191.919c0 105.99-60.167 191.925-134.388 191.925z"/><path fill="#4DA92C" d="M150 402.366c40.374 0 76.588-25.433 101.222-65.678l-4.814-2.061-6.91 6.41-20.778 2.611-34.085-2.208-17.442-11.427-6.7-13.739.882-15.144-2.517-15.235h-16.728l-2.982 14.797 7.624 15.512-26.251 23.331-40.923 5.226-25.334-6.637-3.699 1.419c24.584 38.599 60.027 62.823 99.435 62.823z"/><path d="M230.468 128.247c.608-.039 1.202-.186 1.806-.289-.356-.559-.604-1.285-1.106-1.65-.757-.538-1.694-.819-2.183-1.04l1.168-3.124c-1.1.225-2.205.415-3.293.677-.307.078-.544.466-.847.517-1.026.165-2.061.241-3.097.35l-.421-.85c.642-.459 1.441-.812 1.864-1.422.343-.508.243-1.32.338-1.996-.623.103-1.326.063-1.859.344-.817.432-1.523 1.083-2.273 1.646-1.557 1.164-2.732.392-4.208-.569 1.161-.626 2.077-.945 2.751-1.538.463-.418.587-1.226.865-1.852-.67-.012-1.344-.062-2.01-.013-.233.018-.433.31-.672.414-1.484.65-2.969 1.29-4.451 1.928l-.401-.589c.446-.444.949-.852 1.322-1.357.347-.457.555-1.018.825-1.54-.638-.1-1.442-.492-1.889-.249-1.282.693-2.389 1.701-3.63 2.476-.513.321-1.19.371-1.787.536.047-.688.361-.911.426-1.195.151-.625.182-1.289.266-1.935-.664.15-1.406.151-1.955.48-.849.51-1.502 1.361-2.354 1.84-.675.382-1.529.413-2.686.694l.463-1.156c.435-.921.875-1.834 1.314-2.753-.979.389-1.993.703-2.923 1.181-.514.261-.898.786-1.344 1.187-.533.48-1.082.955-1.619 1.426l-.39-.374 1.615-2.937c-3.429-.798-3.837 3.608-6.95 3.484.414-.666.741-1.023.852-1.436.158-.576.152-1.191.219-1.795-.638.166-1.417.154-1.871.534-.747.637-1.248 1.558-1.933 2.282-.452.472-1.041.812-1.576 1.209.191-.593.368-1.185.575-1.769.093-.245.352-.465.366-.701.029-.616-.027-1.231-.05-1.851-.61.165-1.4.143-1.783.526-.982.987-1.729 2.211-2.678 3.23-.599.647-1.394 1.103-2.101 1.643-.329-.668-.341-.936-.263-1.168.466-1.35 1.104-2.648 1.394-4.026.489-2.342-2.131-1.463-2.875-2.572-.033-.042-.01-.129-.034-.623.638 0 1.31-.131 1.894.025.896.248 1.75.66 2.591 1.062.87.418 1.832.969 2.38-.263.529-1.194-.581-1.339-1.348-1.746-.553-.295-.939-.896-1.403-1.364.659-.056 1.354-.273 1.953-.126 1.288.316 2.503.956 3.8 1.184.545.1 1.214-.516 1.831-.807-.441-.471-.833-1.005-1.339-1.408-.479-.381-1.076-.619-1.621-.921.642-.459 1.117-.576 1.498-.435.943.349 1.798.995 2.758 1.164.619.107 1.354-.414 2.038-.656-.419-.465-.792-.982-1.27-1.389-.431-.359-.972-.589-1.46-.88l.332-.836c1.098.336 2.249.57 3.288 1.042 1.599.739 3.098 1.936 5.239.211-1.328-.934-2.482-1.753-3.644-2.567.696-.432 1.187-.546 1.588-.41 1.431.492 2.822 1.114 4.27 1.576.555.179 1.206.048 1.818.052-.275-.581-.49-1.213-.847-1.74-.285-.421-.754-.719-1.139-1.066l.432-.648c1.096.612 2.16 1.305 3.299 1.805 1.151.51 2.384.816 3.585 1.22l.432-.664c-.872-.941-1.743-1.884-2.986-3.232 1.212.23 1.959.241 2.58.525.967.441 1.807 1.146 2.776 1.574.546.252 1.235.178 1.856.253-.203-.542-.408-1.09-.619-1.632-.117-.29-.258-.57-.394-.876 1.606-.351 1.777-.183 3.567 1.169.767.583 1.857.744 2.801 1.093l-.233-2.984c.296-.091.985-.217 1.575-.523.5-.265.885-.753 1.32-1.142-.475-.388-.902-1.012-1.43-1.115-.771-.151-1.614.066-2.274.12l.396-2.57c-.924.352-1.917.585-2.758 1.081-.729.428-1.23 1.219-1.935 1.699-.429.296-1.046.312-1.586.454-.056-.562-.175-1.124-.158-1.683.014-.553.162-1.1.27-1.704-2.271-.369-2.687 1.307-3.321 2.514-.901 1.702-2.155 2.144-4.489 1.531 1.572-1.682 2.895-3.096 4.308-4.604-1.219-.968-2.573-.405-3.685.57-.984.865-1.702 2.027-2.553 3.047-.632.747-1.281 1.482-1.927 2.226l-.592-.43c.427-.844.976-1.65 1.229-2.545.147-.513-.186-1.169-.299-1.752-.54.254-1.304.362-1.582.789-.837 1.281-1.423 2.716-2.233 4.021-.359.59-.996 1.008-1.704 1.69-.117-.637-.229-.842-.177-1.003.361-1.169 1.334-2.667-.492-3.178-1.68-.476-1.221 1.454-1.76 2.292-.816 1.267-.986 3.156-3.417 3.692.411-1.25.766-2.028.889-2.839.078-.483-.215-1.026-.341-1.551-.548.246-1.302.338-1.604.756-.486.678-.693 1.569-1.006 2.373l-1.372 3.603-.621-.199c.199-1.253.404-2.507.666-4.137-3.619 1.042-2.541 4.88-4.865 6.336-.162-.771.041-1.436.021-2.093-.016-.514-.306-1.011-.475-1.511-.466.244-1.157.374-1.367.76-.465.864-.685 1.858-1.005 2.797l-.929 2.755-.89.22c1.46-4.987-1.147-6.442-5.312-6.728 1.086-.534 2.028-.689 2.937-.955.881-.256 1.783-.537 2.562-.994.335-.198.387-.862.571-1.317-.412-.122-.818-.314-1.238-.349-.733-.062-1.475-.018-2.206-.018l-.154-.616c.451-.263.88-.644 1.373-.748.971-.218 2.009-.154 2.956-.443.594-.186 1.066-.786 1.592-1.202-.46-.301-.897-.642-1.386-.891-.415-.211-.883-.33-1.322-.483l.063-.588c.611 0 1.218.042 1.825-.01 1.057-.087 2.145-.122 3.156-.39.448-.117.761-.758 1.13-1.159-.421-.347-.792-.806-1.276-1.002-.683-.274-1.442-.347-2.174-.508l-.022-.785c.735-.108 1.468-.221 2.197-.318 1.245-.17 2.515-.207 3.701-.557.424-.126.619-1.011.923-1.547-.54-.221-1.062-.521-1.625-.632-.583-.108-1.197-.019-1.801-.019l-.174-.566c.707-.397 1.372-.931 2.13-1.145 1.276-.368 2.609-.509 3.914-.786 1.276-.275 1.721-1.059 1.419-2.288-.965-.191-1.808-.357-2.648-.518l-.03-.736c1.033-.205 2.086-.357 3.103-.629.596-.148 1.146-.476 1.717-.723-.281-.557-.544-1.123-.852-1.664-.154-.271-.383-.504-.614-.8.227-.274.351-.566.563-.648 1.695-.69 3.402-1.373 5.131-2 1.525-.553 1.732-1.271.562-2.384-.274-.26-.723-.335-1.162-.53 1.855-2.003 3.37-3.506 4.69-5.156.533-.657.642-1.656.943-2.501-.848.343-1.697.677-2.543 1.024l-.144.137c-1.597 1.71-3.191 3.406-4.779 5.124-.658.714-1.155 1.029-1.798-.114-.347-.628-1.122-1.023-1.705-1.519-.175.732-.565 1.476-.5 2.186.199 2.272.151 4.37-2.38 5.862l-.534-2.123c.826-.645 1.464-.997 1.865-1.527.185-.249.048-1.076-.201-1.241-.355-.225-1.039-.253-1.429-.058-2.688 1.315-3.001 2.252-2.282 5.124.293 1.194.713 2.585-.578 3.625-.359-.58-.447-1.137-.473-1.694-.048-1.047-.05-2.203-1.531-2.013-1.453.196-1.083 1.32-1.021 2.35.11 1.644.03 3.298.03 4.947l-.472-.01c-.384-1.578-.761-3.151-1.224-5.071-2.219 2.998-1.275 6.356-2.219 9.293-.336-.355-.429-.708-.577-1.035-.278-.587-.598-1.153-.9-1.721-.437.632-1.156 1.231-1.247 1.913-.192 1.374.035 2.804-.062 4.199-.043.716-.405 1.414-.62 2.122l-.765-.136c-.095-1.018-.023-2.104-.35-3.045-.212-.6-1.003-1.008-1.533-1.497-.285.587-.841 1.186-.8 1.747.109 1.593.505 3.162.706 4.745.099.814.011 1.651.011 2.483l-.728.048c-.207-.941-.271-1.946-.666-2.806-.23-.508-.968-.791-1.475-1.176-.258.542-.749 1.092-.729 1.621.04 1.038.364 2.059.54 2.971-.876-.1-1.597-.181-2.317-.258-.05.878-.12 1.764-.123 2.649-.001.238.203.483.33.717.749 1.409-.005 2.191-1.165 2.959-.218-.305-.507-.518-.494-.706.187-1.88-1.556-2.195-2.423-3.241-2.036-2.476-2.304.326-3.324.843-.148.074-.368.007-.981.007l1.247-1.884c.7-1.051 1.485-2.061 2.051-3.181.196-.38-.171-1.048-.279-1.58-.466.142-1.041.157-1.366.453-.697.635-1.261 1.42-1.882 2.146l-.597-.319c.239-.647.384-1.348.737-1.912 1.027-1.645 2.189-3.195 3.18-4.855.233-.394.016-1.058.007-1.598-.616.119-1.346.075-1.807.407-.437.312-.573 1.026-.881 1.537-.311.517-.663 1.011-1 1.512l-.735-.212c.12-.961.07-1.988.399-2.872.518-1.356 1.378-2.583 1.921-3.937.201-.509-.062-1.208-.113-1.815-.537.208-1.13.332-1.591.657-.479.329-.815.861-1.213 1.299l-.539-.293c.142-.59.22-1.204.428-1.765.565-1.497 1.293-2.947 1.741-4.479.184-.619-.2-1.401-.322-2.114-.562.438-1.17.836-1.668 1.343-.315.331-.458.826-.683 1.25-.352-.699-.342-1.28-.137-1.771.645-1.526 1.458-2.992 2.028-4.547.226-.614-.001-1.405-.024-2.112-.679.389-1.5.65-2.003 1.202-.5.553-.69 1.393-1.182 2.477-.892-1.938-.941-3.199.32-4.45.737-.731 1.278-1.703 1.722-2.651.159-.336-.097-1.162-.412-1.347-.311-.183-1.043.037-1.388.32-.586.471-1.016 1.137-1.652 1.896-.388-.64-.668-1.003-.831-1.411-.842-2.104-.028-3.831 1.073-5.631.464-.752.627-2.579.274-2.784-1.4-.812-1.618.702-2.133 1.558-.055.104-.217.134-.596.354-.354-.661-.827-1.28-1.021-1.977-.777-2.831-1.411-5.699-2.25-8.51-.176-.583-1.008-.967-1.536-1.448-.201.644-.67 1.327-.567 1.911.331 1.833.883 3.624 1.333 5.435.333 1.365.645 2.737 1.008 4.29-1.3-.446-2.265-.776-3.229-1.101l-.387.551c.357.579.617 1.248 1.086 1.716.891.89 2.082 1.536 2.818 2.524.8 1.069 1.223 2.408 1.802 3.627l-.574.451c-1.109-.329-2.213-.65-3.477-1.028l-.433 1.717c3.319.868 5.944 3.565 5.537 5.557-1.259-.903-2.527-1.819-4.034-2.906.095 4.702 5.426 5.364 5.627 9.533-.974-.248-1.716-.804-2.55-1.152-.476-.204-1.086-.071-1.64-.083.086.592-.036 1.392.299 1.741.626.646 1.544 1.002 2.297 1.541 1.012.73 2.03 1.455 2.926 2.315.29.277.183.961.26 1.463-.559.015-1.271.253-1.646-.002-1.145-.78-2.16-1.747-3.746-3.079.325 1.423.292 2.633.86 3.38.735.954 1.971 1.516 2.971 2.272.792.605 1.551 1.249 2.322 1.879l-.395.522c-1.021-.337-2.049-.669-3.247-1.059.142 2.473 2.293 3.018 3.379 4.407.376.478.576 1.08.858 1.627-.577-.013-1.155.026-1.72-.047-.458-.063-.898-.364-1.348-.366-.466-.002-.94.229-1.413.354.199.451.271 1.044.612 1.316 1.085.875 2.314 1.571 3.403 2.452.625.508 1.079 1.235 1.609 1.862l-.61.706c-1.593-.928-3.193-1.854-5.087-2.96-.204 1.381-.417 2.869-.704 4.848-2.325-2.758.336-5.278-.748-7.955-.962 1.234-1.691 2.173-2.639 3.384-.655-2.525 2.078-5.017-.602-7.268-.661 1.384-1.139 2.398-1.624 3.418l-.617-.246c.288-2.09.633-4.174.816-6.273.044-.485-.498-1.017-.767-1.523-.434.426-.995.778-1.278 1.295-.38.677-.538 1.474-.787 2.222l-.871-.112c0-1.875.076-3.761-.039-5.632-.037-.58-.585-1.126-.901-1.688-.333.615-.758 1.193-.984 1.849-.155.455-.028 1.002-.028 1.504l-.697.061c-.134-.665-.338-1.32-.384-1.984-.067-1.058.11-2.145-.077-3.162-.164-.869-.704-1.669-1.075-2.498-.445.712-.89 1.427-1.342 2.136-.031.048-.119.056-.478.202-.093-.67-.216-1.254-.24-1.849-.051-1.466.005-2.932-.129-4.389-.037-.45-.556-.863-.854-1.296-.312.371-.781.702-.914 1.135-.25.812-.312 1.687-.452 2.527l-.742.023c-.125-.841-.361-1.687-.326-2.522.039-.92.47-1.834.448-2.751-.014-.535-.576-1.056-.894-1.583-.389.396-.87.735-1.149 1.202-.278.465-.354 1.044-.646 1.978-1.665-1.862-3.147-3.269-2.523-5.669.17-.644.451-1.354.317-1.955-.113-.506-.755-.897-1.16-1.342-.364.364-.829.67-1.072 1.104-.229.396-.218.931-.308 1.398-1.295-1.327-3.293-2.237-1.925-4.493.146-.237-.103-.976-.375-1.132-.247-.144-.81.126-1.158.328-.237.141-.363.488-.663.93-.815-.952-1.42-1.84-2.21-2.507-.523-.438-1.312-.554-1.979-.814.1.754-.017 1.647.348 2.224.681 1.085 1.646 1.979 2.85 3.356l-2.707-.308c.049 1.541.509 2.285 2.243 1.888.723-.168 1.626.474 2.451.746l-.17.623c-.43.054-.886.032-1.281.172-.496.177-.935.479-1.402.735.336.443.588 1.007 1.024 1.311.411.286 1.036.232 1.525.438 1.831.771 4.121.815 4.978 2.857-.637.772-1.165 1.406-1.688 2.048.816.367 1.637.732 2.447 1.113.869.407 1.728.836 2.591 1.255l-.232.564c-.314 0-.641-.056-.94.013-.516.111-1.016.295-1.529.447.301.531.483 1.233.934 1.536.688.473 1.569.647 2.354.991 1.368.613 2.718 1.259 4.076 1.896l-.382.899c-1.196-.373-2.4-.747-3.629-1.138-.289 2.927-.012 3.269 2.534 3.332.666.019 1.376-.096 1.993.097.77.237 1.464.729 2.195 1.112l-.288.867-4.843-.556c.95 2.572 2.68 3.337 5.109 3.006.833-.11 1.718.13 2.914.239-1.281.836-2.023 1.329-2.773 1.813.857.479 1.702.972 2.577 1.418.285.146.712.067.957.25.62.487 1.175 1.062 1.758 1.599-3.889-.157-4.242-.2-3.786 4.129 3.42-1.788 4.618-1.733 6.641.566-4.173-.771-7.615-.627-7.029 5.156-.641-1.767-.764-3.37-1.128-4.916-.15-.639-.801-1.16-1.225-1.739-.421.556-.985 1.055-1.219 1.685-.209.545-.045 1.229-.045 1.85-.704-.359-.995-.873-1.202-1.418-.431-1.115-.711-2.307-1.269-3.345-.281-.53-1.04-.8-1.579-1.184-.125.602-.328 1.194-.35 1.8-.021.45.177.911.285 1.36l-.677.233c-.374-1.062-.757-2.113-1.126-3.175-.293-.871-.417-1.853-.917-2.587-.261-.387-1.153-.349-1.754-.504-.079.528-.252 1.067-.202 1.582.082.744.328 1.471.504 2.203l-.512.305c-.45-.465-.986-.879-1.321-1.419-.533-.841-.797-1.894-1.429-2.633-.592-.683-1.521-1.071-2.304-1.588-.077.76-.142 1.529-.243 2.286-.013.1-.175.172-.529.499-.46-.821-.9-1.577-1.304-2.352-.449-.891-.743-1.894-1.341-2.663-.303-.389-1.118-.383-1.703-.56-.052.542-.206 1.097-.147 1.623.088.699.338 1.376.521 2.064l-.614.317c-.416-.505-.851-1.003-1.242-1.525-.834-1.114-1.563-2.323-2.515-3.323-.318-.336-1.184-.139-1.802-.188.068.535.033 1.122.238 1.6.344.773.845 1.478 1.505 2.595-2.58-.05-3.63-1.303-4.55-2.835-.434-.719-.948-1.458-1.604-1.948-.359-.269-1.093-.023-1.652-.012.088.537.09 1.107.278 1.602.223.574.609 1.082.926 1.619l-.642.562c-1.019-.848-2.051-1.696-3.067-2.562-.644-.55-1.264-1.127-1.903-1.692-.233.871-.466 1.738-.714 2.6-.032.113-.161.205-.31.39-1.391-.067-3.028-1.42-4.496.875l3.533 1.595v2.627c.809-.185 1.634-.298 2.401-.568.491-.174.864-.639 1.345-.86.698-.32 1.445-.53 2.055-.744-.059 1.103-.099 1.86-.132 2.626.744-.051 1.515-.015 2.241-.174.496-.108.914-.543 1.406-.731.662-.247 1.357-.396 2.036-.59-.154.764-.571.992-.783 1.349-.24.384-.525 1.032-.356 1.292.218.348.857.563 1.321.571.42.008.835-.371 1.266-.521 1.288-.443 2.586-.855 3.873-1.278-.534 1.364-.911 2.339-1.286 3.312.992-.24 2.058-.322 2.961-.757 1.627-.783 3.187-.859 5.382-.261-1.562.877-2.652 1.434-3.671 2.109-.303.201-.41.717-.603 1.095.402.116.855.414 1.199.316 1.415-.373 2.775-.945 4.195-1.293.943-.238 1.952-.22 2.931-.312l.088.719c-.521.223-1.125.352-1.549.701-.488.401-1.254 1.115-1.145 1.48.289 1.033 1.077.963 2.066.567 1.25-.498 2.635-.662 3.959-.972l.153.718c-.66.198-1.352.338-1.975.625-.419.199-.731.61-1.099.928.367.341.723.978 1.086.98 1.106.01 2.215-.191 3.308-.384 1.146-.195 2.383-1.019 3.403.696-.807.298-1.573.416-2.121.832-.581.431-.956 1.147-1.414 1.742.823.208 1.694.702 2.454.564.935-.171 1.741-.997 2.677-1.286.65-.196 1.434.028 2.161.067l-.03.574-5.042 1.998.035.636c2.709.811 5.555-.75 8.47-.086-4.431 1.365-1.375 4.126-1.521 6.369-.543-.382-.969-.808-1.224-1.314-.538-1.072-.867-2.271-1.525-3.262-.309-.47-1.16-.588-1.77-.868-.098.598-.364 1.235-.259 1.8.138.725.574 1.406.883 2.105l-.417.369c-.51-.387-1.113-.7-1.509-1.184-.976-1.177-1.75-2.538-2.82-3.616-.479-.472-1.477-.432-2.232-.621.215.691.379 1.408.67 2.066.239.548.63 1.032.958 1.541l-.538.396c-.461-.425-.97-.801-1.362-1.282-.724-.868-1.271-1.916-2.096-2.666-.457-.413-1.329-.365-2.012-.527.098.647.126 1.312.33 1.918.122.381.508.67.777.993l-.269.415c-.591-.275-1.284-.436-1.743-.852-.795-.7-1.367-1.657-2.169-2.343-.621-.532-1.458-.815-2.205-1.209.178.794.269 1.622.559 2.377.196.501.661.897 1.011 1.344l-.404.489c-.516-.347-1.102-.615-1.517-1.051-.925-.964-1.664-2.116-2.665-2.975-.41-.359-1.294-.166-1.96-.228.154.583.16 1.281.499 1.716.339.425 1.016.581 1.542.854-2.41 1.401-3.413-.123-4.601-1.022-1.079-.816-2.084-1.601-3.831-.806l2.398 2.706c-3.33.223-4.566-3.745-8.298-2.994 1.265 1.301 2.169 2.227 3.076 3.154l-.304.529c-.791-.329-1.607-.605-2.373-.992-1.301-.669-2.546-1.479-3.881-2.065-.417-.188-1.055.135-1.592.219.173.515.202 1.216.56 1.511.836.685 1.836 1.18 2.879 1.81-2.54 1.225-4.023.86-6.428-1.28-.411-.363-1.097-.424-1.655-.62.047.709-.047 1.458.177 2.111.181.547.725.974 1.116 1.451l-.261.485c-.668-.073-1.367-.041-1.998-.232-1.149-.339-2.229-.962-3.394-1.165-.567-.106-1.252.461-1.881.727l1.176 1.252.797.858c-1.184.438-2.225.706-3.144 1.215-.463.253-.686.934-1.021 1.419.576.182 1.165.545 1.724.503.886-.069 1.746-.397 2.944-.699-.302.778-.578 1.186-.591 1.602-.017.527.188 1.055.293 1.579.588-.151 1.319-.14 1.727-.492.464-.413.577-1.203.979-1.724.645-.852 1.404-1.616 2.108-2.42l.554.392c-.079.61-.157 1.22-.242 1.824l.33.493c.833-.583 1.722-1.095 2.482-1.763.786-.695 1.449-1.533 2.162-2.307l.449.422c-.447.988-.887 1.975-1.404 3.11 3.333-.013 4.148-3.473 6.438-4.612l.344.469c-.459.911-.917 1.814-1.372 2.726l.464.416c.642-.273 1.392-.415 1.892-.851.947-.833 1.747-1.833 2.609-2.761.885-.962 1.859-1.067 3.168-.31-.539.454-1.112.706-1.28 1.122-.35.883-.49 1.848-.722 2.776.909-.346 1.958-.51 2.679-1.089.968-.783 1.617-1.946 2.534-2.802.382-.354 1.117-.339 1.692-.487l.242.585c-.471.438-1.068.805-1.376 1.334-.283.486-.25 1.156-.354 1.749.655.016 1.426.251 1.942-.015.597-.313.935-1.106 1.456-1.615.606-.592 1.287-1.1 1.932-1.644l.515.521c-.469.538-.988 1.038-1.384 1.626-.375.552-.613 1.196-.912 1.792.792-.001 1.699.239 2.356-.062.812-.373 1.352-1.296 2.141-1.776.905-.562 1.954-.907 2.94-1.347l.62.926c-.71.559-1.498 1.042-2.096 1.701-.312.347-.282.995-.406 1.513.563.091 1.219.408 1.664.218.56-.235.914-.927 1.415-1.345.876-.729 1.797-1.394 2.704-2.085l.554.678c-.431.427-.963.789-1.266 1.29-.401.678-.625 1.454-.924 2.188.777-.148 1.613-.161 2.307-.484.766-.354 1.396-1.015 2.107-1.506.583-.406 1.199-.767 2.262-1.45-.862 1.64-1.431 2.707-1.992 3.761 1.123-.328 2.251-.646 3.365-1 .988-.323 1.966-.691 3.13-1.101-1.408 1.865-2.507 3.327-3.978 5.286 2.429.811 4.391 1.462 6.354 2.113l-.106.659c-.744.059-1.565.359-2.207.142-1.432-.491-2.741-1.335-4.163-1.84-.702-.248-1.558-.078-2.348-.095.328.626.601 1.284.996 1.861.293.425.75.737 1.129 1.095l-.375.528c-.765-.429-1.499-.911-2.291-1.289-.876-.424-1.779-.918-2.718-1.064-.471-.07-1.049.558-1.575.872.373.404.687.915 1.142 1.193.654.401 1.416.639 2.132.949l-.179.623c-.878-.066-1.761-.069-2.625-.221-1.377-.238-2.734-.658-4.117-.832-.477-.063-1.021.383-1.541.602.366.396.665.895 1.1 1.16.694.422 1.487.685 2.231 1.019l-.136.572c-.665-.039-1.354.02-1.989-.135-1.034-.251-2.015-.771-3.048-.911-.59-.075-1.247.377-1.878.586.363.502.654 1.081 1.104 1.494.438.402 1.034.642 1.557.948l-.209.7c-.765-.133-1.53-.29-2.299-.391-1.302-.16-2.604-.355-3.91-.353-.339.001-.683.685-1.028 1.055.394.283.744.651 1.175.83.575.245 1.206.358 1.817.522l-.174.835c-1.15-.206-2.298-.434-3.457-.611-.967-.146-1.946-.313-2.917-.294-.315.005-.827.548-.859.883-.027.279.472.715.827.891.664.338 1.397.535 2.102.799l-.001.685c-.759.162-1.518.432-2.284.479-1.067.072-2.158-.149-3.195.01-.52.083-.949.724-1.413 1.11.418.354.794.78 1.267 1.033.392.209.89.222 1.344.32l-.002.562c-.729.127-1.455.332-2.182.374-1.2.06-2.415-.094-3.594.072-.545.08-1.011.687-1.52 1.059.569.338 1.101.804 1.721.988.604.186 1.291.096 1.938.125l.079.544c-.456.17-.897.407-1.37.513-1.621.367-3.281.61-4.872 1.086-.549.166-.927.892-1.387 1.354.57.312 1.115.81 1.717.886.761.098 1.571-.138 2.583-.254-1.26 2.244-1.96 2.656-3.896 2.631-.726-.01-1.495-.04-2.18.167-.429.124-.932.616-1.027 1.03-.053.262.547.758.95.991.515.308 1.126.462 1.686.675-1.019 2.511-4.953.929-5.35 4.137l2.216.515c-.541.972-1.089 1.737-1.385 2.581-.131.386.248.942.396 1.415.397-.158.868-.227 1.184-.483.476-.394.85-.921 1.017-1.104 1.038.525 1.755.887 2.473 1.256.209-.841.507-1.672.606-2.527.081-.645-.189-1.339-.127-1.987.061-.567.367-1.107.598-1.732.39.263.548.306.6.414.428.819.829 1.966 1.968 1.256.422-.266.34-1.435.381-2.201.052-1.113.015-2.233.015-3.496l2.446 1.718c.322-.829.702-1.64.943-2.491.345-1.188.582-2.415.865-3.621l.6.083c.071.425.104.862.233 1.27.168.528.412 1.023.624 1.529.416-.437 1.07-.817 1.204-1.328.331-1.283.346-2.645.659-3.938.181-.741.687-1.409 1.05-2.109l.65.27c0 .824-.064 1.657.027 2.474.038.409.353.787.545 1.18.404-.276 1.062-.477 1.163-.844.306-1.075.387-2.216.565-3.33.184-1.104.048-2.414 1.894-2.872-.094.703-.219 1.186-.197 1.667.022.521.179 1.035.274 1.56.519-.229 1.285-.312 1.501-.702.476-.84.655-1.845.976-2.77.291-.83.621-1.644.933-2.46l.728.258c-.137.678-.391 1.362-.373 2.034.018.635.321 1.271.499 1.903.437-.398 1.045-.72 1.291-1.213.443-.89.649-1.894.991-2.831.292-.791.649-1.567.971-2.346l.674.147c.041.869-.017 1.752.152 2.591.109.518.571.95.875 1.426.337-.417.824-.784.97-1.262.313-1.016.372-2.104.678-3.116.196-.651.643-1.225.97-1.826l.572.236c-.058.7-.207 1.406-.148 2.093.043.448.392.868.608 1.3.407-.284 1.011-.482 1.182-.87.439-.965.627-2.043 1.029-3.029.263-.652.729-1.219 1.101-1.816l.571.264c-.113.45-.299.901-.327 1.364-.033.517.083 1.043.126 1.572.583-.207 1.297-.268 1.707-.659.387-.361.411-1.09.678-1.612.508-.985 1.072-1.939 1.61-2.905l.688.324-.493 1.73c-.32 1.148-1.22 2.554-.849 3.388l.118.304.031-.012c.588-.18 1.161-.398 1.726-.643.598-1.402 1.272-2.763 1.657-4.205.52-1.938 1.961-1.879 3.417-2.286-.707 1.804-1.322 3.383-1.938 4.938 1.066-.567 2.124-1.132 3.213-1.624.487-2.263 2.351-3.242 5.618-2.643 4.34.793 6.63 2.384 5.29 8.225 1.832 3.822 1.592 8.266 1.183 12.412-.176 1.833-.467 3.808-.591 5.795l.543.1c1.483.273 2.979.493 4.485.691l.052-.254-.045.256c1.762.225 3.524.416 5.29.6-.105-5.66-.635-11.3-2.496-16.593l-.349-.08-.116-1.172-.264-.651c-.256-.598-.2-1.105.037-1.5-.035-.573-.051-1.144-.014-1.709.223-3.087 2.109-4.927 5.339-5.59 3.659-.749 4.992-.135 6.853 2.912.437.714 1.255 1.198 1.896 1.788l.782-.551-1.306-3.751.49-.525c.779.604 1.794 1.063 2.28 1.845.577.923.815 2.113.995 3.221.284 1.771 1.282 1.81 2.641 1.598-.351-1.666-.643-3.039-.935-4.41l.446-.257c.348.316.844.562 1.023.951.504 1.087.777 2.29 1.333 3.34.279.527.978.836 1.484 1.244.148-.585.397-1.165.416-1.745.021-.637-.178-1.272-.279-1.913l.811-.196c.375 1.248.773 2.49 1.126 3.744.389 1.37.635 2.85 2.868 2.981-.337-1.527-.626-2.819-.916-4.12l.589-.325c.408.621.976 1.191 1.178 1.871.23.745.033 1.6.181 2.384.15.786.412 1.582.802 2.275.114.206 1.213.145 1.224.071.177-.791.244-1.61.295-2.432.038-.525.007-1.054.007-1.58.83.228 1.418.581 1.545 1.05.392 1.456.522 2.98.935 4.421.185.65.796 1.175 1.213 1.757.32-.608.782-1.184.931-1.826.141-.612-.051-1.297-.089-1.946.665.229 1.008.521 1.052.851.135 1.049.026 2.148.277 3.164.143.576.808 1.022 1.239 1.524.356-.558.825-1.073 1.02-1.683.152-.474-.044-1.064-.08-1.602l.761-.106c1.33 2.117.441 4.641.777 7.255l2.882-.337c-.215-1.382-.373-2.412-.523-3.437l.66-.23c.39.625.962 1.202 1.13 1.877.214.883-.085 1.916.197 2.766.332.992 1.048 1.854 1.595 2.774l1.659-2.236c.079.567.207 1.122.229 1.681.028.73-.228 1.533-.004 2.176.284.807.939 1.494 1.427 2.224.476-.544.937-1.095 1.428-1.626.065-.076.242-.056.78-.15v6.409l-.768.437 1.103 1.933c.627-1.593 1.205-3.04 1.782-4.495l.771.108c.05.909.161 1.816.129 2.723-.028.726-.465 1.498-.299 2.146.161.648.854 1.161 1.306 1.735.286-.496.563-1.005.86-1.494.123-.207.287-.383.506-.679.712.772 1.251 1.55 1.974 2.073.385.277 1.081.117 1.636.157-.032-.545.079-1.155-.132-1.624-.356-.803-.914-1.521-1.286-2.115l2.321-1.172c-.652-.586-1.252-1.255-1.981-1.73-.659-.429-1.489-.581-2.187-.969-.409-.221-.708-.651-1.052-.991.42-.351.803-.857 1.289-1.015.443-.14 1.013.18 1.516.161.396-.02.774-.268 1.157-.409-.188-.309-.306-.816-.567-.904-1.617-.558-3.307-.924-4.897-1.558-.871-.345-1.594-1.081-2.389-1.64.823-.199 1.638-.396 2.458-.58l.388.057c.556-.216 1.1-.456 1.647-.686-.433-.496-.777-1.255-1.312-1.425-1.315-.41-2.724-.509-4.073-.813-.573-.128-1.101-.455-1.648-.689.496-.504.869-.448 1.129-.596.546-.313 1.03-.729 1.544-1.101-.476-.449-.879-1.099-1.44-1.297-.724-.248-1.58-.074-2.363-.186-1.216-.167-2.426-.419-3.635-.642l.063-.65c.559-.098 1.167-.083 1.667-.312.452-.211.789-.692 1.176-1.051-.412-.378-.767-.874-1.253-1.086-.373-.158-.906.104-1.366.071-1.564-.1-3.125-.248-4.681-.378l-.008-.864c1.264-.239 2.533-.486 4.188-.794-2.256-3.541-5.542-.252-8.353-2.018 1.166-.221 1.844-.253 2.435-.495.481-.202.85-.66 1.268-.998-.393-.307-.776-.842-1.191-.873-1.178-.083-2.376.048-3.565.067-1 .017-2.002.001-2.995.001l-.004-.69c.351-.091.711-.167 1.059-.283.648-.209 1.341-.359 1.908-.708.155-.101.044-1.117-.163-1.205-.685-.283-1.48-.506-2.204-.436-.98.104-1.92.537-2.896.746-.477.102-1.002.019-1.502.019l-.063-.521c1.207-.489 2.406-.972 4.071-1.651-3.259-2.289-6.293.906-9.473-.914.957-.453 1.572-.632 2.044-.999.4-.303.63-.812.936-1.232-.499-.245-1.041-.76-1.479-.685-1.03.185-2.01.657-3.021.995-.554.186-1.124.319-1.686.47l-.25-.472c.815-.455 1.63-.911 2.446-1.358l-.721-1.165c-.954.177-1.919.287-2.844.537-1.261.347-2.473.873-3.746 1.15-.378.08-1.017-.315-1.282-.674-.142-.195.176-.839.42-1.185 1.293-1.794.994-2.407-1.235-2.809-.916-.16-1.778-.652-2.668-.992.084-.322.161-.649.237-.975.958.113 1.966.051 2.841.375.911.333 1.649 1.134 2.55 1.547.503.23 1.176.1 1.776.134-.146-.572-.174-1.222-.474-1.697-.333-.535-.917-.916-1.395-1.366l.458-.658c1.047.596 2.053 1.261 3.146 1.757.673.305 1.464.333 2.204.489-.139-.704-.286-1.405-.408-2.109-.02-.111.063-.24.212-.714 1.305.849 2.497 1.705 3.78 2.408.474.258 1.152.144 1.731.202-.182-.597-.238-1.293-.589-1.759-.482-.633-1.195-1.091-1.802-1.62l.38-.669c.695.36 1.49.614 2.063 1.114.943.833 1.689 1.891 2.634 2.721.361.314 1.044.259 1.578.368-.057-.542.041-1.162-.196-1.614-.433-.841-1.049-1.58-1.59-2.369l.407-.533c.693.351 1.459.6 2.062 1.07.893.691 1.581 1.663 2.51 2.271.604.396 1.482.371 2.243.526l.252-.654c-.841-1.068-1.683-2.142-2.523-3.213l.553-.52c.96.827 1.918 1.658 2.881 2.48 1.011.864 1.939 2.151 3.535.794l-1.796-2.707.46-.43c.562.364 1.227.637 1.663 1.122.751.833 1.368 1.796 2.039 2.702 1.024 1.387 1.998 1.329 2.94-.085l-2.506-3.167.405-.527c.629.217 1.38.292 1.857.691.903.763 1.57 1.818 2.485 2.574 1.546 1.293 3.201 2.454 4.808 3.666l.255-.362-3.702-4.961.776-.594c1.803 2.119 3.6 4.238 5.481 6.459 2.584-1.781-1.234-3.176-.68-5.509 2.609 2.83 4.323 6.035 7.445 7.721-.459-1.085-1.138-1.998-1.61-3.002-.251-.543-.146-1.254-.198-1.895.544.384 1.213.672 1.601 1.179.608.78.996 1.727 1.52 2.576.944 1.53 2.069 1.742 3.149.671l-1.663-1.512.479-.844c.705.003 1.404.044 2.096-.009zm-88.77-22.628c1.896.063 3.791.283 5.679.545.231.034.393.584.59.896l-.275.457c-.76-.151-1.514-.354-2.274-.438-.707-.072-1.43-.011-2.093-.011v5.57l-.499.169c-.361-.702-.825-1.371-1.05-2.111-.345-1.133-.639-2.312-.745-3.482-.041-.541.444-1.603.667-1.595zm5.894 5.74c-.279 1.041-.78 2.026-1.193 3.04l-.52.131c0-1.412-.05-2.826.054-4.229.014-.174.822-.299 1.264-.44.147.501.51 1.062.395 1.498zm-5.175 8.8c.785.29 1.612.513 2.305.948.147.09-.202.97-.32 1.483l-2.472-1.276c.165-.387.33-.771.487-1.155zm-1.317-2.201l.042-.748c1.111-.72 2.202-.757 3.266.176l-.071.743c-1.084-.055-2.161-.112-3.237-.171zm-4.671 9.869c3.649-3.148 5.317-3.643 6.966-1.817-2.472.217-4.161 2.464-6.966 1.817zm8.21 2.565c-.516-.111-.908-.772-1.358-1.183.393-.391.722-.927 1.197-1.133 2.278-1.013 4.451.188 6.034 3.289-2.047-.325-3.979-.557-5.873-.973zm6.945-13.788c-.59-.062-1.204.085-1.8.146.103.595.148 1.201.328 1.772.132.425.434.801.657 1.195l-.697.445c-.476-.772-1.196-1.499-1.373-2.339-.205-.999-.03-2.111.152-3.137.071-.372.638-.892 1.01-.924 1.445-.118 3.195 1.481 3.623 3.395-.735-.22-1.309-.489-1.9-.553zm5.275-8.694c-1.096.074-2.197.146-3.587.246.23.922.418 1.694.604 2.459l-.514.275c-.341-.705-1.025-1.451-.933-2.103.143-1.053.731-2.857 1.232-2.891 1.125-.073 2.301.748 3.461 1.198l-.263.816zm9.745 6.176l.619.038c.076 1.059.145 2.124.247 3.649l-2.435-1.343c.646-.97 1.108-1.657 1.569-2.344zm-3.528-8.524c-.399 1.021-1.001 1.955-1.523 2.922-.397-.463-1.216-1.075-1.118-1.376.338-.993 1.003-1.869 1.813-3.258.465.914.938 1.428.828 1.712zm.259 22.919c.951-1.068 1.907-2.13 2.861-3.191l.783.681-2.807 3.244-.837-.734zm9.425 2.188l-7.452 1.447c1.382-4.198 3.863-4.76 7.452-1.447zm-3.275-19.967c.198-.197.971-.221 1.042-.092.202.391.267.904.248 1.358-.041.999-.163 1.996-.249 2.994l-.52.123c-.446-.982-1.003-1.937-1.276-2.968-.1-.39.39-1.028.755-1.415zm2.025 12.718c-.09-.555-.178-1.109-.273-1.664h2.455l.179.952c-.79.238-1.573.478-2.361.712zm2.345-9.447c-.878-1.992-4.323-5.678-5.871-6.073 1.119-.638 1.79-1.276 2.54-1.382 1.235-.168 2.533-.109 3.771.094.514.079 1.376.871 1.309 1.165-.414 1.926-1.039 3.795-1.749 6.196zm4.175 6.84l-.979-.353c.442-1.022 1.304-2.1 1.204-3.067-.082-.804-1.307-1.49-2.198-2.41 1.379-.326 3.59.629 3.553 1.016-.154 1.643-.995 3.212-1.58 4.814z"/><path fill-rule="evenodd" clip-rule="evenodd" d="M207.389 159.818c1.52 1.612 3.04 3.225 4.559 4.845l-.556.558c-1.506-1.611-3.012-3.215-4.521-4.824l.518-.579z"/><path d="M139.989 320.522s-15.242 21.919-55.071 21.919c-39.835 0-30.348-16.176-27.275-17.117 3.075-.926 6.15-.659 7.358 1.882 1.2 2.539 1.867 4.27 0 4.803-1.875.533-3.076-1.868-3.076-1.868s-3.342 5.083 2.401 5.209c5.75.142 7.021-7.005 4.95-9.084-2.071-2.077-7.084-6.01-12.967-2.809-5.884 3.217-6.55 11.233-.267 16.442 6.284 5.209 49.594 9.085 68.438-2.401 18.851-11.499 18.851-12.44 20.719-15.516 1.874-3.074 2.674-14.294 1.606-17.776-1.067-3.467-5.483-9.885-5.483-11.491 0-1.608.47-4.276 4.781-4.276h8.32c3.341 0 5.083 3.201 5.083 7.891 0 4.677-2.141 15.764-1.341 20.372.808 4.622 8.825 29.082 44.652 29.082 35.819 0 44.245-6.417 44.245-14.842 0-8.424-9.759-15.234-14.44-7.343-4.677 7.877 6.415 12.159 8.557 7.343 1.067-2.275-.934-2.935-2.275-2.008-1.333.94-5.476-1.067-2.801-4.143 1.467-1.729 7.884.675 7.75 6.417-.133 5.758-5.798 10.826-35.56 10.826-29.759 0-41.436-8.41-44.244-22.718-1.334-6.553-1.869-14.31-1.334-16.036.533-1.741.667-16.051-1.075-21.133-1.733-5.068-3.075-10.152-1.467-13.227 1.6-3.075 2.674-10.56 1.2-14.042-1.467-3.468-1.067-6.151.4-10.419 1.475-4.282 0-11.893-.4-14.841-.399-2.935 0-6.544.534-8.285.541-1.74.408-7.618-.534-10.893-.934-3.275-1.067-5.55-.266-7.425.8-1.868 2.408-7.218 1.208-11.094-1.208-3.875-.541-6.149 0-7.349.533-1.208.533-8.96.533-8.96l.534-.533s3.875 2.542 8.417 2.542c4.55 0 11.901-6.551 11.901-18.718 0-3.209-2.408-5.612-2.408-5.612s1.186-6.067-.769-8.021c-1.49-1.484-3.107 1.339-3.107 1.339s-1.601-.464-2.675-1.772c-1.067-1.302-2.809-3.442-2.809-3.442s-5.609.534-14.567 7.351c-2.941-5.75-7.084-8.953-14.968-8.953-7.892 0-13.908 6.953-13.908 10.828 0 3.876-.134 19.11 1.073 23.126 1.201 4.009 6.817 10.025 10.426 10.025 2.409 0 3.875-.94 3.875-.94l1.335.674s.272 20.717.272 23.523c0 2.804-1.607 4.678-1.741 8.421-.133 3.749.399 14.968.133 18.042-.267 3.075-1.734 3.342-1.734 8.425v3.608s2.135 10.025 2.668 15.108c.539 5.081-2.134 17.368-4.542 24.586-2.408 7.224-2.008 12.975-.267 18.857 1.736 5.883 1.602 14.295.002 16.446z"/><path fill="#D80E18" d="M142.397 139.792c-2.226 0-4.301.556-6.136 1.432l-1.177.631.426 3.381s-3.005 2.209-3.005 3.011v6.818s3.707-5.114 4.711-5.616c1.004-.5 1.601 2.007.898 2.709s-3.802 4.009-2.656 6.011c.55.807 2.362.301 2.961-.401.2-.298 1.105.505 0 2.507-1.106 2.009-2.11 7.42-2.11 12.231 0 4.815.702 7.321 4.515 7.321s6.115-4.613 6.915-9.827c.801-5.211-.4-8.519 0-10.827.401-2.304 1.379-3.708 1.596-5.611.209-1.908-.012-2.709 0-3.312.013-.597.665-2.401.665-2.401s2.655-.402 3.455 2.604c.204.702-.6 1.004-.702 2.303-.098 1.306-1.299 5.838-.196 8.083 1.103 2.244 1.6 3.951 3.208 3.951h1.601s1.404-11.332 0-16.043c-2.942-5.751-7.085-8.955-14.969-8.955z"/><path fill="#D80E18" d="M161.374 149.848c2.008.604 2.106 5.715 1.306 8.424-.8 2.703-.665 9.822.472 11.228 1.129 1.403 4.433 5.564 8.55 4.31 4.613-1.403 9.22-7.013 8.822-11.731-.397-4.711-2.005-8.72-5.312-12.025-3.307-3.307-6.729-5.392-7.275-7.507-2.164.854-5.144 2.329-8.755 4.874 0 .004.194 1.831 2.192 2.427z"/><path fill="#4DA92C" d="M160.075 160.674c-.204-2.002-.579-4.712-.894-5.512-.314-.8-1.189-.604-1.189-.604l-.002.011c.035 4.874-.625 10.219-.625 10.219h-1.2s.243 1.501 1.827 1.403c1.578-.099 2.083.006 2.083.006s.196-3.516 0-5.523z"/><path fill="#4DA92C" d="M154.76 176.013c.319-1.896 2.328-2.905 4.421.507.69 1.299.11 5.813 0 6.312-.11.505-.871 3.608-2.042 4.015-1.178.401-5.489-2.611-5.587-3.812s2.907-1.572 3.108-2.39c.199-.818-.202-2.826.1-4.632z"/><path fill="#4DA92C" d="M147.739 197.167c-1.133 3.575 3.209 7.821 6.017 7.821s4.711-2.507 4.809-3.107c.105-.6.604-5.816 0-6.819-.597-.998-1.761-3.006-3.036-3.006s-6.484 1.004-7.79 5.111z"/><path fill="#4DA92C" d="M154.058 213.308c3.457.691 4.799 0 4.799 0s1.814 1.91 1.618 5.217c-.204 3.307-3.904 7.217-7.266 7.021-3.363-.206-6.572-3.91-6.27-8.529.302-4.606 3.06-6.575 3.06-6.575s2.44 2.549 4.059 2.866z"/><path fill="#4DA92C" d="M145.437 234.258c-1.039 3.704 3.51 12.034 9.223 12.034 3.47-.499 4.776-2.069 5.013-2.577.234-.499-.265-4.745-.816-6.135-.288-.734-.364-2.624 0-3.322.346-.636-.586-2.598-2.496-2.796-1.903-.209-9.52-2.217-10.924 2.796z"/><path fill="#4DA92C" d="M147.56 258.22c-.153 2.107 6.294 5.525 7.1 5.525.802 0 3.105-1.404 3.105-5.013s-1.902-4.515-2.506-4.515c-.599.001-7.584 2.403-7.699 4.003z"/><path fill="#4DA92C" d="M146.104 277.577c.354 2.892 4.859 4.213 6.558 4.408 1.699.196 5.104-.996 5.104-.996s1.208-4.122-1.404-5.314c-2.606-1.21-10.596-.801-10.258 1.902z"/><path fill-rule="evenodd" clip-rule="evenodd" d="M39.631 246.35c1.274-1.447 2.429-3.012 3.841-4.308 3.099-2.839 4.411-2.828 7.754-.308 2.263 1.703 4.708.91 5.046-1.875.483-3.903.615-7.84.891-11.765.025-.335-.116-.753.034-.996.547-.903 1.182-1.749 1.788-2.602.178.839.511 1.676.522 2.511.056 4.148-.055 8.292.042 12.431.078 3.676 5.301 6.47 8.463 4.579.403-.238.797-.706.896-1.137.052-.218-.557-.638-.927-.864-.453-.278-1.007-.396-1.442-.686-1.355-.886-1.54-2.18-.217-3.103 2.848-1.974 5.758-3.879 8.803-5.51.843-.447 2.431-.18 3.373.328 4.749 2.591 9.729 4.42 15.143 4.76 8.811.55 16.201-2.566 22.13-9.076 1.774-1.95 2.634-2.037 4.152.088 1.121 1.565 1.245 3.265.201 4.873-1.029 1.582-2.583 1.191-4.164.968-1.006-.138-2.244-.005-3.126.471-5.086 2.775-10.381 4.844-16.19 5.486-1.445.152-2.87.646-4.321.71-4.679.192-8.888-1.286-12.842-3.736-1.323-.821-2.864-1.445-4.378-1.686-.713-.121-1.601.883-2.418 1.396.464.567.838 1.238 1.401 1.683 1.653 1.294 1.844 2.224.77 4.123-3.241 5.713-11.926 8.084-17.763 2.663-1.282-1.199-2.137-1.213-3.36-.082-1.584 1.461-3.444.947-5.101.23-2.77-1.213-5.286-1.11-7.675.823-.17.135-.484.105-.731.16l-.595-.549z"/><path fill-rule="evenodd" clip-rule="evenodd" d="M198.602 252.114c.087-2.838 4.319-6.344 7.012-5.794 2.15.447 4.285 1.017 6.455 1.294 3.293.418 5.063-1.256 5.098-4.531.015-2.147.219-4.288.102-6.412-.174-3.114 1.825-4.54 4.126-5.79 3.452-1.894 6.915-3.755 10.389-5.604.458-.246.979-.478 1.489-.526.326-.039.848.147.994.4.149.259.077.852-.13 1.064-.6.62-1.261 1.213-1.998 1.646-3.383 2.027-6.774 4.027-10.206 5.971-1.395.789-2.251 1.808-2.265 3.48-.021 1.601-.133 3.2-.249 4.794-.462 6.405-6.783 10.804-12.969 8.814-2.666-.865-4.917-1.031-6.946 1.149-.117.134-.357.176-.55.197-.11.015-.234-.097-.352-.152z"/><path fill-rule="evenodd" clip-rule="evenodd" d="M242.25 226.016c.087.544.23 1.086.245 1.633.11 4.344.182 8.671.298 13.005.024.859.102 1.739.285 2.579.665 2.964 3.327 4.452 6.129 3.354.47-.178.845-1.062.934-1.67.249-1.783 1.231-3.292 2.851-3.403 1.211-.069 2.714.896 3.676 1.827.505.485.578 2.3.096 2.804-2.388 2.532-5.068 4.754-8.75 5.142-5.585.604-7.552-3.028-7.603-6.812-.08-5.213.061-10.413.142-15.613.006-.517.143-1.062.343-1.553.214-.497.572-.927.869-1.4l.485.107z"/><path fill-rule="evenodd" clip-rule="evenodd" d="M236.456 240.452c1.359 2.273-.228 6.642-3.171 9.594-2.942 2.935-8.089 4.542-10.763 2.989 7.094-1.607 11.433-6.027 13.934-12.583z"/><path fill-rule="evenodd" clip-rule="evenodd" d="M49.086 230.902c-.643-.328-1.074-.43-1.325-.697-.897-.98-1.709-.768-2.54.063-.956.948-1.921.64-2.492-.299-.278-.454-.13-1.432.191-1.943.614-.991 1.581-1.575 2.616-.488.932.954 1.645 1.024 2.652.035.404-.383 1.466-.495 2.003-.249.479.233 1.062 1.356.888 1.652-.467.788-1.33 1.326-1.993 1.926z"/><path fill-rule="evenodd" clip-rule="evenodd" d="M205.612 238.92c-.71-.126-1.155-.087-1.471-.265-1.156-.681-1.868-.229-2.414.812-.625 1.188-1.636 1.187-2.467.451-.4-.356-.542-1.325-.389-1.912.292-1.121 1.039-1.971 2.352-1.251 1.174.646 1.874.504 2.547-.74.27-.492 1.249-.915 1.838-.834.522.072 1.413.983 1.333 1.312-.213.882-.879 1.654-1.329 2.427z"/><path fill-rule="evenodd" clip-rule="evenodd" d="M78.46 251.511c-1.285.837-2.147 1.792-3.092 1.891-.614.06-1.343-1.136-2.021-1.771.841-.684 1.6-1.745 2.544-1.945.6-.125 1.472.995 2.569 1.825z"/></svg>