<svg xmlns="http://www.w3.org/2000/svg" width="40" height="40"><g fill="#fff"><path d="M36.805 9.591c0 1.154-.939 2.089-2.095 2.089h-29.424c-1.153 0-2.091-.935-2.091-2.089 0-1.156.938-2.091 2.091-2.091h29.424c1.153 0 2.095.936 2.095 2.091z"/><path d="M36.805 20c0 1.156-.939 2.091-2.095 2.091h-29.424c-1.153 0-2.091-.935-2.091-2.091 0-1.153.938-2.09 2.091-2.09h29.424c1.153 0 2.095.937 2.095 2.09z"/><path d="M36.805 30.411c0 1.151-.939 2.089-2.095 2.089h-29.424c-1.153 0-2.091-.938-2.091-2.089 0-1.155.938-2.093 2.091-2.093h29.424c1.153 0 2.095.938 2.095 2.093z"/></g></svg>