<?xml version="1.0" encoding="utf-8"?>
<!-- Generator: Adobe Illustrator 16.0.0, SVG Export Plug-In . SVG Version: 6.00 Build 0)  -->
<!DOCTYPE svg PUBLIC "-//W3C//DTD SVG 1.1//EN" "http://www.w3.org/Graphics/SVG/1.1/DTD/svg11.dtd">
<svg version="1.1" id="Capa_1" xmlns="http://www.w3.org/2000/svg" xmlns:xlink="http://www.w3.org/1999/xlink" x="0px" y="0px"
	 width="300px" height="420.887px" viewBox="0 0 300 420.887" enable-background="new 0 0 300 420.887" xml:space="preserve">
<g>
	<linearGradient id="SVGID_1_" gradientUnits="userSpaceOnUse" x1="149.9995" y1="407.2778" x2="149.9995" y2="13.6045">
		<stop  offset="0" style="stop-color:#009030"/>
		<stop  offset="0.0391" style="stop-color:#38942D"/>
		<stop  offset="0.1144" style="stop-color:#6F9E27"/>
		<stop  offset="0.2174" style="stop-color:#AEB01B"/>
		<stop  offset="0.2921" style="stop-color:#DABE0C"/>
		<stop  offset="0.3363" style="stop-color:#E4CF67"/>
		<stop  offset="0.3874" style="stop-color:#EEE19E"/>
		<stop  offset="0.434" style="stop-color:#F6EFCB"/>
		<stop  offset="0.4743" style="stop-color:#FCF9EA"/>
		<stop  offset="0.5069" style="stop-color:#FEFEFB"/>
		<stop  offset="0.5276" style="stop-color:#FFFFFF"/>
		<stop  offset="0.5907" style="stop-color:#EDF6FB"/>
		<stop  offset="0.7258" style="stop-color:#B1D8EC"/>
		<stop  offset="0.8698" style="stop-color:#60B5DA"/>
	</linearGradient>
	<path fill="url(#SVGID_1_)" d="M150,13.604c-77.483,0-140.3,88.127-140.3,196.837c0,108.716,62.817,196.837,140.3,196.837
		c77.483,0,140.3-88.121,140.3-196.837C290.3,101.731,227.483,13.604,150,13.604z"/>
	<path fill="#4DA92C" d="M91.798,167.997c3.664,3.824,9.626-1.741,13.438-8.186c3.805-6.453,19.047-19.35,25.66-20.019
		c6.62-0.672,4.187,2.062,4.187,2.062l21.081,9.495h7.82l9.425-8.146c0,0,8.619-6.288,22.049,7.346
		c13.438,13.634,10.833,10.629,13.438,13.634c2.604,3.013,5.413,8.621,10.629,8.825c5.209,0.196,6.413-2.604,6.413-4.213
		c0-1.6-2.608-8.464-7.621-14.253c-5.013-5.799-18.843-20.232-40.902-25.448c8.825-4.409,23.056-3.006,28.475-2.001
		c5.414,1.002,19.448,5.209,21.652,5.413c2.205,0.196,9.226-4.816,3.407-12.23c-8.02-7.422-41.902-6.22-46.915-4.816
		c3.458-2.572,10.622-6.017,17.439-7.821c6.817-1.805,16.042-3.005,18.647-5.013c2.612-2.001,6.22-4.605-2-9.822
		c-8.222-5.216-32.689,7.421-40.908,13.03c-1.399-0.997,4.61-8.817,13.035-17.643c8.417-8.82,12.027-13.634,13.03-16.043
		c1.004-2.4,3.413-13.233-10.426-5.209c-13.831,8.018-28.869,36.493-28.869,36.493s-2.314-21.055-10.284-47.122
		c-3.154-10.627-13.979-8.417-11.375,3.411c2.604,11.831,8.825,33.482,9.021,36.086c-0.8,1.006-1.2,2.81-10.622-10.825
		c-9.429-13.634-11.03-16.041-15.242-19.65c-4.213-3.608-12.834-8.817-11.43,3.013c0.798,2.886,4.816,7.216,8.221,12.63
		c3.412,5.412,11.633,13.837,13.037,18.246c-4.212-1.404-15.038-6.017-25.063-8.018c-10.026-2.008-15.242-1.808-16.843,2.205
		c-1.608,4.009,5.209,6.012,8.018,6.416c2.808,0.4,28.875,9.219,29.676,13.234c-4.816-0.604-28.272-3.208-41.71,2.205
		c-13.43,5.412-9.218,14.435-3.805,13.43c5.413-1.003,29.269-6.016,34.886-5.412c5.617,0.604,9.829,4.814,4.009,6.816
		C118.667,132.107,82.974,158.771,91.798,167.997z"/>
	<path d="M150,10.444C71.272,10.444,7.444,99.98,7.444,210.441c0,110.452,63.828,200.003,142.555,200.003
		c78.728,0,142.555-89.551,142.555-200.003C292.555,99.98,228.728,10.444,150,10.444z M150,402.366
		c-74.22,0-134.388-85.935-134.388-191.925C15.611,104.442,75.779,18.522,150,18.522c74.221,0,134.388,85.92,134.388,191.919
		C284.388,316.431,224.221,402.366,150,402.366z"/>
	<g>
		<path fill="#4DA92C" d="M150,402.366c40.374,0,76.588-25.433,101.222-65.678l-4.814-2.061l-6.91,6.41l-20.778,2.611l-34.085-2.208
			l-17.442-11.427l-6.7-13.739l0.882-15.144l-2.517-15.235H142.13l-2.982,14.797l7.624,15.512l-26.251,23.331l-40.923,5.226
			l-25.334-6.637l-3.699,1.419C75.149,378.142,110.592,402.366,150,402.366z"/>
	</g>
	<g>
		<g>
			<path d="M230.468,128.247c0.608-0.039,1.202-0.186,1.806-0.289c-0.356-0.559-0.604-1.285-1.106-1.65
				c-0.757-0.538-1.694-0.819-2.183-1.04c0.454-1.22,0.815-2.176,1.168-3.124c-1.1,0.225-2.205,0.415-3.293,0.677
				c-0.307,0.078-0.544,0.466-0.847,0.517c-1.026,0.165-2.061,0.241-3.097,0.35c-0.14-0.283-0.281-0.566-0.421-0.85
				c0.642-0.459,1.441-0.812,1.864-1.422c0.343-0.508,0.243-1.32,0.338-1.996c-0.623,0.103-1.326,0.063-1.859,0.344
				c-0.817,0.432-1.523,1.083-2.273,1.646c-1.557,1.164-2.732,0.392-4.208-0.569c1.161-0.626,2.077-0.945,2.751-1.538
				c0.463-0.418,0.587-1.226,0.865-1.852c-0.67-0.012-1.344-0.062-2.01-0.013c-0.233,0.018-0.433,0.31-0.672,0.414
				c-1.484,0.65-2.969,1.29-4.451,1.928l-0.401-0.589c0.446-0.444,0.949-0.852,1.322-1.357c0.347-0.457,0.555-1.018,0.825-1.54
				c-0.638-0.1-1.442-0.492-1.889-0.249c-1.282,0.693-2.389,1.701-3.63,2.476c-0.513,0.321-1.19,0.371-1.787,0.536
				c0.047-0.688,0.361-0.911,0.426-1.195c0.151-0.625,0.182-1.289,0.266-1.935c-0.664,0.15-1.406,0.151-1.955,0.48
				c-0.849,0.51-1.502,1.361-2.354,1.84c-0.675,0.382-1.529,0.413-2.686,0.694c0.323-0.801,0.382-0.987,0.463-1.156
				c0.435-0.921,0.875-1.834,1.314-2.753c-0.979,0.389-1.993,0.703-2.923,1.181c-0.514,0.261-0.898,0.786-1.344,1.187
				c-0.533,0.48-1.082,0.955-1.619,1.426c-0.13-0.125-0.26-0.249-0.39-0.374c0.504-0.917,1.004-1.827,1.615-2.937
				c-3.429-0.798-3.837,3.608-6.95,3.484c0.414-0.666,0.741-1.023,0.852-1.436c0.158-0.576,0.152-1.191,0.219-1.795
				c-0.638,0.166-1.417,0.154-1.871,0.534c-0.747,0.637-1.248,1.558-1.933,2.282c-0.452,0.472-1.041,0.812-1.576,1.209
				c0.191-0.593,0.368-1.185,0.575-1.769c0.093-0.245,0.352-0.465,0.366-0.701c0.029-0.616-0.027-1.231-0.05-1.851
				c-0.61,0.165-1.4,0.143-1.783,0.526c-0.982,0.987-1.729,2.211-2.678,3.23c-0.599,0.647-1.394,1.103-2.101,1.643
				c-0.329-0.668-0.341-0.936-0.263-1.168c0.466-1.35,1.104-2.648,1.394-4.026c0.489-2.342-2.131-1.463-2.875-2.572
				c-0.033-0.042-0.01-0.129-0.034-0.623c0.638,0,1.31-0.131,1.894,0.025c0.896,0.248,1.75,0.66,2.591,1.062
				c0.87,0.418,1.832,0.969,2.38-0.263c0.529-1.194-0.581-1.339-1.348-1.746c-0.553-0.295-0.939-0.896-1.403-1.364
				c0.659-0.056,1.354-0.273,1.953-0.126c1.288,0.316,2.503,0.956,3.8,1.184c0.545,0.1,1.214-0.516,1.831-0.807
				c-0.441-0.471-0.833-1.005-1.339-1.408c-0.479-0.381-1.076-0.619-1.621-0.921c0.642-0.459,1.117-0.576,1.498-0.435
				c0.943,0.349,1.798,0.995,2.758,1.164c0.619,0.107,1.354-0.414,2.038-0.656c-0.419-0.465-0.792-0.982-1.27-1.389
				c-0.431-0.359-0.972-0.589-1.46-0.88c0.111-0.278,0.222-0.557,0.332-0.836c1.098,0.336,2.249,0.57,3.288,1.042
				c1.599,0.739,3.098,1.936,5.239,0.211c-1.328-0.934-2.482-1.753-3.644-2.567c0.696-0.432,1.187-0.546,1.588-0.41
				c1.431,0.492,2.822,1.114,4.27,1.576c0.555,0.179,1.206,0.048,1.818,0.052c-0.275-0.581-0.49-1.213-0.847-1.74
				c-0.285-0.421-0.754-0.719-1.139-1.066c0.144-0.219,0.288-0.431,0.432-0.648c1.096,0.612,2.16,1.305,3.299,1.805
				c1.151,0.51,2.384,0.816,3.585,1.22c0.144-0.223,0.288-0.439,0.432-0.664c-0.872-0.941-1.743-1.884-2.986-3.232
				c1.212,0.23,1.959,0.241,2.58,0.525c0.967,0.441,1.807,1.146,2.776,1.574c0.546,0.252,1.235,0.178,1.856,0.253
				c-0.203-0.542-0.408-1.09-0.619-1.632c-0.117-0.29-0.258-0.57-0.394-0.876c1.606-0.351,1.777-0.183,3.567,1.169
				c0.767,0.583,1.857,0.744,2.801,1.093c-0.07-0.868-0.133-1.745-0.233-2.984c0.296-0.091,0.985-0.217,1.575-0.523
				c0.5-0.265,0.885-0.753,1.32-1.142c-0.475-0.388-0.902-1.012-1.43-1.115c-0.771-0.151-1.614,0.066-2.274,0.12
				c0.15-0.968,0.273-1.767,0.396-2.57c-0.924,0.352-1.917,0.585-2.758,1.081c-0.729,0.428-1.23,1.219-1.935,1.699
				c-0.429,0.296-1.046,0.312-1.586,0.454c-0.056-0.562-0.175-1.124-0.158-1.683c0.014-0.553,0.162-1.1,0.27-1.704
				c-2.271-0.369-2.687,1.307-3.321,2.514c-0.901,1.702-2.155,2.144-4.489,1.531c1.572-1.682,2.895-3.096,4.308-4.604
				c-1.219-0.968-2.573-0.405-3.685,0.57c-0.984,0.865-1.702,2.027-2.553,3.047c-0.632,0.747-1.281,1.482-1.927,2.226
				c-0.195-0.144-0.397-0.286-0.592-0.43c0.427-0.844,0.976-1.65,1.229-2.545c0.147-0.513-0.186-1.169-0.299-1.752
				c-0.54,0.254-1.304,0.362-1.582,0.789c-0.837,1.281-1.423,2.716-2.233,4.021c-0.359,0.59-0.996,1.008-1.704,1.69
				c-0.117-0.637-0.229-0.842-0.177-1.003c0.361-1.169,1.334-2.667-0.492-3.178c-1.68-0.476-1.221,1.454-1.76,2.292
				c-0.816,1.267-0.986,3.156-3.417,3.692c0.411-1.25,0.766-2.028,0.889-2.839c0.078-0.483-0.215-1.026-0.341-1.551
				c-0.548,0.246-1.302,0.338-1.604,0.756c-0.486,0.678-0.693,1.569-1.006,2.373c-0.459,1.196-0.913,2.404-1.372,3.603
				c-0.205-0.062-0.417-0.132-0.621-0.199c0.199-1.253,0.404-2.507,0.666-4.137c-3.619,1.042-2.541,4.88-4.865,6.336
				c-0.162-0.771,0.041-1.436,0.021-2.093c-0.016-0.514-0.306-1.011-0.475-1.511c-0.466,0.244-1.157,0.374-1.367,0.76
				c-0.465,0.864-0.685,1.858-1.005,2.797c-0.311,0.915-0.617,1.84-0.929,2.755c-0.296,0.075-0.593,0.145-0.89,0.22
				c1.46-4.987-1.147-6.442-5.312-6.728c1.086-0.534,2.028-0.689,2.937-0.955c0.881-0.256,1.783-0.537,2.562-0.994
				c0.335-0.198,0.387-0.862,0.571-1.317c-0.412-0.122-0.818-0.314-1.238-0.349c-0.733-0.062-1.475-0.018-2.206-0.018
				c-0.053-0.202-0.107-0.413-0.154-0.616c0.451-0.263,0.88-0.644,1.373-0.748c0.971-0.218,2.009-0.154,2.956-0.443
				c0.594-0.186,1.066-0.786,1.592-1.202c-0.46-0.301-0.897-0.642-1.386-0.891c-0.415-0.211-0.883-0.33-1.322-0.483
				c0.02-0.199,0.04-0.397,0.063-0.588c0.611,0,1.218,0.042,1.825-0.01c1.057-0.087,2.145-0.122,3.156-0.39
				c0.448-0.117,0.761-0.758,1.13-1.159c-0.421-0.347-0.792-0.806-1.276-1.002c-0.683-0.274-1.442-0.347-2.174-0.508
				c-0.007-0.26-0.014-0.52-0.022-0.785c0.735-0.108,1.468-0.221,2.197-0.318c1.245-0.17,2.515-0.207,3.701-0.557
				c0.424-0.126,0.619-1.011,0.923-1.547c-0.54-0.221-1.062-0.521-1.625-0.632c-0.583-0.108-1.197-0.019-1.801-0.019
				c-0.061-0.191-0.114-0.383-0.174-0.566c0.707-0.397,1.372-0.931,2.13-1.145c1.276-0.368,2.609-0.509,3.914-0.786
				c1.276-0.275,1.721-1.059,1.419-2.288c-0.965-0.191-1.808-0.357-2.648-0.518c-0.006-0.25-0.018-0.493-0.03-0.736
				c1.033-0.205,2.086-0.357,3.103-0.629c0.596-0.148,1.146-0.476,1.717-0.723c-0.281-0.557-0.544-1.123-0.852-1.664
				c-0.154-0.271-0.383-0.504-0.614-0.8c0.227-0.274,0.351-0.566,0.563-0.648c1.695-0.69,3.402-1.373,5.131-2
				c1.525-0.553,1.732-1.271,0.562-2.384c-0.274-0.26-0.723-0.335-1.162-0.53c1.855-2.003,3.37-3.506,4.69-5.156
				c0.533-0.657,0.642-1.656,0.943-2.501c-0.848,0.343-1.697,0.677-2.543,1.024c-0.061,0.024-0.096,0.086-0.144,0.137
				c-1.597,1.71-3.191,3.406-4.779,5.124c-0.658,0.714-1.155,1.029-1.798-0.114c-0.347-0.628-1.122-1.023-1.705-1.519
				c-0.175,0.732-0.565,1.476-0.5,2.186c0.199,2.272,0.151,4.37-2.38,5.862c-0.242-0.964-0.442-1.744-0.534-2.123
				c0.826-0.645,1.464-0.997,1.865-1.527c0.185-0.249,0.048-1.076-0.201-1.241c-0.355-0.225-1.039-0.253-1.429-0.058
				c-2.688,1.315-3.001,2.252-2.282,5.124c0.293,1.194,0.713,2.585-0.578,3.625c-0.359-0.58-0.447-1.137-0.473-1.694
				c-0.048-1.047-0.05-2.203-1.531-2.013c-1.453,0.196-1.083,1.32-1.021,2.35c0.11,1.644,0.03,3.298,0.03,4.947
				c-0.16-0.003-0.313-0.007-0.472-0.01c-0.384-1.578-0.761-3.151-1.224-5.071c-2.219,2.998-1.275,6.356-2.219,9.293
				c-0.336-0.355-0.429-0.708-0.577-1.035c-0.278-0.587-0.598-1.153-0.9-1.721c-0.437,0.632-1.156,1.231-1.247,1.913
				c-0.192,1.374,0.035,2.804-0.062,4.199c-0.043,0.716-0.405,1.414-0.62,2.122c-0.252-0.04-0.508-0.088-0.765-0.136
				c-0.095-1.018-0.023-2.104-0.35-3.045c-0.212-0.6-1.003-1.008-1.533-1.497c-0.285,0.587-0.841,1.186-0.8,1.747
				c0.109,1.593,0.505,3.162,0.706,4.745c0.099,0.814,0.011,1.651,0.011,2.483c-0.242,0.013-0.485,0.03-0.728,0.048
				c-0.207-0.941-0.271-1.946-0.666-2.806c-0.23-0.508-0.968-0.791-1.475-1.176c-0.258,0.542-0.749,1.092-0.729,1.621
				c0.04,1.038,0.364,2.059,0.54,2.971c-0.876-0.1-1.597-0.181-2.317-0.258c-0.05,0.878-0.12,1.764-0.123,2.649
				c-0.001,0.238,0.203,0.483,0.33,0.717c0.749,1.409-0.005,2.191-1.165,2.959c-0.218-0.305-0.507-0.518-0.494-0.706
				c0.187-1.88-1.556-2.195-2.423-3.241c-2.036-2.476-2.304,0.326-3.324,0.843c-0.148,0.074-0.368,0.007-0.981,0.007
				c0.514-0.778,0.88-1.332,1.247-1.884c0.7-1.051,1.485-2.061,2.051-3.181c0.196-0.38-0.171-1.048-0.279-1.58
				c-0.466,0.142-1.041,0.157-1.366,0.453c-0.697,0.635-1.261,1.42-1.882,2.146c-0.196-0.111-0.4-0.216-0.597-0.319
				c0.239-0.647,0.384-1.348,0.737-1.912c1.027-1.645,2.189-3.195,3.18-4.855c0.233-0.394,0.016-1.058,0.007-1.598
				c-0.616,0.119-1.346,0.075-1.807,0.407c-0.437,0.312-0.573,1.026-0.881,1.537c-0.311,0.517-0.663,1.011-1,1.512
				c-0.242-0.068-0.486-0.144-0.735-0.212c0.12-0.961,0.07-1.988,0.399-2.872c0.518-1.356,1.378-2.583,1.921-3.937
				c0.201-0.509-0.062-1.208-0.113-1.815c-0.537,0.208-1.13,0.332-1.591,0.657c-0.479,0.329-0.815,0.861-1.213,1.299l-0.539-0.293
				c0.142-0.59,0.22-1.204,0.428-1.765c0.565-1.497,1.293-2.947,1.741-4.479c0.184-0.619-0.2-1.401-0.322-2.114
				c-0.562,0.438-1.17,0.836-1.668,1.343c-0.315,0.331-0.458,0.826-0.683,1.25c-0.352-0.699-0.342-1.28-0.137-1.771
				c0.645-1.526,1.458-2.992,2.028-4.547c0.226-0.614-0.001-1.405-0.024-2.112c-0.679,0.389-1.5,0.65-2.003,1.202
				c-0.5,0.553-0.69,1.393-1.182,2.477c-0.892-1.938-0.941-3.199,0.32-4.45c0.737-0.731,1.278-1.703,1.722-2.651
				c0.159-0.336-0.097-1.162-0.412-1.347c-0.311-0.183-1.043,0.037-1.388,0.32c-0.586,0.471-1.016,1.137-1.652,1.896
				c-0.388-0.64-0.668-1.003-0.831-1.411c-0.842-2.104-0.028-3.831,1.073-5.631c0.464-0.752,0.627-2.579,0.274-2.784
				c-1.4-0.812-1.618,0.702-2.133,1.558c-0.055,0.104-0.217,0.134-0.596,0.354c-0.354-0.661-0.827-1.28-1.021-1.977
				c-0.777-2.831-1.411-5.699-2.25-8.51c-0.176-0.583-1.008-0.967-1.536-1.448c-0.201,0.644-0.67,1.327-0.567,1.911
				c0.331,1.833,0.883,3.624,1.333,5.435c0.333,1.365,0.645,2.737,1.008,4.29c-1.3-0.446-2.265-0.776-3.229-1.101
				c-0.127,0.183-0.261,0.364-0.387,0.551c0.357,0.579,0.617,1.248,1.086,1.716c0.891,0.89,2.082,1.536,2.818,2.524
				c0.8,1.069,1.223,2.408,1.802,3.627c-0.188,0.151-0.383,0.301-0.574,0.451c-1.109-0.329-2.213-0.65-3.477-1.028
				c-0.163,0.655-0.298,1.188-0.433,1.717c3.319,0.868,5.944,3.565,5.537,5.557c-1.259-0.903-2.527-1.819-4.034-2.906
				c0.095,4.702,5.426,5.364,5.627,9.533c-0.974-0.248-1.716-0.804-2.55-1.152c-0.476-0.204-1.086-0.071-1.64-0.083
				c0.086,0.592-0.036,1.392,0.299,1.741c0.626,0.646,1.544,1.002,2.297,1.541c1.012,0.73,2.03,1.455,2.926,2.315
				c0.29,0.277,0.183,0.961,0.26,1.463c-0.559,0.015-1.271,0.253-1.646-0.002c-1.145-0.78-2.16-1.747-3.746-3.079
				c0.325,1.423,0.292,2.633,0.86,3.38c0.735,0.954,1.971,1.516,2.971,2.272c0.792,0.605,1.551,1.249,2.322,1.879
				c-0.132,0.177-0.264,0.346-0.395,0.522c-1.021-0.337-2.049-0.669-3.247-1.059c0.142,2.473,2.293,3.018,3.379,4.407
				c0.376,0.478,0.576,1.08,0.858,1.627c-0.577-0.013-1.155,0.026-1.72-0.047c-0.458-0.063-0.898-0.364-1.348-0.366
				c-0.466-0.002-0.94,0.229-1.413,0.354c0.199,0.451,0.271,1.044,0.612,1.316c1.085,0.875,2.314,1.571,3.403,2.452
				c0.625,0.508,1.079,1.235,1.609,1.862c-0.207,0.24-0.405,0.473-0.61,0.706c-1.593-0.928-3.193-1.854-5.087-2.96
				c-0.204,1.381-0.417,2.869-0.704,4.848c-2.325-2.758,0.336-5.278-0.748-7.955c-0.962,1.234-1.691,2.173-2.639,3.384
				c-0.655-2.525,2.078-5.017-0.602-7.268c-0.661,1.384-1.139,2.398-1.624,3.418c-0.203-0.08-0.414-0.167-0.617-0.246
				c0.288-2.09,0.633-4.174,0.816-6.273c0.044-0.485-0.498-1.017-0.767-1.523c-0.434,0.426-0.995,0.778-1.278,1.295
				c-0.38,0.677-0.538,1.474-0.787,2.222c-0.29-0.037-0.581-0.074-0.871-0.112c0-1.875,0.076-3.761-0.039-5.632
				c-0.037-0.58-0.585-1.126-0.901-1.688c-0.333,0.615-0.758,1.193-0.984,1.849c-0.155,0.455-0.028,1.002-0.028,1.504
				c-0.231,0.021-0.461,0.041-0.697,0.061c-0.134-0.665-0.338-1.32-0.384-1.984c-0.067-1.058,0.11-2.145-0.077-3.162
				c-0.164-0.869-0.704-1.669-1.075-2.498c-0.445,0.712-0.89,1.427-1.342,2.136c-0.031,0.048-0.119,0.056-0.478,0.202
				c-0.093-0.67-0.216-1.254-0.24-1.849c-0.051-1.466,0.005-2.932-0.129-4.389c-0.037-0.45-0.556-0.863-0.854-1.296
				c-0.312,0.371-0.781,0.702-0.914,1.135c-0.25,0.812-0.312,1.687-0.452,2.527c-0.248,0.008-0.495,0.016-0.742,0.023
				c-0.125-0.841-0.361-1.687-0.326-2.522c0.039-0.92,0.47-1.834,0.448-2.751c-0.014-0.535-0.576-1.056-0.894-1.583
				c-0.389,0.396-0.87,0.735-1.149,1.202c-0.278,0.465-0.354,1.044-0.646,1.978c-1.665-1.862-3.147-3.269-2.523-5.669
				c0.17-0.644,0.451-1.354,0.317-1.955c-0.113-0.506-0.755-0.897-1.16-1.342c-0.364,0.364-0.829,0.67-1.072,1.104
				c-0.229,0.396-0.218,0.931-0.308,1.398c-1.295-1.327-3.293-2.237-1.925-4.493c0.146-0.237-0.103-0.976-0.375-1.132
				c-0.247-0.144-0.81,0.126-1.158,0.328c-0.237,0.141-0.363,0.488-0.663,0.93c-0.815-0.952-1.42-1.84-2.21-2.507
				c-0.523-0.438-1.312-0.554-1.979-0.814c0.1,0.754-0.017,1.647,0.348,2.224c0.681,1.085,1.646,1.979,2.85,3.356
				c-1.25-0.143-1.978-0.224-2.707-0.308c0.049,1.541,0.509,2.285,2.243,1.888c0.723-0.168,1.626,0.474,2.451,0.746
				c-0.056,0.205-0.117,0.418-0.17,0.623c-0.43,0.054-0.886,0.032-1.281,0.172c-0.496,0.177-0.935,0.479-1.402,0.735
				c0.336,0.443,0.588,1.007,1.024,1.311c0.411,0.286,1.036,0.232,1.525,0.438c1.831,0.771,4.121,0.815,4.978,2.857
				c-0.637,0.772-1.165,1.406-1.688,2.048c0.816,0.367,1.637,0.732,2.447,1.113c0.869,0.407,1.728,0.836,2.591,1.255
				c-0.083,0.184-0.157,0.375-0.232,0.564c-0.314,0-0.641-0.056-0.94,0.013c-0.516,0.111-1.016,0.295-1.529,0.447
				c0.301,0.531,0.483,1.233,0.934,1.536c0.688,0.473,1.569,0.647,2.354,0.991c1.368,0.613,2.718,1.259,4.076,1.896
				c-0.127,0.299-0.254,0.597-0.382,0.899c-1.196-0.373-2.4-0.747-3.629-1.138c-0.289,2.927-0.012,3.269,2.534,3.332
				c0.666,0.019,1.376-0.096,1.993,0.097c0.77,0.237,1.464,0.729,2.195,1.112c-0.094,0.29-0.194,0.579-0.288,0.867
				c-1.593-0.182-3.178-0.366-4.843-0.556c0.95,2.572,2.68,3.337,5.109,3.006c0.833-0.11,1.718,0.13,2.914,0.239
				c-1.281,0.836-2.023,1.329-2.773,1.813c0.857,0.479,1.702,0.972,2.577,1.418c0.285,0.146,0.712,0.067,0.957,0.25
				c0.62,0.487,1.175,1.062,1.758,1.599c-3.889-0.157-4.242-0.2-3.786,4.129c3.42-1.788,4.618-1.733,6.641,0.566
				c-4.173-0.771-7.615-0.627-7.029,5.156c-0.641-1.767-0.764-3.37-1.128-4.916c-0.15-0.639-0.801-1.16-1.225-1.739
				c-0.421,0.556-0.985,1.055-1.219,1.685c-0.209,0.545-0.045,1.229-0.045,1.85c-0.704-0.359-0.995-0.873-1.202-1.418
				c-0.431-1.115-0.711-2.307-1.269-3.345c-0.281-0.53-1.04-0.8-1.579-1.184c-0.125,0.602-0.328,1.194-0.35,1.8
				c-0.021,0.45,0.177,0.911,0.285,1.36l-0.677,0.233c-0.374-1.062-0.757-2.113-1.126-3.175c-0.293-0.871-0.417-1.853-0.917-2.587
				c-0.261-0.387-1.153-0.349-1.754-0.504c-0.079,0.528-0.252,1.067-0.202,1.582c0.082,0.744,0.328,1.471,0.504,2.203
				c-0.17,0.103-0.341,0.202-0.512,0.305c-0.45-0.465-0.986-0.879-1.321-1.419c-0.533-0.841-0.797-1.894-1.429-2.633
				c-0.592-0.683-1.521-1.071-2.304-1.588c-0.077,0.76-0.142,1.529-0.243,2.286c-0.013,0.1-0.175,0.172-0.529,0.499
				c-0.46-0.821-0.9-1.577-1.304-2.352c-0.449-0.891-0.743-1.894-1.341-2.663c-0.303-0.389-1.118-0.383-1.703-0.56
				c-0.052,0.542-0.206,1.097-0.147,1.623c0.088,0.699,0.338,1.376,0.521,2.064l-0.614,0.317c-0.416-0.505-0.851-1.003-1.242-1.525
				c-0.834-1.114-1.563-2.323-2.515-3.323c-0.318-0.336-1.184-0.139-1.802-0.188c0.068,0.535,0.033,1.122,0.238,1.6
				c0.344,0.773,0.845,1.478,1.505,2.595c-2.58-0.05-3.63-1.303-4.55-2.835c-0.434-0.719-0.948-1.458-1.604-1.948
				c-0.359-0.269-1.093-0.023-1.652-0.012c0.088,0.537,0.09,1.107,0.278,1.602c0.223,0.574,0.609,1.082,0.926,1.619
				c-0.217,0.189-0.426,0.379-0.642,0.562c-1.019-0.848-2.051-1.696-3.067-2.562c-0.644-0.55-1.264-1.127-1.903-1.692
				c-0.233,0.871-0.466,1.738-0.714,2.6c-0.032,0.113-0.161,0.205-0.31,0.39c-1.391-0.067-3.028-1.42-4.496,0.875
				c1.351,0.611,2.635,1.189,3.533,1.595v2.627c0.809-0.185,1.634-0.298,2.401-0.568c0.491-0.174,0.864-0.639,1.345-0.86
				c0.698-0.32,1.445-0.53,2.055-0.744c-0.059,1.103-0.099,1.86-0.132,2.626c0.744-0.051,1.515-0.015,2.241-0.174
				c0.496-0.108,0.914-0.543,1.406-0.731c0.662-0.247,1.357-0.396,2.036-0.59c-0.154,0.764-0.571,0.992-0.783,1.349
				c-0.24,0.384-0.525,1.032-0.356,1.292c0.218,0.348,0.857,0.563,1.321,0.571c0.42,0.008,0.835-0.371,1.266-0.521
				c1.288-0.443,2.586-0.855,3.873-1.278c-0.534,1.364-0.911,2.339-1.286,3.312c0.992-0.24,2.058-0.322,2.961-0.757
				c1.627-0.783,3.187-0.859,5.382-0.261c-1.562,0.877-2.652,1.434-3.671,2.109c-0.303,0.201-0.41,0.717-0.603,1.095
				c0.402,0.116,0.855,0.414,1.199,0.316c1.415-0.373,2.775-0.945,4.195-1.293c0.943-0.238,1.952-0.22,2.931-0.312
				c0.032,0.237,0.057,0.482,0.088,0.719c-0.521,0.223-1.125,0.352-1.549,0.701c-0.488,0.401-1.254,1.115-1.145,1.48
				c0.289,1.033,1.077,0.963,2.066,0.567c1.25-0.498,2.635-0.662,3.959-0.972c0.053,0.236,0.107,0.481,0.153,0.718
				c-0.66,0.198-1.352,0.338-1.975,0.625c-0.419,0.199-0.731,0.61-1.099,0.928c0.367,0.341,0.723,0.978,1.086,0.98
				c1.106,0.01,2.215-0.191,3.308-0.384c1.146-0.195,2.383-1.019,3.403,0.696c-0.807,0.298-1.573,0.416-2.121,0.832
				c-0.581,0.431-0.956,1.147-1.414,1.742c0.823,0.208,1.694,0.702,2.454,0.564c0.935-0.171,1.741-0.997,2.677-1.286
				c0.65-0.196,1.434,0.028,2.161,0.067l-0.03,0.574c-1.679,0.666-3.361,1.332-5.042,1.998l0.035,0.636
				c2.709,0.811,5.555-0.75,8.47-0.086c-4.431,1.365-1.375,4.126-1.521,6.369c-0.543-0.382-0.969-0.808-1.224-1.314
				c-0.538-1.072-0.867-2.271-1.525-3.262c-0.309-0.47-1.16-0.588-1.77-0.868c-0.098,0.598-0.364,1.235-0.259,1.8
				c0.138,0.725,0.574,1.406,0.883,2.105c-0.14,0.123-0.276,0.245-0.417,0.369c-0.51-0.387-1.113-0.7-1.509-1.184
				c-0.976-1.177-1.75-2.538-2.82-3.616c-0.479-0.472-1.477-0.432-2.232-0.621c0.215,0.691,0.379,1.408,0.67,2.066
				c0.239,0.548,0.63,1.032,0.958,1.541c-0.182,0.132-0.357,0.263-0.538,0.396c-0.461-0.425-0.97-0.801-1.362-1.282
				c-0.724-0.868-1.271-1.916-2.096-2.666c-0.457-0.413-1.329-0.365-2.012-0.527c0.098,0.647,0.126,1.312,0.33,1.918
				c0.122,0.381,0.508,0.67,0.777,0.993c-0.087,0.139-0.182,0.276-0.269,0.415c-0.591-0.275-1.284-0.436-1.743-0.852
				c-0.795-0.7-1.367-1.657-2.169-2.343c-0.621-0.532-1.458-0.815-2.205-1.209c0.178,0.794,0.269,1.622,0.559,2.377
				c0.196,0.501,0.661,0.897,1.011,1.344c-0.135,0.164-0.27,0.326-0.404,0.489c-0.516-0.347-1.102-0.615-1.517-1.051
				c-0.925-0.964-1.664-2.116-2.665-2.975c-0.41-0.359-1.294-0.166-1.96-0.228c0.154,0.583,0.16,1.281,0.499,1.716
				c0.339,0.425,1.016,0.581,1.542,0.854c-2.41,1.401-3.413-0.123-4.601-1.022c-1.079-0.816-2.084-1.601-3.831-0.806
				c0.794,0.897,1.447,1.631,2.398,2.706c-3.33,0.223-4.566-3.745-8.298-2.994c1.265,1.301,2.169,2.227,3.076,3.154
				c-0.099,0.177-0.205,0.354-0.304,0.529c-0.791-0.329-1.607-0.605-2.373-0.992c-1.301-0.669-2.546-1.479-3.881-2.065
				c-0.417-0.188-1.055,0.135-1.592,0.219c0.173,0.515,0.202,1.216,0.56,1.511c0.836,0.685,1.836,1.18,2.879,1.81
				c-2.54,1.225-4.023,0.86-6.428-1.28c-0.411-0.363-1.097-0.424-1.655-0.62c0.047,0.709-0.047,1.458,0.177,2.111
				c0.181,0.547,0.725,0.974,1.116,1.451c-0.089,0.161-0.171,0.322-0.261,0.485c-0.668-0.073-1.367-0.041-1.998-0.232
				c-1.149-0.339-2.229-0.962-3.394-1.165c-0.567-0.106-1.252,0.461-1.881,0.727c0.393,0.418,0.787,0.834,1.176,1.252
				c0.243,0.252,0.473,0.51,0.797,0.858c-1.184,0.438-2.225,0.706-3.144,1.215c-0.463,0.253-0.686,0.934-1.021,1.419
				c0.576,0.182,1.165,0.545,1.724,0.503c0.886-0.069,1.746-0.397,2.944-0.699c-0.302,0.778-0.578,1.186-0.591,1.602
				c-0.017,0.527,0.188,1.055,0.293,1.579c0.588-0.151,1.319-0.14,1.727-0.492c0.464-0.413,0.577-1.203,0.979-1.724
				c0.645-0.852,1.404-1.616,2.108-2.42c0.187,0.131,0.373,0.262,0.554,0.392c-0.079,0.61-0.157,1.22-0.242,1.824
				c0.107,0.164,0.222,0.33,0.33,0.493c0.833-0.583,1.722-1.095,2.482-1.763c0.786-0.695,1.449-1.533,2.162-2.307
				c0.146,0.14,0.298,0.281,0.449,0.422c-0.447,0.988-0.887,1.975-1.404,3.11c3.333-0.013,4.148-3.473,6.438-4.612
				c0.112,0.158,0.225,0.317,0.344,0.469c-0.459,0.911-0.917,1.814-1.372,2.726c0.152,0.139,0.308,0.277,0.464,0.416
				c0.642-0.273,1.392-0.415,1.892-0.851c0.947-0.833,1.747-1.833,2.609-2.761c0.885-0.962,1.859-1.067,3.168-0.31
				c-0.539,0.454-1.112,0.706-1.28,1.122c-0.35,0.883-0.49,1.848-0.722,2.776c0.909-0.346,1.958-0.51,2.679-1.089
				c0.968-0.783,1.617-1.946,2.534-2.802c0.382-0.354,1.117-0.339,1.692-0.487c0.079,0.195,0.164,0.394,0.242,0.585
				c-0.471,0.438-1.068,0.805-1.376,1.334c-0.283,0.486-0.25,1.156-0.354,1.749c0.655,0.016,1.426,0.251,1.942-0.015
				c0.597-0.313,0.935-1.106,1.456-1.615c0.606-0.592,1.287-1.1,1.932-1.644c0.171,0.169,0.343,0.346,0.515,0.521
				c-0.469,0.538-0.988,1.038-1.384,1.626c-0.375,0.552-0.613,1.196-0.912,1.792c0.792-0.001,1.699,0.239,2.356-0.062
				c0.812-0.373,1.352-1.296,2.141-1.776c0.905-0.562,1.954-0.907,2.94-1.347c0.205,0.309,0.416,0.617,0.62,0.926
				c-0.71,0.559-1.498,1.042-2.096,1.701c-0.312,0.347-0.282,0.995-0.406,1.513c0.563,0.091,1.219,0.408,1.664,0.218
				c0.56-0.235,0.914-0.927,1.415-1.345c0.876-0.729,1.797-1.394,2.704-2.085c0.18,0.223,0.367,0.446,0.554,0.678
				c-0.431,0.427-0.963,0.789-1.266,1.29c-0.401,0.678-0.625,1.454-0.924,2.188c0.777-0.148,1.613-0.161,2.307-0.484
				c0.766-0.354,1.396-1.015,2.107-1.506c0.583-0.406,1.199-0.767,2.262-1.45c-0.862,1.64-1.431,2.707-1.992,3.761
				c1.123-0.328,2.251-0.646,3.365-1c0.988-0.323,1.966-0.691,3.13-1.101c-1.408,1.865-2.507,3.327-3.978,5.286
				c2.429,0.811,4.391,1.462,6.354,2.113c-0.038,0.222-0.071,0.437-0.106,0.659c-0.744,0.059-1.565,0.359-2.207,0.142
				c-1.432-0.491-2.741-1.335-4.163-1.84c-0.702-0.248-1.558-0.078-2.348-0.095c0.328,0.626,0.601,1.284,0.996,1.861
				c0.293,0.425,0.75,0.737,1.129,1.095l-0.375,0.528c-0.765-0.429-1.499-0.911-2.291-1.289c-0.876-0.424-1.779-0.918-2.718-1.064
				c-0.471-0.07-1.049,0.558-1.575,0.872c0.373,0.404,0.687,0.915,1.142,1.193c0.654,0.401,1.416,0.639,2.132,0.949
				c-0.062,0.204-0.123,0.418-0.179,0.623c-0.878-0.066-1.761-0.069-2.625-0.221c-1.377-0.238-2.734-0.658-4.117-0.832
				c-0.477-0.063-1.021,0.383-1.541,0.602c0.366,0.396,0.665,0.895,1.1,1.16c0.694,0.422,1.487,0.685,2.231,1.019l-0.136,0.572
				c-0.665-0.039-1.354,0.02-1.989-0.135c-1.034-0.251-2.015-0.771-3.048-0.911c-0.59-0.075-1.247,0.377-1.878,0.586
				c0.363,0.502,0.654,1.081,1.104,1.494c0.438,0.402,1.034,0.642,1.557,0.948c-0.07,0.236-0.138,0.469-0.209,0.7
				c-0.765-0.133-1.53-0.29-2.299-0.391c-1.302-0.16-2.604-0.355-3.91-0.353c-0.339,0.001-0.683,0.685-1.028,1.055
				c0.394,0.283,0.744,0.651,1.175,0.83c0.575,0.245,1.206,0.358,1.817,0.522c-0.061,0.278-0.113,0.557-0.174,0.835
				c-1.15-0.206-2.298-0.434-3.457-0.611c-0.967-0.146-1.946-0.313-2.917-0.294c-0.315,0.005-0.827,0.548-0.859,0.883
				c-0.027,0.279,0.472,0.715,0.827,0.891c0.664,0.338,1.397,0.535,2.102,0.799c0,0.226,0,0.451-0.001,0.685
				c-0.759,0.162-1.518,0.432-2.284,0.479c-1.067,0.072-2.158-0.149-3.195,0.01c-0.52,0.083-0.949,0.724-1.413,1.11
				c0.418,0.354,0.794,0.78,1.267,1.033c0.392,0.209,0.89,0.222,1.344,0.32l-0.002,0.562c-0.729,0.127-1.455,0.332-2.182,0.374
				c-1.2,0.06-2.415-0.094-3.594,0.072c-0.545,0.08-1.011,0.687-1.52,1.059c0.569,0.338,1.101,0.804,1.721,0.988
				c0.604,0.186,1.291,0.096,1.938,0.125c0.026,0.177,0.052,0.359,0.079,0.544c-0.456,0.17-0.897,0.407-1.37,0.513
				c-1.621,0.367-3.281,0.61-4.872,1.086c-0.549,0.166-0.927,0.892-1.387,1.354c0.57,0.312,1.115,0.81,1.717,0.886
				c0.761,0.098,1.571-0.138,2.583-0.254c-1.26,2.244-1.96,2.656-3.896,2.631c-0.726-0.01-1.495-0.04-2.18,0.167
				c-0.429,0.124-0.932,0.616-1.027,1.03c-0.053,0.262,0.547,0.758,0.95,0.991c0.515,0.308,1.126,0.462,1.686,0.675
				c-1.019,2.511-4.953,0.929-5.35,4.137c0.899,0.207,1.501,0.348,2.216,0.515c-0.541,0.972-1.089,1.737-1.385,2.581
				c-0.131,0.386,0.248,0.942,0.396,1.415c0.397-0.158,0.868-0.227,1.184-0.483c0.476-0.394,0.85-0.921,1.017-1.104
				c1.038,0.525,1.755,0.887,2.473,1.256c0.209-0.841,0.507-1.672,0.606-2.527c0.081-0.645-0.189-1.339-0.127-1.987
				c0.061-0.567,0.367-1.107,0.598-1.732c0.39,0.263,0.548,0.306,0.6,0.414c0.428,0.819,0.829,1.966,1.968,1.256
				c0.422-0.266,0.34-1.435,0.381-2.201c0.052-1.113,0.015-2.233,0.015-3.496c1.078,0.757,1.762,1.24,2.446,1.718
				c0.322-0.829,0.702-1.64,0.943-2.491c0.345-1.188,0.582-2.415,0.865-3.621c0.201,0.03,0.398,0.061,0.6,0.083
				c0.071,0.425,0.104,0.862,0.233,1.27c0.168,0.528,0.412,1.023,0.624,1.529c0.416-0.437,1.07-0.817,1.204-1.328
				c0.331-1.283,0.346-2.645,0.659-3.938c0.181-0.741,0.687-1.409,1.05-2.109c0.215,0.095,0.429,0.182,0.65,0.27
				c0,0.824-0.064,1.657,0.027,2.474c0.038,0.409,0.353,0.787,0.545,1.18c0.404-0.276,1.062-0.477,1.163-0.844
				c0.306-1.075,0.387-2.216,0.565-3.33c0.184-1.104,0.048-2.414,1.894-2.872c-0.094,0.703-0.219,1.186-0.197,1.667
				c0.022,0.521,0.179,1.035,0.274,1.56c0.519-0.229,1.285-0.312,1.501-0.702c0.476-0.84,0.655-1.845,0.976-2.77
				c0.291-0.83,0.621-1.644,0.933-2.46c0.243,0.09,0.484,0.174,0.728,0.258c-0.137,0.678-0.391,1.362-0.373,2.034
				c0.018,0.635,0.321,1.271,0.499,1.903c0.437-0.398,1.045-0.72,1.291-1.213c0.443-0.89,0.649-1.894,0.991-2.831
				c0.292-0.791,0.649-1.567,0.971-2.346l0.674,0.147c0.041,0.869-0.017,1.752,0.152,2.591c0.109,0.518,0.571,0.95,0.875,1.426
				c0.337-0.417,0.824-0.784,0.97-1.262c0.313-1.016,0.372-2.104,0.678-3.116c0.196-0.651,0.643-1.225,0.97-1.826
				c0.192,0.076,0.378,0.158,0.572,0.236c-0.058,0.7-0.207,1.406-0.148,2.093c0.043,0.448,0.392,0.868,0.608,1.3
				c0.407-0.284,1.011-0.482,1.182-0.87c0.439-0.965,0.627-2.043,1.029-3.029c0.263-0.652,0.729-1.219,1.101-1.816
				c0.193,0.085,0.378,0.171,0.571,0.264c-0.113,0.45-0.299,0.901-0.327,1.364c-0.033,0.517,0.083,1.043,0.126,1.572
				c0.583-0.207,1.297-0.268,1.707-0.659c0.387-0.361,0.411-1.09,0.678-1.612c0.508-0.985,1.072-1.939,1.61-2.905
				c0.227,0.105,0.454,0.212,0.688,0.324c-0.165,0.571-0.329,1.15-0.493,1.73c-0.32,1.148-1.22,2.554-0.849,3.388
				c0.051,0.106,0.09,0.203,0.118,0.304c0.01-0.004,0.02-0.008,0.031-0.012c0.588-0.18,1.161-0.398,1.726-0.643
				c0.598-1.402,1.272-2.763,1.657-4.205c0.52-1.938,1.961-1.879,3.417-2.286c-0.707,1.804-1.322,3.383-1.938,4.938
				c1.066-0.567,2.124-1.132,3.213-1.624c0.487-2.263,2.351-3.242,5.618-2.643c4.34,0.793,6.63,2.384,5.29,8.225
				c1.832,3.822,1.592,8.266,1.183,12.412c-0.176,1.833-0.467,3.808-0.591,5.795c0.176,0.035,0.36,0.071,0.543,0.1
				c1.483,0.273,2.979,0.493,4.485,0.691c0.014-0.089,0.034-0.174,0.052-0.254c-0.028,0.08-0.04,0.163-0.045,0.256
				c1.762,0.225,3.524,0.416,5.29,0.6c-0.105-5.66-0.635-11.3-2.496-16.593l-0.349-0.08c-0.032-0.387-0.077-0.775-0.116-1.172
				c-0.092-0.216-0.175-0.437-0.264-0.651c-0.256-0.598-0.2-1.105,0.037-1.5c-0.035-0.573-0.051-1.144-0.014-1.709
				c0.223-3.087,2.109-4.927,5.339-5.59c3.659-0.749,4.992-0.135,6.853,2.912c0.437,0.714,1.255,1.198,1.896,1.788
				c0.258-0.185,0.523-0.366,0.782-0.551c-0.435-1.25-0.87-2.501-1.306-3.751c0.164-0.17,0.328-0.349,0.49-0.525
				c0.779,0.604,1.794,1.063,2.28,1.845c0.577,0.923,0.815,2.113,0.995,3.221c0.284,1.771,1.282,1.81,2.641,1.598
				c-0.351-1.666-0.643-3.039-0.935-4.41c0.148-0.084,0.297-0.175,0.446-0.257c0.348,0.316,0.844,0.562,1.023,0.951
				c0.504,1.087,0.777,2.29,1.333,3.34c0.279,0.527,0.978,0.836,1.484,1.244c0.148-0.585,0.397-1.165,0.416-1.745
				c0.021-0.637-0.178-1.272-0.279-1.913c0.271-0.063,0.541-0.134,0.811-0.196c0.375,1.248,0.773,2.49,1.126,3.744
				c0.389,1.37,0.635,2.85,2.868,2.981c-0.337-1.527-0.626-2.819-0.916-4.12c0.199-0.105,0.391-0.212,0.589-0.325
				c0.408,0.621,0.976,1.191,1.178,1.871c0.23,0.745,0.033,1.6,0.181,2.384c0.15,0.786,0.412,1.582,0.802,2.275
				c0.114,0.206,1.213,0.145,1.224,0.071c0.177-0.791,0.244-1.61,0.295-2.432c0.038-0.525,0.007-1.054,0.007-1.58
				c0.83,0.228,1.418,0.581,1.545,1.05c0.392,1.456,0.522,2.98,0.935,4.421c0.185,0.65,0.796,1.175,1.213,1.757
				c0.32-0.608,0.782-1.184,0.931-1.826c0.141-0.612-0.051-1.297-0.089-1.946c0.665,0.229,1.008,0.521,1.052,0.851
				c0.135,1.049,0.026,2.148,0.277,3.164c0.143,0.576,0.808,1.022,1.239,1.524c0.356-0.558,0.825-1.073,1.02-1.683
				c0.152-0.474-0.044-1.064-0.08-1.602c0.254-0.038,0.507-0.074,0.761-0.106c1.33,2.117,0.441,4.641,0.777,7.255
				c0.999-0.118,1.962-0.229,2.882-0.337c-0.215-1.382-0.373-2.412-0.523-3.437c0.217-0.079,0.435-0.15,0.66-0.23
				c0.39,0.625,0.962,1.202,1.13,1.877c0.214,0.883-0.085,1.916,0.197,2.766c0.332,0.992,1.048,1.854,1.595,2.774
				c0.496-0.671,0.998-1.341,1.659-2.236c0.079,0.567,0.207,1.122,0.229,1.681c0.028,0.73-0.228,1.533-0.004,2.176
				c0.284,0.807,0.939,1.494,1.427,2.224c0.476-0.544,0.937-1.095,1.428-1.626c0.065-0.076,0.242-0.056,0.78-0.15v6.409
				c0.085-0.049-0.295,0.168-0.768,0.437c0.416,0.729,0.782,1.373,1.103,1.933c0.627-1.593,1.205-3.04,1.782-4.495
				c0.257,0.038,0.514,0.076,0.771,0.108c0.05,0.909,0.161,1.816,0.129,2.723c-0.028,0.726-0.465,1.498-0.299,2.146
				c0.161,0.648,0.854,1.161,1.306,1.735c0.286-0.496,0.563-1.005,0.86-1.494c0.123-0.207,0.287-0.383,0.506-0.679
				c0.712,0.772,1.251,1.55,1.974,2.073c0.385,0.277,1.081,0.117,1.636,0.157c-0.032-0.545,0.079-1.155-0.132-1.624
				c-0.356-0.803-0.914-1.521-1.286-2.115c0.92-0.462,1.621-0.82,2.321-1.172c-0.652-0.586-1.252-1.255-1.981-1.73
				c-0.659-0.429-1.489-0.581-2.187-0.969c-0.409-0.221-0.708-0.651-1.052-0.991c0.42-0.351,0.803-0.857,1.289-1.015
				c0.443-0.14,1.013,0.18,1.516,0.161c0.396-0.02,0.774-0.268,1.157-0.409c-0.188-0.309-0.306-0.816-0.567-0.904
				c-1.617-0.558-3.307-0.924-4.897-1.558c-0.871-0.345-1.594-1.081-2.389-1.64c0.823-0.199,1.638-0.396,2.458-0.58
				c0.119-0.028,0.283,0.093,0.388,0.057c0.556-0.216,1.1-0.456,1.647-0.686c-0.433-0.496-0.777-1.255-1.312-1.425
				c-1.315-0.41-2.724-0.509-4.073-0.813c-0.573-0.128-1.101-0.455-1.648-0.689c0.496-0.504,0.869-0.448,1.129-0.596
				c0.546-0.313,1.03-0.729,1.544-1.101c-0.476-0.449-0.879-1.099-1.44-1.297c-0.724-0.248-1.58-0.074-2.363-0.186
				c-1.216-0.167-2.426-0.419-3.635-0.642c0.021-0.215,0.043-0.436,0.063-0.65c0.559-0.098,1.167-0.083,1.667-0.312
				c0.452-0.211,0.789-0.692,1.176-1.051c-0.412-0.378-0.767-0.874-1.253-1.086c-0.373-0.158-0.906,0.104-1.366,0.071
				c-1.564-0.1-3.125-0.248-4.681-0.378c-0.002-0.289-0.005-0.576-0.008-0.864c1.264-0.239,2.533-0.486,4.188-0.794
				c-2.256-3.541-5.542-0.252-8.353-2.018c1.166-0.221,1.844-0.253,2.435-0.495c0.481-0.202,0.85-0.66,1.268-0.998
				c-0.393-0.307-0.776-0.842-1.191-0.873c-1.178-0.083-2.376,0.048-3.565,0.067c-1,0.017-2.002,0.001-2.995,0.001
				c-0.001-0.228-0.002-0.455-0.004-0.69c0.351-0.091,0.711-0.167,1.059-0.283c0.648-0.209,1.341-0.359,1.908-0.708
				c0.155-0.101,0.044-1.117-0.163-1.205c-0.685-0.283-1.48-0.506-2.204-0.436c-0.98,0.104-1.92,0.537-2.896,0.746
				c-0.477,0.102-1.002,0.019-1.502,0.019c-0.021-0.176-0.042-0.352-0.063-0.521c1.207-0.489,2.406-0.972,4.071-1.651
				c-3.259-2.289-6.293,0.906-9.473-0.914c0.957-0.453,1.572-0.632,2.044-0.999c0.4-0.303,0.63-0.812,0.936-1.232
				c-0.499-0.245-1.041-0.76-1.479-0.685c-1.03,0.185-2.01,0.657-3.021,0.995c-0.554,0.186-1.124,0.319-1.686,0.47
				c-0.081-0.152-0.169-0.312-0.25-0.472c0.815-0.455,1.63-0.911,2.446-1.358l-0.721-1.165c-0.954,0.177-1.919,0.287-2.844,0.537
				c-1.261,0.347-2.473,0.873-3.746,1.15c-0.378,0.08-1.017-0.315-1.282-0.674c-0.142-0.195,0.176-0.839,0.42-1.185
				c1.293-1.794,0.994-2.407-1.235-2.809c-0.916-0.16-1.778-0.652-2.668-0.992c0.084-0.322,0.161-0.649,0.237-0.975
				c0.958,0.113,1.966,0.051,2.841,0.375c0.911,0.333,1.649,1.134,2.55,1.547c0.503,0.23,1.176,0.1,1.776,0.134
				c-0.146-0.572-0.174-1.222-0.474-1.697c-0.333-0.535-0.917-0.916-1.395-1.366c0.152-0.222,0.305-0.438,0.458-0.658
				c1.047,0.596,2.053,1.261,3.146,1.757c0.673,0.305,1.464,0.333,2.204,0.489c-0.139-0.704-0.286-1.405-0.408-2.109
				c-0.02-0.111,0.063-0.24,0.212-0.714c1.305,0.849,2.497,1.705,3.78,2.408c0.474,0.258,1.152,0.144,1.731,0.202
				c-0.182-0.597-0.238-1.293-0.589-1.759c-0.482-0.633-1.195-1.091-1.802-1.62l0.38-0.669c0.695,0.36,1.49,0.614,2.063,1.114
				c0.943,0.833,1.689,1.891,2.634,2.721c0.361,0.314,1.044,0.259,1.578,0.368c-0.057-0.542,0.041-1.162-0.196-1.614
				c-0.433-0.841-1.049-1.58-1.59-2.369c0.135-0.173,0.271-0.353,0.407-0.533c0.693,0.351,1.459,0.6,2.062,1.07
				c0.893,0.691,1.581,1.663,2.51,2.271c0.604,0.396,1.482,0.371,2.243,0.526c0.082-0.216,0.17-0.433,0.252-0.654
				c-0.841-1.068-1.683-2.142-2.523-3.213l0.553-0.52c0.96,0.827,1.918,1.658,2.881,2.48c1.011,0.864,1.939,2.151,3.535,0.794
				c-0.64-0.969-1.218-1.835-1.796-2.707c0.153-0.143,0.306-0.287,0.46-0.43c0.562,0.364,1.227,0.637,1.663,1.122
				c0.751,0.833,1.368,1.796,2.039,2.702c1.024,1.387,1.998,1.329,2.94-0.085c-0.848-1.07-1.678-2.122-2.506-3.167
				c0.135-0.179,0.27-0.356,0.405-0.527c0.629,0.217,1.38,0.292,1.857,0.691c0.903,0.763,1.57,1.818,2.485,2.574
				c1.546,1.293,3.201,2.454,4.808,3.666c0.089-0.119,0.172-0.237,0.255-0.362c-1.234-1.653-2.468-3.308-3.702-4.961
				c0.259-0.2,0.517-0.394,0.776-0.594c1.803,2.119,3.6,4.238,5.481,6.459c2.584-1.781-1.234-3.176-0.68-5.509
				c2.609,2.83,4.323,6.035,7.445,7.721c-0.459-1.085-1.138-1.998-1.61-3.002c-0.251-0.543-0.146-1.254-0.198-1.895
				c0.544,0.384,1.213,0.672,1.601,1.179c0.608,0.78,0.996,1.727,1.52,2.576c0.944,1.53,2.069,1.742,3.149,0.671
				c-0.572-0.523-1.12-1.015-1.663-1.512c0.16-0.281,0.319-0.563,0.479-0.844C229.077,128.259,229.776,128.3,230.468,128.247z
				 M141.698,105.619c1.896,0.063,3.791,0.283,5.679,0.545c0.231,0.034,0.393,0.584,0.59,0.896
				c-0.097,0.155-0.186,0.303-0.275,0.457c-0.76-0.151-1.514-0.354-2.274-0.438c-0.707-0.072-1.43-0.011-2.093-0.011v5.57
				c-0.168,0.055-0.337,0.115-0.499,0.169c-0.361-0.702-0.825-1.371-1.05-2.111c-0.345-1.133-0.639-2.312-0.745-3.482
				C140.99,106.673,141.475,105.611,141.698,105.619z M147.592,111.359c-0.279,1.041-0.78,2.026-1.193,3.04
				c-0.175,0.046-0.352,0.085-0.52,0.131c0-1.412-0.05-2.826,0.054-4.229c0.014-0.174,0.822-0.299,1.264-0.44
				C147.344,110.362,147.707,110.923,147.592,111.359z M142.417,120.159c0.785,0.29,1.612,0.513,2.305,0.948
				c0.147,0.09-0.202,0.97-0.32,1.483c-0.824-0.425-1.648-0.852-2.472-1.276C142.095,120.927,142.26,120.543,142.417,120.159z
				 M141.1,117.958c0.014-0.25,0.028-0.499,0.042-0.748c1.111-0.72,2.202-0.757,3.266,0.176c-0.026,0.252-0.047,0.498-0.071,0.743
				C143.253,118.074,142.176,118.017,141.1,117.958z M136.429,127.827c3.649-3.148,5.317-3.643,6.966-1.817
				C140.923,126.227,139.234,128.474,136.429,127.827z M144.639,130.392c-0.516-0.111-0.908-0.772-1.358-1.183
				c0.393-0.391,0.722-0.927,1.197-1.133c2.278-1.013,4.451,0.188,6.034,3.289C148.465,131.04,146.533,130.808,144.639,130.392z
				 M151.584,116.604c-0.59-0.062-1.204,0.085-1.8,0.146c0.103,0.595,0.148,1.201,0.328,1.772c0.132,0.425,0.434,0.801,0.657,1.195
				c-0.231,0.149-0.461,0.301-0.697,0.445c-0.476-0.772-1.196-1.499-1.373-2.339c-0.205-0.999-0.03-2.111,0.152-3.137
				c0.071-0.372,0.638-0.892,1.01-0.924c1.445-0.118,3.195,1.481,3.623,3.395C152.749,116.937,152.175,116.668,151.584,116.604z
				 M156.859,107.91c-1.096,0.074-2.197,0.146-3.587,0.246c0.23,0.922,0.418,1.694,0.604,2.459c-0.173,0.09-0.34,0.187-0.514,0.275
				c-0.341-0.705-1.025-1.451-0.933-2.103c0.143-1.053,0.731-2.857,1.232-2.891c1.125-0.073,2.301,0.748,3.461,1.198
				C157.032,107.365,156.944,107.634,156.859,107.91z M166.604,114.086l0.619,0.038c0.076,1.059,0.145,2.124,0.247,3.649
				c-1.068-0.589-1.663-0.916-2.435-1.343C165.681,115.46,166.143,114.773,166.604,114.086z M163.076,105.562
				c-0.399,1.021-1.001,1.955-1.523,2.922c-0.397-0.463-1.216-1.075-1.118-1.376c0.338-0.993,1.003-1.869,1.813-3.258
				C162.713,104.764,163.186,105.278,163.076,105.562z M163.335,128.481c0.951-1.068,1.907-2.13,2.861-3.191
				c0.261,0.225,0.522,0.449,0.783,0.681c-0.933,1.081-1.873,2.162-2.807,3.244L163.335,128.481z M172.76,130.669
				c-2.405,0.47-4.812,0.932-7.452,1.447C166.69,127.918,169.171,127.356,172.76,130.669z M169.485,110.702
				c0.198-0.197,0.971-0.221,1.042-0.092c0.202,0.391,0.267,0.904,0.248,1.358c-0.041,0.999-0.163,1.996-0.249,2.994
				c-0.173,0.043-0.347,0.08-0.52,0.123c-0.446-0.982-1.003-1.937-1.276-2.968C168.63,111.727,169.12,111.089,169.485,110.702z
				 M171.51,123.42c-0.09-0.555-0.178-1.109-0.273-1.664h2.455c0.055,0.319,0.117,0.634,0.179,0.952
				C173.081,122.946,172.298,123.186,171.51,123.42z M173.855,113.973c-0.878-1.992-4.323-5.678-5.871-6.073
				c1.119-0.638,1.79-1.276,2.54-1.382c1.235-0.168,2.533-0.109,3.771,0.094c0.514,0.079,1.376,0.871,1.309,1.165
				C175.19,109.703,174.565,111.572,173.855,113.973z M178.03,120.813c-0.329-0.116-0.657-0.233-0.979-0.353
				c0.442-1.022,1.304-2.1,1.204-3.067c-0.082-0.804-1.307-1.49-2.198-2.41c1.379-0.326,3.59,0.629,3.553,1.016
				C179.456,117.642,178.615,119.211,178.03,120.813z"/>
			<path fill-rule="evenodd" clip-rule="evenodd" d="M207.389,159.818c1.52,1.612,3.04,3.225,4.559,4.845
				c-0.188,0.188-0.368,0.37-0.556,0.558c-1.506-1.611-3.012-3.215-4.521-4.824C207.04,160.204,207.214,160.007,207.389,159.818z"/>
		</g>
		<path d="M139.989,320.522c0,0-15.242,21.919-55.071,21.919c-39.835,0-30.348-16.176-27.275-17.117
			c3.075-0.926,6.15-0.659,7.358,1.882c1.2,2.539,1.867,4.27,0,4.803c-1.875,0.533-3.076-1.868-3.076-1.868
			s-3.342,5.083,2.401,5.209c5.75,0.142,7.021-7.005,4.95-9.084c-2.071-2.077-7.084-6.01-12.967-2.809
			c-5.884,3.217-6.55,11.233-0.267,16.442c6.284,5.209,49.594,9.085,68.438-2.401c18.851-11.499,18.851-12.44,20.719-15.516
			c1.874-3.074,2.674-14.294,1.606-17.776c-1.067-3.467-5.483-9.885-5.483-11.491c0-1.608,0.47-4.276,4.781-4.276s4.978,0,8.32,0
			c3.341,0,5.083,3.201,5.083,7.891c0,4.677-2.141,15.764-1.341,20.372c0.808,4.622,8.825,29.082,44.652,29.082
			c35.819,0,44.245-6.417,44.245-14.842c0-8.424-9.759-15.234-14.44-7.343c-4.677,7.877,6.415,12.159,8.557,7.343
			c1.067-2.275-0.934-2.935-2.275-2.008c-1.333,0.94-5.476-1.067-2.801-4.143c1.467-1.729,7.884,0.675,7.75,6.417
			c-0.133,5.758-5.798,10.826-35.56,10.826c-29.759,0-41.436-8.41-44.244-22.718c-1.334-6.553-1.869-14.31-1.334-16.036
			c0.533-1.741,0.667-16.051-1.075-21.133c-1.733-5.068-3.075-10.152-1.467-13.227c1.6-3.075,2.674-10.56,1.2-14.042
			c-1.467-3.468-1.067-6.151,0.4-10.419c1.475-4.282,0-11.893-0.4-14.841c-0.399-2.935,0-6.544,0.534-8.285
			c0.541-1.74,0.408-7.618-0.534-10.893c-0.934-3.275-1.067-5.55-0.266-7.425c0.8-1.868,2.408-7.218,1.208-11.094
			c-1.208-3.875-0.541-6.149,0-7.349c0.533-1.208,0.533-8.96,0.533-8.96l0.534-0.533c0,0,3.875,2.542,8.417,2.542
			c4.55,0,11.901-6.551,11.901-18.718c0-3.209-2.408-5.612-2.408-5.612s1.186-6.067-0.769-8.021
			c-1.49-1.484-3.107,1.339-3.107,1.339s-1.601-0.464-2.675-1.772c-1.067-1.302-2.809-3.442-2.809-3.442s-5.609,0.534-14.567,7.351
			c-2.941-5.75-7.084-8.953-14.968-8.953c-7.892,0-13.908,6.953-13.908,10.828c0,3.876-0.134,19.11,1.073,23.126
			c1.201,4.009,6.817,10.025,10.426,10.025c2.409,0,3.875-0.94,3.875-0.94l1.335,0.674c0,0,0.272,20.717,0.272,23.523
			c0,2.804-1.607,4.678-1.741,8.421c-0.133,3.749,0.399,14.968,0.133,18.042c-0.267,3.075-1.734,3.342-1.734,8.425
			c0,5.084,0,0.675,0,3.608s2.135,10.025,2.668,15.108c0.539,5.081-2.134,17.368-4.542,24.586
			c-2.408,7.224-2.008,12.975-0.267,18.857C141.723,309.959,141.589,318.371,139.989,320.522z"/>
	</g>
	<path fill="#D80E18" d="M142.397,139.792c-2.226,0-4.301,0.556-6.136,1.432l-1.177,0.631l0.426,3.381c0,0-3.005,2.209-3.005,3.011
		c0,0.801,0,6.818,0,6.818s3.707-5.114,4.711-5.616c1.004-0.5,1.601,2.007,0.898,2.709c-0.703,0.702-3.802,4.009-2.656,6.011
		c0.55,0.807,2.362,0.301,2.961-0.401c0.2-0.298,1.105,0.505,0,2.507c-1.106,2.009-2.11,7.42-2.11,12.231
		c0,4.815,0.702,7.321,4.515,7.321s6.115-4.613,6.915-9.827c0.801-5.211-0.4-8.519,0-10.827c0.401-2.304,1.379-3.708,1.596-5.611
		c0.209-1.908-0.012-2.709,0-3.312c0.013-0.597,0.665-2.401,0.665-2.401s2.655-0.402,3.455,2.604c0.204,0.702-0.6,1.004-0.702,2.303
		c-0.098,1.306-1.299,5.838-0.196,8.083c1.103,2.244,1.6,3.951,3.208,3.951c1.601,0,1.601,0,1.601,0s1.404-11.332,0-16.043
		C154.424,142.996,150.281,139.792,142.397,139.792z"/>
	<path fill="#D80E18" d="M161.374,149.848c2.008,0.604,2.106,5.715,1.306,8.424c-0.8,2.703-0.665,9.822,0.472,11.228
		c1.129,1.403,4.433,5.564,8.55,4.31c4.613-1.403,9.22-7.013,8.822-11.731c-0.397-4.711-2.005-8.72-5.312-12.025
		c-3.307-3.307-6.729-5.392-7.275-7.507l0,0c-2.164,0.854-5.144,2.329-8.755,4.874C159.182,147.425,159.376,149.252,161.374,149.848
		z"/>
	<path fill="#4DA92C" d="M160.075,160.674c-0.204-2.002-0.579-4.712-0.894-5.512c-0.314-0.8-1.189-0.604-1.189-0.604l-0.002,0.011
		c0.035,4.874-0.625,10.219-0.625,10.219s-0.005,0-1.2,0c0,0,0.243,1.501,1.827,1.403c1.578-0.099,2.083,0.006,2.083,0.006
		S160.271,162.681,160.075,160.674z"/>
	<path fill="#4DA92C" d="M154.76,176.013c0.319-1.896,2.328-2.905,4.421,0.507c0.69,1.299,0.11,5.813,0,6.312
		c-0.11,0.505-0.871,3.608-2.042,4.015c-1.178,0.401-5.489-2.611-5.587-3.812s2.907-1.572,3.108-2.39
		C154.859,179.827,154.458,177.819,154.76,176.013z"/>
	<path fill="#4DA92C" d="M147.739,197.167c-1.133,3.575,3.209,7.821,6.017,7.821s4.711-2.507,4.809-3.107
		c0.105-0.6,0.604-5.816,0-6.819c-0.597-0.998-1.761-3.006-3.036-3.006S149.045,193.06,147.739,197.167z"/>
	<path fill="#4DA92C" d="M154.058,213.308c3.457,0.691,4.799,0,4.799,0s1.814,1.91,1.618,5.217
		c-0.204,3.307-3.904,7.217-7.266,7.021c-3.363-0.206-6.572-3.91-6.27-8.529c0.302-4.606,3.06-6.575,3.06-6.575
		S152.439,212.991,154.058,213.308z"/>
	<path fill="#4DA92C" d="M145.437,234.258c-1.039,3.704,3.51,12.034,9.223,12.034c3.47-0.499,4.776-2.069,5.013-2.577
		c0.234-0.499-0.265-4.745-0.816-6.135c-0.288-0.734-0.364-2.624,0-3.322c0.346-0.636-0.586-2.598-2.496-2.796
		C154.458,231.253,146.841,229.245,145.437,234.258z"/>
	<path fill="#4DA92C" d="M147.56,258.22c-0.153,2.107,6.294,5.525,7.1,5.525c0.802,0,3.105-1.404,3.105-5.013
		s-1.902-4.515-2.506-4.515C154.66,254.218,147.675,256.62,147.56,258.22z"/>
	<path fill="#4DA92C" d="M146.104,277.577c0.354,2.892,4.859,4.213,6.558,4.408c1.699,0.196,5.104-0.996,5.104-0.996
		s1.208-4.122-1.404-5.314C153.756,274.465,145.766,274.874,146.104,277.577z"/>
	<path fill-rule="evenodd" clip-rule="evenodd" d="M39.631,246.35c1.274-1.447,2.429-3.012,3.841-4.308
		c3.099-2.839,4.411-2.828,7.754-0.308c2.263,1.703,4.708,0.91,5.046-1.875c0.483-3.903,0.615-7.84,0.891-11.765
		c0.025-0.335-0.116-0.753,0.034-0.996c0.547-0.903,1.182-1.749,1.788-2.602c0.178,0.839,0.511,1.676,0.522,2.511
		c0.056,4.148-0.055,8.292,0.042,12.431c0.078,3.676,5.301,6.47,8.463,4.579c0.403-0.238,0.797-0.706,0.896-1.137
		c0.052-0.218-0.557-0.638-0.927-0.864c-0.453-0.278-1.007-0.396-1.442-0.686c-1.355-0.886-1.54-2.18-0.217-3.103
		c2.848-1.974,5.758-3.879,8.803-5.51c0.843-0.447,2.431-0.18,3.373,0.328c4.749,2.591,9.729,4.42,15.143,4.76
		c8.811,0.55,16.201-2.566,22.13-9.076c1.774-1.95,2.634-2.037,4.152,0.088c1.121,1.565,1.245,3.265,0.201,4.873
		c-1.029,1.582-2.583,1.191-4.164,0.968c-1.006-0.138-2.244-0.005-3.126,0.471c-5.086,2.775-10.381,4.844-16.19,5.486
		c-1.445,0.152-2.87,0.646-4.321,0.71c-4.679,0.192-8.888-1.286-12.842-3.736c-1.323-0.821-2.864-1.445-4.378-1.686
		c-0.713-0.121-1.601,0.883-2.418,1.396c0.464,0.567,0.838,1.238,1.401,1.683c1.653,1.294,1.844,2.224,0.77,4.123
		c-3.241,5.713-11.926,8.084-17.763,2.663c-1.282-1.199-2.137-1.213-3.36-0.082c-1.584,1.461-3.444,0.947-5.101,0.23
		c-2.77-1.213-5.286-1.11-7.675,0.823c-0.17,0.135-0.484,0.105-0.731,0.16C40.025,246.722,39.824,246.529,39.631,246.35z"/>
	<path fill-rule="evenodd" clip-rule="evenodd" d="M198.602,252.114c0.087-2.838,4.319-6.344,7.012-5.794
		c2.15,0.447,4.285,1.017,6.455,1.294c3.293,0.418,5.063-1.256,5.098-4.531c0.015-2.147,0.219-4.288,0.102-6.412
		c-0.174-3.114,1.825-4.54,4.126-5.79c3.452-1.894,6.915-3.755,10.389-5.604c0.458-0.246,0.979-0.478,1.489-0.526
		c0.326-0.039,0.848,0.147,0.994,0.4c0.149,0.259,0.077,0.852-0.13,1.064c-0.6,0.62-1.261,1.213-1.998,1.646
		c-3.383,2.027-6.774,4.027-10.206,5.971c-1.395,0.789-2.251,1.808-2.265,3.48c-0.021,1.601-0.133,3.2-0.249,4.794
		c-0.462,6.405-6.783,10.804-12.969,8.814c-2.666-0.865-4.917-1.031-6.946,1.149c-0.117,0.134-0.357,0.176-0.55,0.197
		C198.844,252.281,198.72,252.169,198.602,252.114z"/>
	<path fill-rule="evenodd" clip-rule="evenodd" d="M242.25,226.016c0.087,0.544,0.23,1.086,0.245,1.633
		c0.11,4.344,0.182,8.671,0.298,13.005c0.024,0.859,0.102,1.739,0.285,2.579c0.665,2.964,3.327,4.452,6.129,3.354
		c0.47-0.178,0.845-1.062,0.934-1.67c0.249-1.783,1.231-3.292,2.851-3.403c1.211-0.069,2.714,0.896,3.676,1.827
		c0.505,0.485,0.578,2.3,0.096,2.804c-2.388,2.532-5.068,4.754-8.75,5.142c-5.585,0.604-7.552-3.028-7.603-6.812
		c-0.08-5.213,0.061-10.413,0.142-15.613c0.006-0.517,0.143-1.062,0.343-1.553c0.214-0.497,0.572-0.927,0.869-1.4
		C241.928,225.945,242.089,225.98,242.25,226.016z"/>
	<path fill-rule="evenodd" clip-rule="evenodd" d="M236.456,240.452c1.359,2.273-0.228,6.642-3.171,9.594
		c-2.942,2.935-8.089,4.542-10.763,2.989C229.616,251.428,233.955,247.008,236.456,240.452z"/>
	<path fill-rule="evenodd" clip-rule="evenodd" d="M49.086,230.902c-0.643-0.328-1.074-0.43-1.325-0.697
		c-0.897-0.98-1.709-0.768-2.54,0.063c-0.956,0.948-1.921,0.64-2.492-0.299c-0.278-0.454-0.13-1.432,0.191-1.943
		c0.614-0.991,1.581-1.575,2.616-0.488c0.932,0.954,1.645,1.024,2.652,0.035c0.404-0.383,1.466-0.495,2.003-0.249
		c0.479,0.233,1.062,1.356,0.888,1.652C50.612,229.764,49.749,230.302,49.086,230.902z"/>
	<path fill-rule="evenodd" clip-rule="evenodd" d="M205.612,238.92c-0.71-0.126-1.155-0.087-1.471-0.265
		c-1.156-0.681-1.868-0.229-2.414,0.812c-0.625,1.188-1.636,1.187-2.467,0.451c-0.4-0.356-0.542-1.325-0.389-1.912
		c0.292-1.121,1.039-1.971,2.352-1.251c1.174,0.646,1.874,0.504,2.547-0.74c0.27-0.492,1.249-0.915,1.838-0.834
		c0.522,0.072,1.413,0.983,1.333,1.312C206.728,237.375,206.062,238.147,205.612,238.92z"/>
	<path fill-rule="evenodd" clip-rule="evenodd" d="M78.46,251.511c-1.285,0.837-2.147,1.792-3.092,1.891
		c-0.614,0.06-1.343-1.136-2.021-1.771c0.841-0.684,1.6-1.745,2.544-1.945C76.491,249.561,77.363,250.681,78.46,251.511z"/>
</g>
</svg>
