<svg xmlns="http://www.w3.org/2000/svg" width="1536.908" height="685.472"><g opacity=".5" fill="#666"><polygon points="790.715,539.007 985.402,377.543 1035.889,377.472 848.501,539.781"/><polygon points="866.098,538.9 1060.787,377.438 1111.272,377.365 923.885,539.674"/><polygon points="939.879,538.797 1134.567,377.334 1185.053,377.262 997.666,539.571"/><polygon points="1010.451,538.698 1205.14,377.234 1255.625,377.163 1068.238,539.473"/><polygon points="1092.251,538.584 1286.938,377.119 1337.425,377.049 1150.037,539.357"/><polygon points="1161.22,538.487 1355.907,377.022 1406.392,376.952 1219.006,539.261"/><polygon points="1236.604,538.381 1431.29,376.918 1481.775,376.848 1294.39,539.156"/><polygon points="266.234,539.007 460.923,377.543 511.408,377.472 324.021,539.781"/><polygon points="341.619,538.9 536.306,377.438 586.792,377.365 399.405,539.674"/><polygon points="415.398,538.797 610.087,377.334 660.572,377.262 473.185,539.571"/><polygon points="485.97,538.698 680.659,377.234 731.144,377.163 543.758,539.473"/><polygon points="567.77,538.584 762.459,377.119 812.944,377.049 625.557,539.357"/><polygon points="636.739,538.487 831.427,377.022 881.911,376.952 694.525,539.261"/><polygon points="712.123,538.381 906.809,376.918 957.295,376.848 769.909,539.156"/><polygon points="43.29,538.584 237.978,377.119 288.464,377.049 101.077,539.357"/><polygon points="112.259,538.487 306.946,377.022 357.43,376.952 170.045,539.261"/><polygon points="187.642,538.381 382.329,376.918 432.814,376.848 245.428,539.156"/><path d="M1320.074 586.921l-12.837-5.597 7.205-8.831-5.62-4.804-13.632 1.756-4.024-9.484-11.227.016-1.586 12.7-12.043-9.674-6.405 7.192 10.438 8.792-14.434 1.607.016 11.493 14.436-.02-9.611 8.702 4.826 10.351 14.429-4.896.021 14.701 8.02-.013 8.001-13.376 4.019 6.744 10.421-3.925-3.224-10.321 12.832-.017-.021-13.096zm-28.058 6.455l-12.033-3.19-.012-8.02 12.022-4.027 3.224 9.619-3.201 5.618z"/><path d="M90.34 578.269l-12.705-5.597 7.272-8.832-5.587-4.803-13.614 1.764-4.007-9.484-11.228.016-1.585 12.7-12.043-9.682-6.406 7.192 10.305 8.792-14.567 1.607.016 11.503 14.703-.021-9.61 8.699 4.692 10.345 14.294-4.896.021 14.711 8.288-.013 8-13.378 4.02 6.734 10.419-3.914-3.222-10.32 12.563-.018-.019-13.105zm-27.925 6.455l-12.169-3.19-.011-8.02 12.158-4.027 3.222 9.618-3.2 5.619z"/><polygon points="1307.191,548.176 1332.884,569.525 1510.165,414.232 1493.026,391.803"/><polygon points="1332.101,584.764 1324.786,609.016 1501.137,457.844 1510.733,439.359"/></g><polygon opacity=".75" fill="#006EBE" points="819.05,632.498 819.05,241.143 982.945,139.143 1031.991,335.948 1053.702,335.948 1031.991,58.992 634.952,53.021 428.218,173.017 466.469,620.603"/><polygon opacity=".75" fill="#006EBE" points="442.653,185.03 789.056,208.977 1031.991,65.529 634.952,52.977 428.218,172.994"/><polygon opacity=".5" fill="#ff0" points="333.289,438.731 340.234,450.948 328.948,450.948 324.608,456.028 305.51,459.179 297.696,463.322 273.387,470.685 267.312,478.948 253.424,478.948 243.006,470.667 223.04,478.415 215.227,470.948 205.676,470.948 182.237,458.708 187.237,451.156 200.05,445.488 200.05,436.948 206.545,436.948 215.227,431.015 224.775,425.948 235.191,425.948 249.951,420.526 267.312,426.494 275.994,425.574 291.62,432.563 295.962,436.948 307.247,436.948 322.004,439.938"/><polygon opacity=".5" fill="#ff0" points="434.951,441.015 441.896,452.948 430.611,452.948 426.27,458.315 407.173,461.609 399.358,465.823 375.052,473.438 368.974,481.948 355.084,481.948 344.667,473.456 324.702,480.31 316.887,471.948 307.338,471.948 283.899,460.499 289.569,453.338 303.05,448.062 303.05,439.948 308.206,439.948 316.887,435.013 326.437,430.948 336.853,430.948 351.612,424.312 368.974,429.673 377.655,428.451 393.28,435.002 397.623,438.948 408.906,438.948 423.667,442.081"/><polygon opacity=".5" fill="#603813" points="193.011,423.341 212.076,447.948 241.504,447.948 229.448,423.983"/><polygon opacity=".5" fill="#603813" points="238.052,411.544 247.583,423.948 262.299,423.948 256.269,411.919"/><polygon opacity=".5" fill="#603813" points="203.305,414.976 212.839,426.948 227.552,426.948 221.525,415.132"/><polygon opacity=".5" fill="#603813" points="215.24,394.083 221.077,422.938 246.265,435.804 246.286,410.293"/><polygon opacity=".5" fill="#603813" points="245.033,384.453 225.668,408.182 231.933,436.936 252.471,420.121"/><polygon opacity=".5" fill="#603813" points="265.739,426.039 255.861,437.944 258.992,452.322 269.358,443.892"/><polygon opacity=".5" fill="#603813" points="254.57,392.91 244.693,404.818 247.825,419.195 258.191,410.768"/><polygon opacity=".5" fill="#603813" points="277.729,400.079 250.779,411.924 243.57,439.274 268.5,433.863"/><polygon opacity=".5" fill="#603813" points="242.635,393.87 243.519,424.486 267.071,442.132 271.6,415.979"/><polygon opacity=".5" fill="#603813" points="285.505,411.769 285.824,427.237 297.6,436.062 299.927,422.903"/><polygon opacity=".5" fill="#603813" points="255.383,394.026 255.704,409.496 267.481,418.318 269.804,405.16"/><polygon opacity=".5" fill="#603813" points="277.586,384.293 264.958,410.885 277.401,436.284 292.712,415.88"/><polygon opacity=".5" fill="#603813" points="307.203,394.448 277.479,401.828 265.251,428.596 291.768,427.455"/><polygon opacity=".5" fill="#603813" points="298.839,440.146 283.795,443.751 277.679,457.135 291.031,456.604"/><polygon opacity=".5" fill="#603813" points="309.767,406.935 294.721,410.543 288.606,423.926 301.956,423.399"/><polygon opacity=".5" fill="#603813" points="324.001,426.561 295.332,419.879 273.162,437.446 296.358,448.062"/><polygon opacity=".5" fill="#603813" points="258.641,419.556 277.706,442.948 307.135,442.948 295.078,419.592"/><polygon opacity=".5" fill="#603813" points="303.682,408.753 313.214,420.948 327.928,420.948 321.898,409.021"/><polygon opacity=".5" fill="#603813" points="268.938,413.187 278.469,425.948 293.181,425.948 287.154,413.737"/><polygon opacity=".5" fill="#603813" points="280.872,391.51 286.708,420.364 311.896,433.231 311.916,407.72"/><polygon opacity=".5" fill="#603813" points="297.793,424.345 278.431,448.074 284.695,476.83 305.231,460.016"/><polygon opacity=".5" fill="#603813" points="336.515,433.76 326.636,445.665 329.769,460.044 340.135,451.615"/><polygon opacity=".5" fill="#603813" points="320.201,390.336 310.322,402.245 313.455,416.622 323.822,408.194"/><polygon opacity=".5" fill="#603813" points="348.508,407.801 321.557,419.644 314.347,446.996 339.278,441.585"/><polygon opacity=".5" fill="#603813" points="313.412,401.592 314.297,432.207 337.848,449.852 342.375,423.699"/><polygon opacity=".5" fill="#603813" points="356.282,419.49 356.602,434.959 368.378,443.782 370.704,430.624"/><polygon opacity=".5" fill="#603813" points="321.01,391.451 321.333,406.922 333.108,415.744 335.433,402.587"/><polygon opacity=".5" fill="#603813" points="348.363,392.014 335.732,418.605 348.177,444.006 363.489,423.601"/><polygon opacity=".5" fill="#603813" points="372.834,391.876 343.109,399.257 330.88,426.023 357.397,424.882"/><polygon opacity=".5" fill="#603813" points="374.765,455.586 359.719,459.193 353.605,472.574 366.955,472.047"/><polygon opacity=".5" fill="#603813" points="375.396,404.362 360.351,407.97 354.237,421.353 367.585,420.826"/><polygon opacity=".5" fill="#603813" points="394.779,434.281 366.108,427.601 343.94,445.167 367.135,455.785"/><polygon opacity=".5" fill="#603813" points="348.266,450.323 336.095,440.771 321.807,444.287 330.513,454.424"/><polygon opacity=".5" fill="#603813" points="374.538,461.61 361.971,434.99 334.437,428.519 340.517,453.295"/><polygon opacity=".5" fill="#603813" points="353.062,485.807 366.188,458.137 353.229,431.714 337.309,452.951"/><polygon opacity=".5" fill="#603813" points="310.143,437.514 316.886,423.588 310.408,410.374 302.357,421.038"/><polygon opacity=".5" fill="#603813" points="336.63,472.156 343.373,458.23 336.896,445.019 328.842,455.68"/><polygon opacity=".5" fill="#603813" points="312.427,470.732 335.763,452.787 336.224,424.506 313.31,435.721"/><polygon opacity=".5" fill="#603813" points="257.963,446.445 246.248,437.249 232.496,440.636 240.878,450.393"/><polygon opacity=".5" fill="#603813" points="283.25,457.31 271.154,431.684 244.65,425.456 250.504,449.304"/><polygon opacity=".5" fill="#603813" points="267.917,483.462 280.552,456.83 268.083,431.396 252.757,451.838"/><polygon opacity=".5" fill="#603813" points="273.739,484.109 280.231,470.704 273.996,457.989 266.247,468.253"/><polygon opacity=".5" fill="#603813" points="246.761,467.457 253.253,454.053 247.017,441.339 239.267,451.604"/><polygon opacity=".5" fill="#603813" points="223.466,466.088 245.93,448.816 246.372,421.594 224.318,432.393"/><polygon opacity=".5" fill="#603813" points="308.646,443.11 298.548,435.185 286.694,438.103 293.918,446.513"/><polygon opacity=".5" fill="#603813" points="335.592,462.77 325.164,440.683 302.318,435.313 307.365,455.87"/><polygon opacity=".5" fill="#603813" points="305.778,473.867 316.672,450.906 305.921,428.985 292.712,446.604"/><polygon opacity=".5" fill="#603813" points="322.025,470.211 327.624,458.656 322.246,447.693 315.567,456.543"/><polygon opacity=".5" fill="#603813" points="298.991,461.224 304.586,449.67 299.212,438.709 292.53,447.554"/><polygon opacity=".5" fill="#603813" points="276.336,472.91 295.699,458.023 296.081,434.557 277.07,443.862"/><polygon opacity=".5" fill="#603813" points="297.473,393.518 307.57,401.444 319.424,398.526 312.201,390.115"/><polygon opacity=".5" fill="#603813" points="275.675,384.154 286.101,406.239 308.948,411.608 303.901,391.054"/><polygon opacity=".5" fill="#603813" points="297.766,370.483 286.874,393.442 297.624,415.364 310.834,397.743"/><polygon opacity=".5" fill="#603813" points="322.697,399.875 317.102,411.43 322.478,422.393 329.157,413.545"/><polygon opacity=".5" fill="#603813" points="307.127,375.404 301.533,386.958 306.907,397.919 313.589,389.072"/><polygon opacity=".5" fill="#603813" points="327.21,376.586 307.847,391.475 307.465,414.938 326.475,405.635"/><g fill="#FCEE21"><polygon opacity=".5" points="985.453,476.948 980.953,289.948 1121.497,289.948 1121.562,476.948"/><polygon opacity=".5" points="981.054,289.948 1016.961,272.948 1142.289,272.948 1121.497,289.948"/><polygon opacity=".5" points="1142.267,272.785 1152.777,458.032 1121.562,476.948 985.409,476.948 981.054,294.032 1121.497,289.803"/></g></svg>