<svg xmlns="http://www.w3.org/2000/svg" width="635.873" height="352.034">
  <g><polygon opacity=".5" fill="#603813" points="403.355,93.649 452.072,86.008 565.582,118.487 582.394,141.228 587.325,159.972 456.787,204.8 373.248,188.907 333.707,159.915 333.707,141.12"/><polygon opacity=".5" fill="#603813" points="582.416,141.228 565.627,118.487 452.16,86.008 403.532,93.649 334.062,141.12 386.164,173.015 456.791,182.8"/><polygon opacity=".5" fill="#ff0" points="557.523,118.38 566.785,134.845 551.733,134.845 545.945,141.454 520.472,145.572 510.052,151.056 477.633,160.349 469.528,170.845 451.003,170.845 437.109,160.306 410.478,170.725 400.058,160.845 387.322,160.845 356.06,144.694 363.173,134.703 380.707,127.226 380.707,117.845 388.48,117.845 400.058,109.267 412.794,101.845 426.688,101.845 446.371,94.271 469.528,102.065 481.106,100.752 501.948,109.036 507.736,113.845 522.788,113.845 542.471,118.912"/>
 </g><g opacity=".5" fill="#666"><polygon opacity=".5" points="47.039,229.581 214.131,316.464 494.084,319.241 588.854,204.005 572.715,86.322 361.615,32.792 132.054,52.525 57.745,145.364"/><polygon opacity=".5" points="112.727,144.81 161.274,86.044 350.348,65.604 460.215,91.154 345.237,78.378 167.661,93.709"/></g><g><polygon opacity=".5" fill="#603813" points="271.548,138.448 212.028,129.132 73.565,168.735 53.039,196.46 47.01,219.315 206.169,273.976 308.26,254.597 356.707,219.249 356.707,196.331"/><polygon opacity=".5" fill="#603813" points="52.981,196.46 73.451,168.735 211.801,129.132 271.094,138.448 355.798,196.331 292.27,235.22 206.155,247.153"/><polygon opacity=".5" fill="#ff0" points="83.334,168.183 72.04,187.845 90.392,187.845 97.45,196.323 128.509,201.551 141.215,208.337 180.743,219.36 190.625,231.845 213.213,231.845 230.154,219.36 262.624,231.979 275.329,219.845 290.858,219.845 328.975,200.419 320.695,188.373 299.707,179.39 299.707,168.845 289.446,168.845 275.329,157.64 259.8,147.845 242.859,147.845 218.86,138.911 190.625,148.562 176.507,147.036 151.096,157.058 144.038,162.845 125.685,162.845 101.686,168.93"/></g></svg>