<?xml version="1.0" encoding="utf-8"?>
<!-- Generator: Adobe Illustrator 16.0.0, SVG Export Plug-In . SVG Version: 6.00 Build 0)  -->
<!DOCTYPE svg PUBLIC "-//W3C//DTD SVG 1.1//EN" "http://www.w3.org/Graphics/SVG/1.1/DTD/svg11.dtd">
<svg version="1.1" id="Layer_1" xmlns="http://www.w3.org/2000/svg" xmlns:xlink="http://www.w3.org/1999/xlink" x="0px" y="0px"
	 width="415.197px" height="454.836px" viewBox="0 0 415.197 454.836" enable-background="new 0 0 415.197 454.836"
	 xml:space="preserve">
<g>
	<g>
		<polygon opacity="0.5" fill="#FCEE21" points="11.081,381.861 90.159,23.696 357.048,89.375 269.548,445.467 		"/>
		<polygon opacity="0.5" fill="#FCEE21" points="90.353,23.745 166.204,9.37 404.2,67.939 357.048,89.375 		"/>
		<polygon opacity="0.5" fill="#FCEE21" points="404.185,67.813 337.619,424.32 269.548,445.467 10.997,381.84 88.165,32.637 
			356.812,90.331 		"/>
	</g>
	<g>
		
			<linearGradient id="SVGID_1_" gradientUnits="userSpaceOnUse" x1="318.1199" y1="1440.6543" x2="318.1199" y2="1205.4443" gradientTransform="matrix(0.987 0.1606 -0.1606 0.987 93.3316 -1130.051)">
			<stop  offset="0" style="stop-color:#008F30"/>
			<stop  offset="0.0316" style="stop-color:#0F922D"/>
			<stop  offset="0.0925" style="stop-color:#379B27"/>
			<stop  offset="0.1764" style="stop-color:#77A81C"/>
			<stop  offset="0.2794" style="stop-color:#CEBB0E"/>
			<stop  offset="0.2921" style="stop-color:#D9BD0C"/>
			<stop  offset="0.3351" style="stop-color:#E2CD48"/>
			<stop  offset="0.3866" style="stop-color:#ECDF88"/>
			<stop  offset="0.4334" style="stop-color:#F4EDBB"/>
			<stop  offset="0.474" style="stop-color:#FAF7E0"/>
			<stop  offset="0.5068" style="stop-color:#FEFDF7"/>
			<stop  offset="0.5276" style="stop-color:#FFFFFF"/>
			<stop  offset="0.5943" style="stop-color:#E5F3F9"/>
			<stop  offset="0.7357" style="stop-color:#A4D4E9"/>
			<stop  offset="0.8698" style="stop-color:#60B4D9"/>
		</linearGradient>
		<path fill="url(#SVGID_1_)" d="M213.723,110.812c-45.692-7.434-91.191,38.506-101.624,102.614
			c-10.434,64.104,18.15,122.102,63.845,129.537c45.694,7.438,91.194-38.504,101.626-102.609
			C288.003,176.246,259.419,118.249,213.723,110.812z"/>
		<path fill="#4BA82C" d="M164.584,196.273c1.795,2.609,5.844-0.1,8.709-3.537c2.866-3.439,13.09-9.582,17.058-9.342
			c3.964,0.238,2.271,1.617,2.271,1.617l11.52,7.625l4.609,0.752l6.342-3.902c0,0,5.686-2.881,12.297,6.449
			c6.615,9.328,5.365,7.305,6.615,9.328c1.25,2.025,2.365,5.605,5.421,6.225c3.053,0.617,4.033-0.922,4.187-1.869
			c0.153-0.945-0.724-5.242-3.125-9.139c-2.399-3.896-9.171-13.738-21.679-18.928c5.626-1.756,13.887,0.438,16.983,1.549
			c3.095,1.111,10.967,4.939,12.25,5.271c1.281,0.328,5.9-1.953,3.183-6.885c-4.018-5.146-24.115-7.688-27.205-7.342
			c2.285-1.186,6.843-2.527,11.036-2.938c4.194-0.41,9.747-0.234,11.478-1.166c1.731-0.932,4.109-2.123-0.239-5.986
			c-4.348-3.863-19.986,1.238-25.371,3.76c-0.731-0.727,3.566-4.76,9.379-9.152c5.812-4.396,8.403-6.889,9.226-8.211
			c0.821-1.322,3.28-7.477-5.648-4.074s-20.529,18.75-20.529,18.75s0.658-12.639-1.54-28.775c-0.841-6.568-7.437-6.307-7.036,0.92
			c0.404,7.225,1.989,20.592,1.858,22.148c-0.568,0.516-0.979,1.541-5.226-7.404c-4.251-8.945-4.965-10.518-7.102-13.049
			c-2.138-2.535-6.721-6.436-7.029,0.676c0.193,1.779,2.146,4.719,3.637,8.238c1.489,3.52,5.529,9.273,5.933,12.012
			c-2.348-1.234-8.288-4.99-14.009-7.137c-5.72-2.145-8.815-2.527-10.146-0.316c-1.331,2.213,2.496,4.047,4.113,4.555
			c1.618,0.504,16.142,8.211,16.232,10.652c-2.782-0.816-16.365-4.605-24.805-2.705c-8.442,1.906-6.827,7.631-3.54,7.559
			c3.291-0.07,17.842-0.738,21.096,0.154c3.253,0.896,5.33,3.781,1.71,4.406C183.875,177.688,160.269,189.988,164.584,196.273z"/>
		<path fill="#1F140F" d="M214.026,108.95c-46.427-7.556-92.657,39.123-103.26,104.259
			c-10.599,65.137,18.447,124.064,64.873,131.619c46.427,7.557,92.658-39.121,103.258-104.258
			C289.498,175.432,260.454,116.504,214.026,108.95z M176.415,340.064c-43.769-7.121-71-63.566-60.828-126.072
			c10.171-62.506,53.898-107.402,97.666-100.279s71.002,63.568,60.83,126.074C263.911,302.291,220.184,347.189,176.415,340.064z"/>
		<g>
			<path fill="#4BA82C" d="M176.415,340.064c23.81,3.877,47.604-7.645,65.993-29.016l-2.639-1.674l-4.691,3.115l-12.502-0.455
				l-19.89-4.574l-9.189-8.412l-2.633-8.742l1.975-8.842l-0.021-9.23l-9.868-1.604l-3.178,8.438l3.007,9.881l-17.72,11.24
				l-24.634-0.852L126.12,293l-2.313,0.48C134.6,318.598,153.177,336.285,176.415,340.064z"/>
		</g>
		<g>
			<g>
				<path d="M250.173,186.145c0.361,0.031,0.729,0.002,1.094,0.002c-0.157-0.367-0.23-0.82-0.495-1.08
					c-0.394-0.391-0.918-0.646-1.189-0.826c0.391-0.676,0.692-1.201,0.993-1.727c-0.67,0.023-1.342,0.033-2.01,0.084
					c-0.187,0.014-0.364,0.221-0.546,0.221c-0.619-0.002-1.241-0.057-1.861-0.09c-0.055-0.18-0.109-0.361-0.166-0.543
					c0.42-0.211,0.928-0.34,1.234-0.66c0.255-0.264,0.272-0.754,0.395-1.145c-0.382,0.002-0.791-0.086-1.134,0.025
					c-0.523,0.176-0.999,0.49-1.497,0.75c-1.029,0.541-1.649-0.031-2.425-0.738c0.742-0.258,1.315-0.355,1.767-0.645
					c0.314-0.199,0.467-0.66,0.689-1.006c-0.394-0.07-0.786-0.166-1.186-0.201c-0.139-0.012-0.284,0.139-0.438,0.18
					c-0.935,0.244-1.872,0.475-2.809,0.711l-0.179-0.385c0.308-0.223,0.641-0.414,0.91-0.676c0.248-0.238,0.427-0.549,0.635-0.828
					c-0.37-0.121-0.801-0.43-1.092-0.328c-0.824,0.285-1.572,0.773-2.379,1.111c-0.329,0.141-0.735,0.1-1.106,0.145
					c0.098-0.4,0.303-0.504,0.371-0.664c0.149-0.355,0.229-0.742,0.339-1.115c-0.402,0.023-0.845-0.047-1.198,0.096
					c-0.552,0.217-1.014,0.658-1.566,0.859c-0.431,0.158-0.941,0.098-1.649,0.15c0.267-0.439,0.322-0.545,0.386-0.639
					c0.346-0.498,0.693-0.996,1.038-1.494c-0.612,0.131-1.24,0.223-1.837,0.414c-0.329,0.105-0.604,0.379-0.906,0.572
					c-0.363,0.23-0.727,0.455-1.09,0.684c-0.065-0.086-0.13-0.172-0.195-0.258c0.385-0.492,0.768-0.982,1.232-1.576
					c-1.942-0.801-2.606,1.76-4.43,1.387c0.307-0.354,0.534-0.531,0.641-0.762c0.148-0.324,0.204-0.691,0.298-1.039
					c-0.389,0.035-0.848-0.045-1.151,0.137c-0.506,0.301-0.885,0.799-1.361,1.158c-0.309,0.236-0.692,0.379-1.043,0.562
					c0.168-0.33,0.327-0.666,0.509-0.988c0.075-0.139,0.248-0.24,0.28-0.379c0.078-0.359,0.104-0.73,0.149-1.094
					c-0.373,0.037-0.84-0.051-1.104,0.139c-0.675,0.488-1.23,1.137-1.889,1.646c-0.413,0.324-0.927,0.518-1.396,0.77
					c-0.13-0.428-0.114-0.588-0.044-0.719c0.404-0.746,0.907-1.453,1.209-2.24c0.513-1.334-1.115-1.062-1.448-1.789
					c-0.016-0.031,0.006-0.078,0.04-0.373c0.378,0.061,0.785,0.049,1.115,0.199c0.503,0.229,0.967,0.555,1.423,0.873
					c0.478,0.328,0.988,0.746,1.43,0.072c0.428-0.652-0.213-0.842-0.625-1.156c-0.298-0.229-0.47-0.621-0.695-0.939
					c0.389,0.031,0.821-0.033,1.162,0.113c0.729,0.307,1.385,0.803,2.127,1.061c0.313,0.111,0.767-0.186,1.156-0.299
					c-0.216-0.322-0.395-0.674-0.651-0.959c-0.249-0.27-0.576-0.467-0.869-0.699c0.419-0.207,0.714-0.232,0.926-0.111
					c0.52,0.293,0.965,0.758,1.513,0.947c0.357,0.125,0.838-0.113,1.266-0.188c-0.202-0.316-0.374-0.66-0.617-0.939
					c-0.216-0.256-0.516-0.445-0.778-0.662c0.096-0.152,0.187-0.309,0.28-0.459c0.614,0.303,1.271,0.551,1.836,0.93
					c0.874,0.588,1.645,1.441,3.069,0.627c-0.69-0.68-1.297-1.271-1.901-1.865c0.451-0.186,0.749-0.205,0.976-0.088
					c0.799,0.426,1.558,0.928,2.367,1.338c0.311,0.158,0.706,0.143,1.065,0.205c-0.104-0.371-0.17-0.762-0.331-1.107
					c-0.128-0.275-0.374-0.496-0.568-0.74c0.106-0.113,0.21-0.225,0.316-0.336c0.587,0.463,1.148,0.975,1.774,1.381
					c0.628,0.408,1.327,0.711,1.994,1.059c0.106-0.115,0.21-0.232,0.318-0.348c-0.424-0.639-0.847-1.279-1.449-2.195
					c0.692,0.254,1.133,0.332,1.469,0.559c0.526,0.354,0.957,0.85,1.485,1.199c0.298,0.197,0.711,0.221,1.071,0.322
					c-0.069-0.338-0.135-0.68-0.21-1.02c-0.039-0.182-0.093-0.359-0.147-0.557c0.982-0.051,1.065,0.066,1.991,1.033
					c0.399,0.418,1.024,0.615,1.549,0.916c0.044-0.523,0.088-1.043,0.15-1.785c0.185-0.025,0.602-0.031,0.979-0.158
					c0.319-0.109,0.592-0.359,0.886-0.545c-0.242-0.277-0.434-0.684-0.735-0.795c-0.438-0.164-0.956-0.115-1.353-0.148
					c0.184-0.557,0.332-1.016,0.479-1.475c-0.576,0.115-1.184,0.16-1.729,0.369c-0.47,0.182-0.841,0.602-1.303,0.818
					c-0.282,0.135-0.648,0.084-0.978,0.115c0.016-0.336,0.002-0.68,0.064-1.008c0.061-0.324,0.203-0.633,0.324-0.98
					c-1.304-0.434-1.709,0.514-2.202,1.164c-0.692,0.918-1.474,1.059-2.791,0.473c1.09-0.842,2.005-1.549,2.981-2.305
					c-0.626-0.686-1.479-0.482-2.227-0.012c-0.661,0.416-1.198,1.029-1.8,1.547c-0.443,0.383-0.897,0.754-1.346,1.127
					c-0.104-0.104-0.207-0.207-0.311-0.309c0.331-0.457,0.733-0.881,0.97-1.381c0.134-0.289,0.002-0.705-0.008-1.064
					c-0.343,0.1-0.804,0.092-1.009,0.314c-0.613,0.676-1.103,1.467-1.702,2.158c-0.268,0.312-0.688,0.498-1.17,0.832
					c-0.008-0.383-0.051-0.518-0.007-0.607c0.328-0.652,1.047-1.443,0.02-1.92c-0.951-0.441-0.862,0.742-1.263,1.186
					c-0.6,0.666-0.882,1.764-2.37,1.844c0.365-0.695,0.647-1.119,0.801-1.584c0.089-0.283-0.03-0.631-0.057-0.949
					c-0.346,0.09-0.796,0.074-1.015,0.291c-0.355,0.354-0.56,0.857-0.821,1.303c-0.389,0.662-0.771,1.33-1.154,1.994
					c-0.117-0.061-0.233-0.117-0.35-0.178c0.24-0.721,0.481-1.439,0.79-2.375c-2.233,0.264-1.964,2.633-3.478,3.268
					c-0.021-0.467,0.161-0.842,0.215-1.232c0.041-0.301-0.085-0.625-0.135-0.938c-0.301,0.1-0.721,0.113-0.879,0.32
					c-0.355,0.463-0.583,1.027-0.859,1.551c-0.272,0.514-0.544,1.027-0.814,1.537c-0.181,0.016-0.364,0.027-0.544,0.043
					c1.338-2.801-0.062-3.908-2.487-4.477c0.689-0.213,1.261-0.213,1.825-0.281c0.543-0.066,1.099-0.146,1.602-0.342
					c0.217-0.08,0.313-0.469,0.464-0.721c-0.231-0.111-0.452-0.266-0.697-0.324c-0.424-0.105-0.864-0.15-1.3-0.223
					c-0.01-0.125-0.021-0.254-0.029-0.379c0.294-0.107,0.582-0.293,0.882-0.309c0.592-0.033,1.202,0.104,1.783,0.023
					c0.372-0.051,0.705-0.363,1.057-0.559c-0.241-0.221-0.469-0.461-0.731-0.658c-0.225-0.166-0.487-0.277-0.735-0.412
					c0.033-0.113,0.064-0.227,0.096-0.34c0.358,0.059,0.714,0.143,1.076,0.17c0.633,0.051,1.275,0.133,1.901,0.072
					c0.274-0.027,0.517-0.373,0.777-0.574c-0.217-0.242-0.392-0.551-0.658-0.711c-0.376-0.229-0.817-0.346-1.232-0.51
					c0.021-0.156,0.042-0.311,0.062-0.465c0.443,0.008,0.885,0.01,1.325,0.021c0.747,0.02,1.504,0.121,2.235,0.027
					c0.263-0.035,0.463-0.537,0.693-0.822c-0.299-0.182-0.578-0.412-0.898-0.527c-0.334-0.121-0.704-0.129-1.061-0.188
					c-0.016-0.117-0.031-0.234-0.047-0.35c0.452-0.164,0.897-0.416,1.364-0.471c0.787-0.094,1.59-0.049,2.384-0.088
					c0.781-0.037,1.118-0.457,1.057-1.213c-0.551-0.203-1.03-0.381-1.511-0.559c0.017-0.146,0.032-0.291,0.052-0.438
					c0.631-0.02,1.264-0.012,1.892-0.07c0.366-0.035,0.721-0.174,1.082-0.266c-0.114-0.355-0.214-0.713-0.343-1.062
					c-0.065-0.176-0.18-0.332-0.288-0.529c0.161-0.139,0.263-0.299,0.394-0.33c1.069-0.244,2.139-0.482,3.219-0.684
					c0.952-0.18,1.146-0.584,0.561-1.352c-0.138-0.18-0.394-0.27-0.633-0.424c1.284-1.008,2.321-1.744,3.261-2.59
					c0.376-0.338,0.537-0.918,0.793-1.387c-0.531,0.117-1.065,0.236-1.597,0.359c-0.036,0.008-0.065,0.041-0.097,0.066
					c-1.104,0.854-2.21,1.705-3.309,2.564c-0.459,0.357-0.783,0.494-1.051-0.24c-0.147-0.404-0.563-0.711-0.858-1.061
					c-0.177,0.414-0.476,0.818-0.507,1.242c-0.101,1.357-0.331,2.59-1.966,3.229c-0.051-0.592-0.091-1.074-0.111-1.303
					c0.548-0.303,0.962-0.447,1.247-0.723c0.134-0.129,0.133-0.631-0.002-0.75c-0.184-0.168-0.584-0.248-0.833-0.174
					c-1.712,0.52-1.989,1.043-1.841,2.803c0.062,0.734,0.176,1.596-0.689,2.082c-0.153-0.375-0.153-0.711-0.112-1.043
					c0.072-0.619,0.179-1.305-0.711-1.332c-0.878-0.027-0.767,0.672-0.826,1.285c-0.095,0.979-0.301,1.947-0.459,2.92
					c-0.091-0.016-0.185-0.033-0.278-0.051c-0.072-0.967-0.145-1.932-0.231-3.105c-1.597,1.553-1.366,3.623-2.201,5.266
					c-0.164-0.242-0.185-0.459-0.244-0.666c-0.108-0.371-0.241-0.734-0.365-1.104c-0.316,0.334-0.799,0.615-0.918,1.01
					c-0.244,0.793-0.249,1.656-0.438,2.469c-0.097,0.42-0.374,0.799-0.57,1.197c-0.146-0.053-0.291-0.104-0.437-0.154
					c0.039-0.613,0.187-1.242,0.083-1.83c-0.064-0.377-0.492-0.689-0.758-1.031c-0.226,0.318-0.611,0.621-0.643,0.955
					c-0.088,0.949-0.005,1.91-0.041,2.865c-0.017,0.488-0.148,0.977-0.229,1.463c-0.144-0.012-0.29-0.025-0.436-0.041
					c-0.029-0.572,0.028-1.172-0.12-1.717c-0.088-0.322-0.494-0.561-0.759-0.836c-0.205,0.295-0.545,0.572-0.584,0.887
					c-0.076,0.613,0.015,1.25,0.034,1.805c-0.509-0.145-0.926-0.26-1.344-0.377c-0.109,0.518-0.239,1.029-0.327,1.551
					c-0.021,0.143,0.072,0.307,0.125,0.459c0.309,0.9-0.213,1.287-0.969,1.631c-0.103-0.199-0.251-0.355-0.223-0.463
					c0.289-1.094-0.711-1.445-1.118-2.148c-0.965-1.652-1.39-0.025-2.043,0.18c-0.096,0.029-0.218-0.029-0.579-0.086
					c0.377-0.414,0.648-0.703,0.914-0.996c0.518-0.553,1.079-1.072,1.518-1.678c0.15-0.205,0.002-0.631-0.014-0.957
					c-0.288,0.039-0.628-0.008-0.848,0.135c-0.473,0.309-0.88,0.717-1.313,1.082c-0.106-0.08-0.217-0.162-0.323-0.242
					c0.202-0.357,0.355-0.758,0.62-1.061c0.76-0.867,1.595-1.672,2.337-2.553c0.176-0.211,0.111-0.625,0.157-0.943
					c-0.375,0.01-0.799-0.084-1.106,0.066c-0.284,0.139-0.434,0.549-0.664,0.82c-0.231,0.275-0.488,0.531-0.734,0.797
					c-0.136-0.064-0.275-0.133-0.412-0.197c0.163-0.555,0.229-1.166,0.511-1.652c0.433-0.752,1.059-1.393,1.51-2.137
					c0.17-0.281,0.079-0.719,0.11-1.084c-0.337,0.072-0.702,0.088-1.004,0.234c-0.312,0.152-0.562,0.43-0.842,0.652l-0.288-0.229
					c0.138-0.332,0.244-0.686,0.423-0.996c0.478-0.83,1.043-1.613,1.455-2.473c0.165-0.352,0.021-0.85,0.013-1.281
					c-0.371,0.209-0.772,0.381-1.11,0.635c-0.22,0.162-0.354,0.441-0.524,0.668c-0.143-0.443-0.082-0.785,0.091-1.057
					c0.526-0.84,1.143-1.625,1.629-2.484c0.192-0.344,0.133-0.83,0.19-1.252c-0.439,0.166-0.947,0.242-1.297,0.518
					c-0.349,0.279-0.538,0.756-0.937,1.348c-0.338-1.227-0.246-1.975,0.619-2.594c0.504-0.357,0.916-0.879,1.269-1.396
					c0.125-0.186,0.053-0.699-0.113-0.836c-0.166-0.135-0.617-0.078-0.851,0.057c-0.39,0.223-0.707,0.574-1.157,0.959
					c-0.163-0.414-0.296-0.654-0.354-0.91c-0.293-1.322,0.351-2.264,1.175-3.219c0.344-0.398,0.617-1.461,0.428-1.615
					c-0.746-0.609-1.021,0.262-1.405,0.715c-0.044,0.053-0.145,0.061-0.389,0.15c-0.143-0.422-0.363-0.832-0.41-1.262
					c-0.189-1.746-0.284-3.498-0.511-5.234c-0.047-0.361-0.5-0.668-0.766-1c-0.181,0.357-0.523,0.717-0.519,1.07
					c0.019,1.109,0.172,2.219,0.263,3.332c0.067,0.838,0.117,1.678,0.187,2.627c-0.729-0.389-1.264-0.674-1.803-0.959
					c-0.094,0.096-0.185,0.191-0.279,0.287c0.154,0.375,0.243,0.795,0.475,1.115c0.442,0.613,1.08,1.107,1.424,1.762
					c0.365,0.705,0.486,1.535,0.713,2.312c-0.13,0.07-0.257,0.139-0.384,0.211c-0.62-0.299-1.24-0.598-1.951-0.941
					c-0.16,0.371-0.288,0.672-0.422,0.973c1.874,0.828,3.166,2.668,2.733,3.807c-0.656-0.654-1.315-1.314-2.099-2.1
					c-0.398,2.781,2.685,3.68,2.404,6.158c-0.55-0.234-0.938-0.637-1.396-0.924c-0.26-0.164-0.636-0.145-0.959-0.207
					c-0.006,0.359-0.156,0.818,0.013,1.059c0.304,0.441,0.812,0.736,1.203,1.127c0.523,0.527,1.059,1.057,1.504,1.648
					c0.144,0.191,0.016,0.586,0.012,0.887c-0.33-0.047-0.773,0.027-0.969-0.16c-0.601-0.566-1.104-1.234-1.916-2.176
					c0.058,0.869-0.08,1.582,0.185,2.076c0.342,0.633,1.019,1.084,1.533,1.629c0.409,0.43,0.795,0.883,1.19,1.328
					c-0.095,0.092-0.189,0.18-0.283,0.27c-0.571-0.295-1.145-0.59-1.816-0.938c-0.154,1.473,1.064,2.002,1.574,2.926
					c0.174,0.316,0.236,0.693,0.349,1.043c-0.34-0.062-0.686-0.096-1.014-0.195c-0.263-0.08-0.491-0.299-0.756-0.342
					c-0.279-0.047-0.576,0.041-0.866,0.072c0.073,0.281,0.058,0.641,0.233,0.836c0.558,0.619,1.214,1.146,1.77,1.77
					c0.323,0.359,0.519,0.834,0.772,1.254c-0.143,0.119-0.283,0.238-0.428,0.357c-0.852-0.699-1.704-1.402-2.716-2.234
					c-0.252,0.793-0.521,1.65-0.882,2.789c-1.107-1.844,0.703-3.08,0.324-4.76c-0.687,0.637-1.209,1.119-1.881,1.742
					c-0.145-1.555,1.708-2.76,0.34-4.346c-0.521,0.754-0.901,1.309-1.281,1.863c-0.116-0.07-0.23-0.139-0.345-0.205
					c0.369-1.207,0.776-2.4,1.084-3.623c0.071-0.279-0.194-0.645-0.304-0.973c-0.3,0.211-0.665,0.365-0.879,0.641
					c-0.288,0.365-0.456,0.82-0.677,1.234c-0.168-0.047-0.335-0.096-0.503-0.146c0.182-1.107,0.404-2.211,0.517-3.326
					c0.035-0.346-0.236-0.719-0.368-1.082c-0.257,0.33-0.562,0.633-0.758,0.996c-0.133,0.252-0.114,0.586-0.163,0.885
					c-0.138-0.012-0.275-0.023-0.413-0.031c-0.016-0.404-0.074-0.812-0.038-1.209c0.06-0.627,0.272-1.25,0.257-1.873
					c-0.014-0.527-0.255-1.047-0.396-1.572c-0.332,0.377-0.66,0.756-0.993,1.129c-0.022,0.025-0.077,0.02-0.304,0.072
					c0.012-0.4-0.004-0.76,0.04-1.111c0.105-0.869,0.282-1.729,0.344-2.598c0.019-0.275-0.245-0.566-0.381-0.85
					c-0.221,0.189-0.528,0.34-0.647,0.58c-0.227,0.455-0.346,0.965-0.511,1.451c-0.146-0.02-0.294-0.039-0.439-0.061
					c0.009-0.508-0.051-1.027,0.05-1.516c0.109-0.541,0.453-1.041,0.528-1.582c0.042-0.316-0.238-0.68-0.373-1.021
					c-0.268,0.197-0.584,0.354-0.794,0.602c-0.207,0.246-0.309,0.582-0.57,1.104c-0.806-1.258-1.545-2.229-0.943-3.584
					c0.16-0.363,0.396-0.756,0.373-1.121c-0.019-0.311-0.358-0.604-0.555-0.904c-0.25,0.18-0.555,0.318-0.739,0.549
					c-0.171,0.213-0.215,0.525-0.316,0.795c-0.636-0.91-1.728-1.637-0.703-2.834c0.108-0.127,0.031-0.586-0.112-0.705
					c-0.129-0.109-0.487-0.004-0.715,0.084c-0.155,0.061-0.258,0.252-0.482,0.484c-0.387-0.639-0.659-1.223-1.062-1.693
					c-0.262-0.307-0.719-0.449-1.089-0.666c-0.013,0.453-0.166,0.965-0.006,1.344c0.297,0.701,0.783,1.324,1.357,2.252
					c-0.724-0.203-1.144-0.322-1.564-0.441c-0.121,0.914,0.076,1.396,1.141,1.328c0.441-0.027,0.916,0.434,1.375,0.674
					c-0.055,0.119-0.108,0.234-0.163,0.352c-0.257-0.01-0.523-0.066-0.771-0.02c-0.308,0.053-0.599,0.193-0.897,0.295
					c0.155,0.297,0.249,0.654,0.478,0.875c0.215,0.207,0.589,0.236,0.856,0.402c1.004,0.633,2.354,0.879,2.661,2.164
					c-0.447,0.395-0.818,0.719-1.191,1.045c0.446,0.297,0.897,0.588,1.339,0.893c0.474,0.322,0.938,0.656,1.403,0.986
					c-0.062,0.104-0.127,0.207-0.19,0.311c-0.184-0.029-0.37-0.092-0.552-0.082c-0.316,0.016-0.63,0.076-0.946,0.119
					c0.129,0.34,0.165,0.77,0.401,0.996c0.361,0.344,0.866,0.529,1.292,0.811c0.75,0.49,1.483,1.004,2.225,1.504
					c-0.103,0.166-0.207,0.332-0.311,0.498c-0.672-0.338-1.343-0.674-2.031-1.018c-0.451,1.697-0.321,1.924,1.173,2.209
					c0.392,0.072,0.819,0.072,1.165,0.244c0.433,0.217,0.795,0.57,1.188,0.865c-0.084,0.162-0.167,0.324-0.252,0.484
					c-0.92-0.26-1.839-0.52-2.802-0.791c0.312,1.609,1.261,2.223,2.724,2.262c0.504,0.014,0.997,0.242,1.696,0.422
					c-0.835,0.371-1.324,0.588-1.811,0.803c0.459,0.363,0.91,0.738,1.381,1.082c0.157,0.117,0.417,0.109,0.542,0.242
					c0.321,0.344,0.593,0.736,0.887,1.109c-2.279-0.465-2.484-0.523-2.63,2.074c2.186-0.729,2.89-0.58,3.859,0.971
					c-2.387-0.859-4.43-1.1-4.636,2.365c-0.214-1.105-0.132-2.062-0.194-3.006c-0.028-0.395-0.363-0.766-0.557-1.145
					c-0.301,0.287-0.685,0.529-0.882,0.875c-0.172,0.303-0.144,0.723-0.203,1.088c-0.379-0.279-0.501-0.611-0.575-0.955
					c-0.146-0.697-0.195-1.426-0.428-2.092c-0.112-0.338-0.532-0.57-0.814-0.848c-0.131,0.342-0.307,0.674-0.382,1.027
					c-0.054,0.264,0.021,0.553,0.039,0.832l-0.418,0.068c-0.121-0.66-0.248-1.318-0.36-1.98c-0.093-0.541-0.07-1.133-0.291-1.611
					c-0.119-0.256-0.647-0.318-0.989-0.469c-0.095,0.305-0.253,0.607-0.271,0.916c-0.025,0.447,0.05,0.898,0.085,1.346
					c-0.11,0.045-0.22,0.088-0.328,0.133c-0.221-0.32-0.499-0.615-0.645-0.963c-0.233-0.549-0.287-1.193-0.591-1.688
					c-0.282-0.461-0.794-0.781-1.206-1.162c-0.119,0.443-0.232,0.889-0.362,1.328c-0.016,0.055-0.117,0.084-0.358,0.242
					c-0.192-0.529-0.382-1.016-0.545-1.514c-0.182-0.568-0.257-1.186-0.536-1.699c-0.139-0.26-0.621-0.334-0.949-0.492
					c-0.084,0.314-0.229,0.627-0.241,0.943c-0.019,0.422,0.066,0.846,0.105,1.268l-0.392,0.129c-0.197-0.34-0.404-0.672-0.584-1.02
					c-0.386-0.736-0.699-1.521-1.166-2.203c-0.154-0.225-0.686-0.193-1.045-0.281c-0.009,0.322-0.089,0.664-0.011,0.967
					c0.127,0.49,0.354,0.951,0.638,1.674c-1.517-0.275-2.016-1.119-2.41-2.109c-0.187-0.467-0.42-0.949-0.763-1.303
					c-0.184-0.191-0.638-0.119-0.97-0.168c-0.002,0.326-0.055,0.664,0.011,0.975c0.073,0.359,0.255,0.697,0.389,1.045
					c-0.143,0.09-0.287,0.18-0.431,0.27c-0.521-0.602-1.048-1.199-1.563-1.807c-0.327-0.389-0.639-0.787-0.962-1.18
					c-0.219,0.49-0.438,0.979-0.667,1.465c-0.031,0.064-0.114,0.104-0.225,0.197c-0.812-0.174-1.646-1.129-2.734,0.086
					c0.739,0.49,1.439,0.953,1.932,1.279l-0.251,1.549c0.492-0.029,0.99-0.02,1.471-0.105c0.303-0.053,0.568-0.293,0.874-0.377
					c0.443-0.121,0.905-0.174,1.283-0.242c-0.14,0.643-0.233,1.09-0.329,1.535c0.446,0.043,0.893,0.137,1.338,0.111
					c0.304-0.016,0.592-0.23,0.898-0.293c0.414-0.082,0.838-0.104,1.257-0.15c-0.163,0.432-0.431,0.527-0.591,0.715
					c-0.177,0.205-0.405,0.562-0.332,0.732c0.097,0.223,0.449,0.412,0.722,0.463c0.248,0.043,0.526-0.141,0.799-0.188
					c0.803-0.137,1.607-0.256,2.406-0.381c-0.445,0.754-0.763,1.293-1.076,1.83c0.609-0.047,1.245,0.004,1.817-0.166
					c1.036-0.305,1.962-0.199,3.201,0.363c-1.006,0.371-1.701,0.594-2.367,0.893c-0.2,0.088-0.312,0.385-0.463,0.586
					c0.227,0.109,0.463,0.326,0.68,0.307c0.867-0.086,1.726-0.293,2.597-0.365c0.578-0.047,1.172,0.062,1.759,0.1
					c-0.006,0.145-0.011,0.287-0.016,0.432c-0.33,0.082-0.696,0.102-0.98,0.264c-0.33,0.189-0.848,0.537-0.822,0.766
					c0.074,0.635,0.545,0.672,1.165,0.531c0.785-0.174,1.62-0.137,2.43-0.191c0.008,0.145,0.015,0.291,0.022,0.438
					c-0.409,0.055-0.829,0.068-1.224,0.182c-0.267,0.074-0.493,0.287-0.739,0.438c0.182,0.238,0.334,0.645,0.548,0.684
					c0.648,0.109,1.32,0.1,1.986,0.094c0.697-0.006,1.502-0.377,1.942,0.736c-0.506,0.098-0.97,0.094-1.335,0.285
					c-0.384,0.199-0.67,0.586-1.001,0.893c0.466,0.203,0.936,0.576,1.396,0.566c0.568-0.01,1.119-0.42,1.7-0.5
					c0.404-0.055,0.845,0.154,1.271,0.244l-0.076,0.334c-1.055,0.236-2.11,0.467-3.164,0.699l-0.038,0.377
					c1.517,0.738,3.343,0.094,5,0.764c-2.741,0.381-1.203,2.299-1.51,3.607c-0.28-0.275-0.489-0.566-0.593-0.891
					c-0.214-0.686-0.296-1.422-0.585-2.068c-0.142-0.309-0.632-0.461-0.964-0.686c-0.114,0.348-0.334,0.695-0.324,1.035
					c0.011,0.445,0.204,0.887,0.319,1.328c-0.094,0.059-0.188,0.119-0.281,0.18c-0.262-0.279-0.588-0.52-0.774-0.842
					c-0.463-0.789-0.789-1.668-1.318-2.404c-0.235-0.326-0.827-0.395-1.258-0.58c0.062,0.428,0.089,0.865,0.195,1.283
					c0.091,0.348,0.277,0.666,0.419,0.998c-0.118,0.062-0.237,0.123-0.354,0.184c-0.23-0.295-0.496-0.566-0.683-0.887
					c-0.342-0.584-0.565-1.252-0.978-1.771c-0.23-0.287-0.747-0.344-1.136-0.506c-0.002,0.391-0.05,0.785,0.01,1.164
					c0.034,0.232,0.234,0.441,0.363,0.66c-0.066,0.072-0.132,0.145-0.199,0.219c-0.319-0.219-0.713-0.379-0.947-0.67
					c-0.396-0.49-0.643-1.107-1.051-1.588c-0.316-0.375-0.785-0.623-1.187-0.928c0.028,0.486,0.005,0.984,0.103,1.455
					c0.063,0.316,0.304,0.594,0.468,0.893c-0.097,0.08-0.192,0.162-0.288,0.246c-0.268-0.252-0.591-0.467-0.794-0.764
					c-0.449-0.656-0.778-1.406-1.286-2.012c-0.207-0.248-0.745-0.221-1.134-0.32c0.034,0.359-0.028,0.771,0.133,1.059
					c0.157,0.283,0.541,0.439,0.825,0.65c-1.552,0.596-2.001-0.398-2.613-1.041c-0.56-0.586-1.076-1.146-2.184-0.846
					c0.384,0.605,0.698,1.104,1.157,1.826c-1.986-0.188-2.335-2.643-4.608-2.562c0.622,0.889,1.065,1.523,1.51,2.16
					c-0.075,0.092-0.151,0.186-0.227,0.277c-0.436-0.27-0.893-0.51-1.305-0.811c-0.707-0.518-1.358-1.115-2.091-1.592
					c-0.229-0.15-0.637-0.021-0.964-0.021c0.057,0.318,0.007,0.736,0.188,0.943c0.429,0.484,0.971,0.871,1.522,1.344
					c-1.613,0.479-2.453,0.121-3.666-1.369c-0.208-0.256-0.607-0.355-0.917-0.527c-0.041,0.42-0.166,0.855-0.098,1.26
					c0.055,0.342,0.337,0.646,0.517,0.965c-0.065,0.088-0.131,0.172-0.193,0.26c-0.391-0.104-0.806-0.152-1.163-0.326
					c-0.642-0.312-1.222-0.781-1.886-1.014c-0.325-0.115-0.784,0.152-1.181,0.25c0.192,0.281,0.386,0.564,0.576,0.846
					c0.116,0.176,0.229,0.348,0.384,0.588c-0.737,0.145-1.38,0.201-1.967,0.412c-0.297,0.105-0.497,0.484-0.738,0.742
					c0.323,0.162,0.636,0.43,0.967,0.459c0.527,0.047,1.069-0.068,1.805-0.131c-0.254,0.434-0.456,0.648-0.503,0.891
					c-0.06,0.307,0.009,0.639,0.021,0.959c0.36-0.031,0.789,0.043,1.065-0.127c0.313-0.197,0.454-0.652,0.739-0.922
					c0.464-0.439,0.983-0.818,1.481-1.223c0.094,0.098,0.191,0.191,0.287,0.287c-0.106,0.348-0.212,0.699-0.318,1.051
					c0.049,0.105,0.097,0.215,0.147,0.318c0.545-0.262,1.121-0.479,1.632-0.801c0.529-0.332,0.999-0.764,1.496-1.15
					c0.073,0.098,0.148,0.193,0.226,0.291c-0.357,0.539-0.716,1.078-1.126,1.699c1.969,0.312,2.776-1.652,4.238-2.104
					c0.05,0.104,0.104,0.209,0.156,0.312c-0.358,0.492-0.713,0.982-1.071,1.475c0.08,0.096,0.158,0.193,0.235,0.289
					c0.402-0.1,0.861-0.111,1.193-0.32c0.641-0.398,1.209-0.912,1.808-1.379c0.614-0.48,1.199-0.449,1.898,0.123
					c-0.36,0.215-0.724,0.311-0.861,0.539c-0.293,0.486-0.471,1.041-0.692,1.568c0.566-0.117,1.204-0.113,1.685-0.387
					c0.645-0.365,1.138-0.992,1.761-1.408c0.261-0.174,0.692-0.092,1.043-0.125c0.03,0.125,0.06,0.246,0.088,0.369
					c-0.317,0.213-0.708,0.369-0.939,0.654c-0.213,0.26-0.259,0.658-0.381,0.998c0.389,0.07,0.822,0.287,1.148,0.178
					c0.387-0.127,0.659-0.562,1.017-0.814c0.412-0.289,0.863-0.523,1.297-0.783c0.084,0.117,0.167,0.236,0.25,0.355
					c-0.327,0.275-0.683,0.521-0.971,0.828c-0.272,0.291-0.475,0.645-0.708,0.971c0.47,0.074,0.978,0.301,1.396,0.188
					c0.514-0.141,0.923-0.635,1.431-0.844c0.59-0.244,1.24-0.346,1.862-0.51c0.095,0.201,0.188,0.402,0.281,0.604
					c-0.476,0.262-0.986,0.471-1.4,0.805c-0.218,0.174-0.263,0.561-0.384,0.852c0.321,0.107,0.681,0.357,0.959,0.287
					c0.353-0.086,0.625-0.459,0.963-0.656c0.586-0.346,1.194-0.65,1.792-0.973c0.088,0.15,0.174,0.303,0.262,0.455
					c-0.293,0.209-0.644,0.373-0.869,0.643c-0.303,0.357-0.506,0.795-0.752,1.199c0.472-0.014,0.965,0.059,1.403-0.064
					c0.487-0.137,0.921-0.461,1.388-0.686c0.386-0.184,0.783-0.338,1.476-0.635c-0.667,0.879-1.105,1.457-1.538,2.025
					c0.692-0.09,1.39-0.168,2.08-0.271c0.617-0.094,1.231-0.219,1.953-0.348c-1.01,0.967-1.796,1.723-2.855,2.734
					c1.358,0.711,2.451,1.285,3.547,1.859c-0.043,0.125-0.085,0.252-0.129,0.375c-0.441-0.033-0.955,0.064-1.314-0.127
					c-0.795-0.424-1.486-1.047-2.278-1.484c-0.391-0.215-0.912-0.193-1.372-0.279c0.131,0.4,0.229,0.816,0.408,1.193
					c0.132,0.277,0.368,0.504,0.56,0.756l-0.272,0.275c-0.407-0.33-0.798-0.686-1.227-0.984c-0.478-0.334-0.96-0.709-1.502-0.887
					c-0.27-0.086-0.669,0.23-1.011,0.363c0.184,0.275,0.318,0.604,0.558,0.811c0.348,0.301,0.774,0.516,1.164,0.764
					c-0.055,0.119-0.106,0.236-0.165,0.355c-0.507-0.127-1.031-0.213-1.525-0.385c-0.791-0.273-1.546-0.65-2.346-0.885
					c-0.28-0.084-0.643,0.129-0.965,0.205c0.175,0.268,0.302,0.594,0.535,0.791c0.37,0.316,0.81,0.549,1.219,0.814l-0.135,0.324
					c-0.39-0.086-0.801-0.121-1.162-0.271c-0.586-0.244-1.113-0.645-1.712-0.826c-0.339-0.104-0.771,0.098-1.162,0.162
					c0.166,0.336,0.285,0.703,0.507,0.988c0.22,0.281,0.547,0.475,0.829,0.709c-0.064,0.131-0.129,0.264-0.192,0.395
					c-0.438-0.152-0.873-0.322-1.316-0.453c-0.753-0.217-1.503-0.461-2.274-0.584c-0.2-0.033-0.467,0.34-0.704,0.525
					c0.2,0.203,0.374,0.451,0.612,0.602c0.313,0.201,0.678,0.324,1.021,0.482c-0.062,0.158-0.121,0.316-0.182,0.475
					c-0.66-0.23-1.316-0.477-1.981-0.691c-0.557-0.18-1.117-0.371-1.692-0.455c-0.187-0.025-0.54,0.246-0.592,0.439
					c-0.042,0.16,0.21,0.465,0.404,0.605c0.358,0.262,0.771,0.451,1.162,0.67c-0.021,0.135-0.046,0.27-0.065,0.404
					c-0.467,0.027-0.938,0.109-1.396,0.064c-0.635-0.061-1.258-0.293-1.887-0.301c-0.312-0.002-0.625,0.336-0.938,0.521
					c0.213,0.244,0.393,0.531,0.645,0.727c0.214,0.164,0.508,0.219,0.767,0.32l-0.057,0.334c-0.441,0.002-0.888,0.053-1.325,0.006
					c-0.709-0.076-1.413-0.285-2.122-0.299c-0.329-0.008-0.667,0.309-0.998,0.477c0.303,0.254,0.573,0.58,0.916,0.75
					c0.339,0.168,0.752,0.176,1.135,0.256c-0.005,0.109-0.007,0.221-0.01,0.33c-0.285,0.059-0.567,0.152-0.855,0.172
					c-0.991,0.062-1.992,0.043-2.976,0.172c-0.34,0.045-0.633,0.436-0.948,0.668c0.306,0.238,0.582,0.582,0.926,0.686
					c0.44,0.131,0.94,0.07,1.551,0.098c-0.958,1.203-1.412,1.379-2.55,1.178c-0.431-0.076-0.88-0.164-1.305-0.111
					c-0.263,0.033-0.609,0.275-0.7,0.512c-0.06,0.145,0.249,0.496,0.461,0.676c0.275,0.23,0.62,0.377,0.932,0.559
					c-0.843,1.385-3.009,0.07-3.554,1.924c0.514,0.211,0.854,0.352,1.258,0.518c-0.412,0.521-0.809,0.918-1.063,1.393
					c-0.116,0.211,0.056,0.576,0.099,0.869c0.249-0.053,0.53-0.051,0.742-0.174c0.321-0.184,0.591-0.457,0.708-0.553
					c0.559,0.41,0.949,0.695,1.334,0.98c0.207-0.477,0.463-0.939,0.604-1.434c0.106-0.375,0.013-0.805,0.116-1.184
					c0.087-0.328,0.322-0.617,0.515-0.965c0.205,0.191,0.295,0.236,0.316,0.301c0.177,0.527,0.298,1.24,1.042,0.93
					c0.274-0.117,0.337-0.812,0.433-1.258c0.139-0.652,0.222-1.316,0.344-2.062c0.564,0.549,0.922,0.9,1.278,1.248
					c0.27-0.457,0.572-0.9,0.798-1.379c0.314-0.67,0.573-1.367,0.856-2.051c0.114,0.033,0.229,0.07,0.343,0.107
					c0.005,0.256-0.021,0.518,0.019,0.77c0.048,0.324,0.145,0.641,0.222,0.963c0.286-0.221,0.708-0.381,0.834-0.67
					c0.321-0.727,0.461-1.527,0.77-2.258c0.177-0.42,0.539-0.764,0.817-1.143c0.122,0.074,0.24,0.148,0.36,0.221
					c-0.078,0.486-0.194,0.973-0.223,1.459c-0.011,0.246,0.137,0.5,0.21,0.75c0.265-0.125,0.674-0.182,0.77-0.385
					c0.283-0.605,0.438-1.271,0.651-1.912c0.215-0.633,0.259-1.414,1.391-1.512c-0.12,0.406-0.241,0.68-0.273,0.965
					c-0.039,0.311,0.003,0.629,0.011,0.943c0.325-0.082,0.788-0.057,0.952-0.27c0.358-0.449,0.561-1.023,0.841-1.539
					c0.251-0.457,0.523-0.906,0.785-1.359c0.136,0.076,0.271,0.148,0.407,0.225c-0.147,0.385-0.36,0.76-0.415,1.16
					c-0.05,0.379,0.065,0.779,0.108,1.172c0.299-0.195,0.688-0.322,0.882-0.592c0.344-0.482,0.561-1.053,0.854-1.572
					c0.248-0.443,0.529-0.863,0.799-1.291l0.383,0.15c-0.06,0.514-0.182,1.033-0.158,1.543c0.011,0.314,0.244,0.617,0.377,0.926
					c0.238-0.215,0.562-0.387,0.692-0.652c0.282-0.566,0.423-1.205,0.702-1.775c0.174-0.363,0.493-0.656,0.745-0.982
					c0.105,0.064,0.208,0.129,0.315,0.197c-0.105,0.404-0.257,0.807-0.289,1.219c-0.017,0.268,0.149,0.547,0.233,0.822
					c0.267-0.129,0.641-0.186,0.782-0.398c0.351-0.525,0.565-1.146,0.896-1.688c0.218-0.357,0.545-0.646,0.824-0.967
					c0.104,0.07,0.208,0.141,0.31,0.211c-0.11,0.256-0.261,0.504-0.32,0.773c-0.069,0.305-0.057,0.625-0.075,0.939
					c0.36-0.064,0.787-0.033,1.066-0.223c0.265-0.178,0.348-0.604,0.556-0.887c0.392-0.533,0.816-1.043,1.227-1.561
					c0.125,0.086,0.251,0.17,0.376,0.256c-0.151,0.324-0.304,0.65-0.456,0.977c-0.301,0.646-0.966,1.387-0.825,1.914
					c0.019,0.068,0.031,0.131,0.041,0.189c0.006-0.002,0.013-0.002,0.019-0.002c0.365-0.049,0.722-0.125,1.078-0.213
					c0.485-0.768,1.013-1.506,1.383-2.318c0.491-1.092,1.334-0.924,2.233-1.023c-0.589,0.996-1.105,1.867-1.616,2.729
					c0.681-0.232,1.361-0.467,2.052-0.65c0.503-1.287,1.698-1.686,3.563-1.02c2.482,0.885,3.683,2.043,2.33,5.357
					c0.713,2.43,0.149,5.025-0.491,7.434c-0.282,1.062-0.643,2.201-0.908,3.361c0.104,0.035,0.209,0.074,0.312,0.109
					c0.851,0.305,1.712,0.576,2.58,0.836c0.019-0.047,0.036-0.098,0.053-0.141c-0.02,0.043-0.034,0.092-0.047,0.145
					c1.012,0.303,2.035,0.586,3.061,0.863c0.479-3.352,0.707-6.725,0.119-10.025l-0.197-0.082c0.018-0.232,0.028-0.467,0.041-0.699
					c-0.03-0.139-0.06-0.275-0.093-0.412c-0.091-0.375-0.011-0.672,0.171-0.881c0.031-0.342,0.077-0.678,0.153-1.01
					c0.427-1.799,1.717-2.699,3.685-2.781c2.229-0.094,2.957,0.398,3.759,2.375c0.188,0.461,0.627,0.822,0.949,1.23
					c0.169-0.08,0.342-0.162,0.511-0.244c-0.135-0.779-0.271-1.557-0.405-2.338c0.11-0.088,0.224-0.176,0.336-0.264
					c0.403,0.43,0.956,0.797,1.169,1.307c0.252,0.602,0.278,1.322,0.278,1.992c-0.004,1.074,0.58,1.191,1.404,1.199
					c-0.049-1.016-0.09-1.855-0.132-2.693c0.097-0.037,0.192-0.07,0.288-0.109c0.177,0.221,0.446,0.412,0.516,0.662
					c0.189,0.689,0.236,1.422,0.462,2.096c0.115,0.34,0.498,0.588,0.758,0.877c0.143-0.33,0.347-0.646,0.412-0.99
					c0.073-0.373,0.021-0.768,0.019-1.152c0.166-0.014,0.334-0.025,0.5-0.041c0.104,0.773,0.213,1.545,0.304,2.318
					c0.099,0.846,0.101,1.742,1.406,2.035c-0.055-0.934-0.1-1.727-0.146-2.52c0.125-0.045,0.252-0.09,0.378-0.133
					c0.182,0.404,0.46,0.793,0.517,1.213c0.062,0.459-0.135,0.949-0.122,1.424c0.013,0.479,0.091,0.975,0.254,1.42
					c0.048,0.131,0.698,0.201,0.716,0.158c0.18-0.451,0.296-0.93,0.408-1.404c0.072-0.307,0.105-0.621,0.155-0.934
					c0.469,0.215,0.778,0.479,0.81,0.77c0.093,0.896,0.025,1.807,0.129,2.697c0.044,0.398,0.354,0.768,0.545,1.15
					c0.247-0.326,0.575-0.621,0.726-0.988c0.141-0.344,0.095-0.766,0.131-1.154c0.371,0.199,0.547,0.404,0.541,0.602
					c-0.022,0.633-0.193,1.271-0.139,1.895c0.027,0.352,0.38,0.678,0.583,1.016c0.262-0.293,0.589-0.553,0.762-0.893
					c0.135-0.27,0.076-0.633,0.104-0.955c0.155,0.006,0.307,0.006,0.461,0.012c0.579,1.377-0.186,2.781-0.237,4.355
					c0.599,0.023,1.179,0.051,1.731,0.074c0.008-0.834,0.013-1.455,0.021-2.078c0.136-0.025,0.273-0.047,0.411-0.068
					c0.171,0.404,0.453,0.797,0.486,1.213c0.042,0.545-0.232,1.123-0.149,1.65c0.101,0.617,0.438,1.193,0.676,1.789
					c0.355-0.348,0.716-0.695,1.191-1.16c-0.006,0.342,0.018,0.68-0.023,1.012c-0.053,0.436-0.283,0.885-0.213,1.285
					c0.089,0.504,0.407,0.969,0.628,1.451c0.331-0.277,0.658-0.559,0.996-0.824c0.047-0.039,0.149-0.01,0.478-0.014l-0.616,3.779
					c0.053-0.02-0.19,0.068-0.495,0.184c0.174,0.467,0.33,0.885,0.465,1.244c0.523-0.877,1.003-1.678,1.481-2.479
					c0.147,0.047,0.298,0.092,0.448,0.139c-0.06,0.539-0.081,1.088-0.191,1.617c-0.083,0.424-0.416,0.838-0.379,1.234
					c0.035,0.398,0.391,0.77,0.604,1.152c0.217-0.268,0.43-0.539,0.652-0.803c0.091-0.107,0.203-0.197,0.363-0.35
					c0.346,0.525,0.59,1.033,0.965,1.412c0.197,0.199,0.625,0.172,0.945,0.248c0.035-0.324,0.16-0.672,0.083-0.965
					c-0.136-0.512-0.396-0.988-0.559-1.373c0.589-0.188,1.035-0.328,1.483-0.469c-0.331-0.408-0.617-0.863-1.003-1.211
					c-0.348-0.316-0.822-0.488-1.198-0.781c-0.219-0.17-0.354-0.453-0.526-0.684c0.285-0.17,0.557-0.434,0.86-0.479
					c0.275-0.039,0.581,0.205,0.88,0.24c0.232,0.025,0.479-0.08,0.72-0.127c-0.079-0.203-0.103-0.51-0.248-0.588
					c-0.902-0.484-1.86-0.865-2.738-1.391c-0.482-0.289-0.838-0.789-1.249-1.195c0.499-0.037,1-0.078,1.502-0.105
					c0.073-0.006,0.158,0.082,0.226,0.07c0.348-0.072,0.692-0.164,1.038-0.248c-0.21-0.332-0.342-0.814-0.639-0.965
					c-0.736-0.369-1.558-0.564-2.325-0.873c-0.324-0.129-0.605-0.373-0.905-0.562c0.342-0.248,0.557-0.182,0.721-0.244
					c0.353-0.131,0.68-0.328,1.019-0.5c-0.238-0.311-0.414-0.732-0.726-0.9c-0.402-0.219-0.924-0.199-1.377-0.338
					c-0.701-0.217-1.388-0.482-2.08-0.727c0.031-0.127,0.066-0.254,0.098-0.379c0.341-0.002,0.7,0.066,1.015-0.023
					c0.29-0.084,0.531-0.334,0.796-0.51c-0.208-0.26-0.371-0.588-0.636-0.758c-0.205-0.131-0.547-0.027-0.813-0.09
					c-0.911-0.211-1.816-0.449-2.724-0.674c0.025-0.17,0.05-0.338,0.078-0.51c0.77-0.02,1.543-0.041,2.547-0.066
					c-0.993-2.303-3.244-0.678-4.731-1.99c0.711-0.018,1.113,0.029,1.483-0.059c0.301-0.072,0.563-0.307,0.843-0.467
					c-0.202-0.219-0.373-0.57-0.617-0.629c-0.689-0.164-1.407-0.199-2.11-0.301c-0.591-0.086-1.18-0.189-1.769-0.285
					c0.022-0.137,0.043-0.273,0.066-0.408c0.216-0.021,0.436-0.035,0.653-0.068c0.402-0.061,0.825-0.082,1.193-0.236
					c0.099-0.041,0.131-0.654,0.021-0.723c-0.38-0.232-0.826-0.441-1.26-0.467c-0.589-0.037-1.186,0.131-1.781,0.16
					c-0.293,0.016-0.59-0.086-0.888-0.133c0.006-0.105,0.011-0.209,0.016-0.316c0.755-0.168,1.51-0.342,2.558-0.578
					c-1.702-1.664-3.797-0.072-5.499-1.451c0.607-0.174,0.988-0.223,1.303-0.393c0.261-0.139,0.448-0.42,0.668-0.635
					c-0.27-0.195-0.538-0.551-0.804-0.547c-0.628,0.008-1.252,0.195-1.878,0.297c-0.345,0.055-0.692,0.078-1.039,0.117
					c-0.034-0.102-0.07-0.203-0.104-0.307c0.526-0.188,1.051-0.377,1.575-0.566l-0.316-0.756c-0.574,0.014-1.155-0.014-1.728,0.047
					c-0.776,0.08-1.543,0.275-2.319,0.316c-0.233,0.012-0.567-0.281-0.691-0.521c-0.063-0.127,0.184-0.477,0.362-0.656
					c0.936-0.934,0.817-1.322-0.461-1.773c-0.525-0.188-0.983-0.557-1.475-0.844c0.079-0.182,0.154-0.365,0.231-0.549
					c0.555,0.156,1.157,0.217,1.64,0.492c0.506,0.285,0.866,0.824,1.355,1.156c0.275,0.186,0.686,0.172,1.033,0.25
					c-0.029-0.354,0.016-0.736-0.112-1.047c-0.149-0.348-0.456-0.629-0.692-0.939c0.111-0.115,0.221-0.229,0.332-0.342
					c0.558,0.449,1.09,0.939,1.686,1.334c0.368,0.244,0.833,0.34,1.251,0.504c-0.014-0.43-0.033-0.857-0.039-1.285
					c0-0.066,0.062-0.135,0.197-0.402c0.687,0.625,1.307,1.248,1.996,1.785c0.252,0.197,0.667,0.197,1.004,0.283
					c-0.054-0.367-0.018-0.781-0.181-1.092c-0.223-0.418-0.599-0.758-0.908-1.129l0.29-0.357c0.374,0.281,0.822,0.504,1.11,0.855
					c0.476,0.582,0.814,1.277,1.29,1.857c0.183,0.221,0.593,0.25,0.896,0.365c0.021-0.324,0.133-0.68,0.041-0.967
					c-0.174-0.537-0.471-1.035-0.715-1.551c0.098-0.092,0.196-0.184,0.293-0.275c0.374,0.271,0.804,0.492,1.114,0.826
					c0.458,0.494,0.771,1.133,1.262,1.584c0.316,0.293,0.84,0.357,1.273,0.525c0.067-0.119,0.14-0.242,0.212-0.361
					c-0.395-0.713-0.786-1.426-1.18-2.137l0.376-0.256c0.487,0.582,0.973,1.162,1.461,1.742c0.515,0.605,0.934,1.451,2.009,0.807
					c-0.287-0.633-0.544-1.201-0.801-1.77c0.104-0.07,0.208-0.141,0.312-0.209c0.295,0.27,0.663,0.494,0.873,0.82
					c0.366,0.562,0.637,1.191,0.944,1.791c0.468,0.916,1.049,0.975,1.741,0.23c-0.396-0.713-0.786-1.41-1.175-2.109
					c0.099-0.09,0.194-0.182,0.292-0.273c0.348,0.191,0.786,0.305,1.025,0.588c0.462,0.539,0.755,1.223,1.218,1.758
					c0.789,0.91,1.653,1.752,2.488,2.623c0.062-0.062,0.122-0.125,0.185-0.188c-0.569-1.094-1.137-2.188-1.708-3.281
					c0.172-0.094,0.344-0.184,0.517-0.275c0.856,1.422,1.714,2.842,2.609,4.334c1.694-0.805-0.423-1.992,0.13-3.312
					c1.268,1.918,1.969,3.973,3.648,5.268c-0.168-0.688-0.481-1.289-0.66-1.93c-0.099-0.342,0.033-0.752,0.063-1.133
					c0.283,0.279,0.651,0.514,0.831,0.848c0.282,0.52,0.422,1.115,0.648,1.666c0.412,0.994,1.056,1.225,1.795,0.699
					c-0.289-0.365-0.563-0.709-0.836-1.053c0.12-0.148,0.242-0.299,0.361-0.451C249.353,186.018,249.761,186.107,250.173,186.145z
					 M199.997,164.279c1.114,0.219,2.21,0.529,3.297,0.865c0.134,0.041,0.176,0.383,0.261,0.582
					c-0.069,0.082-0.137,0.166-0.207,0.246c-0.431-0.16-0.855-0.355-1.297-0.475c-0.409-0.111-0.84-0.146-1.232-0.211l-0.534,3.287
					c-0.106,0.016-0.209,0.035-0.313,0.053c-0.145-0.449-0.351-0.889-0.414-1.348c-0.097-0.703-0.159-1.424-0.103-2.127
					C199.478,164.834,199.867,164.254,199.997,164.279z M202.925,168.229c-0.267,0.59-0.658,1.123-0.999,1.678
					c-0.105,0.01-0.214,0.02-0.32,0.027c0.135-0.83,0.243-1.668,0.442-2.486c0.023-0.104,0.514-0.098,0.786-0.141
					C202.875,167.617,203.034,167.982,202.925,168.229z M199.031,172.92c0.429,0.25,0.896,0.459,1.264,0.779
					c0.078,0.07-0.212,0.555-0.331,0.848c-0.444-0.33-0.893-0.66-1.337-0.99C198.762,173.344,198.896,173.133,199.031,172.92z
					 M198.459,171.498c0.033-0.146,0.064-0.291,0.096-0.439c0.726-0.318,1.372-0.23,1.912,0.42
					c-0.039,0.145-0.076,0.289-0.115,0.432C199.722,171.773,199.09,171.635,198.459,171.498z M194.76,176.869
					c2.454-1.506,3.484-1.641,4.283-0.4C197.563,176.357,196.353,177.52,194.76,176.869z M199.354,179.17
					c-0.291-0.117-0.461-0.545-0.685-0.83c0.27-0.189,0.514-0.473,0.81-0.553c1.444-0.377,2.606,0.541,3.247,2.521
					C201.55,179.922,200.431,179.598,199.354,179.17z M204.771,171.705c-0.342-0.092-0.716-0.062-1.076-0.086
					c0.006,0.359-0.025,0.725,0.026,1.078c0.036,0.262,0.181,0.512,0.274,0.764c-0.152,0.066-0.303,0.135-0.454,0.199
					c-0.209-0.502-0.562-1-0.588-1.512c-0.026-0.607,0.182-1.246,0.394-1.836c0.075-0.213,0.456-0.465,0.683-0.447
					c0.86,0.068,1.742,1.18,1.811,2.35C205.428,172.012,205.116,171.799,204.771,171.705z M208.717,167.084
					c-0.654-0.061-1.31-0.123-2.137-0.199c0.046,0.566,0.083,1.039,0.119,1.51c-0.107,0.037-0.219,0.076-0.33,0.113
					c-0.13-0.449-0.462-0.957-0.35-1.332c0.185-0.607,0.71-1.615,1.004-1.586c0.669,0.064,1.289,0.66,1.927,1.041
					C208.874,166.783,208.795,166.934,208.717,167.084z M213.87,171.662l0.365,0.082c-0.062,0.633-0.119,1.266-0.204,2.176
					c-0.574-0.451-0.893-0.699-1.311-1.025C213.196,172.385,213.535,172.023,213.87,171.662z M212.61,166.299
					c-0.335,0.561-0.776,1.057-1.179,1.578c-0.191-0.316-0.616-0.754-0.528-0.92c0.295-0.553,0.771-1.01,1.382-1.75
					C212.47,165.793,212.702,166.141,212.61,166.299z M210.563,179.836c0.664-0.535,1.328-1.07,1.994-1.607
					c0.13,0.158,0.263,0.318,0.396,0.477c-0.656,0.549-1.312,1.098-1.966,1.645L210.563,179.836z M215.909,182.033
					c-1.463,0.043-2.926,0.088-4.532,0.137C212.597,179.828,214.114,179.732,215.909,182.033z M215.894,169.943
					c0.138-0.098,0.599-0.037,0.624,0.045c0.084,0.254,0.071,0.557,0.017,0.826c-0.117,0.586-0.286,1.16-0.436,1.74
					c-0.104,0.008-0.208,0.016-0.314,0.023c-0.168-0.621-0.407-1.238-0.465-1.871C215.292,170.465,215.642,170.135,215.894,169.943z
					 M215.87,177.637c-0.001-0.334,0-0.67,0.002-1.006l1.442,0.234c0.005,0.193,0.01,0.387,0.014,0.58
					C216.842,177.51,216.354,177.574,215.87,177.637z M218.159,172.291c-0.328-1.258-2.005-3.766-2.881-4.145
					c0.721-0.268,1.18-0.584,1.631-0.57c0.745,0.018,1.507,0.18,2.216,0.416c0.293,0.098,0.729,0.645,0.661,0.814
					C219.355,169.9,218.808,170.943,218.159,172.291z M219.963,176.723c-0.182-0.098-0.36-0.197-0.543-0.299
					c0.36-0.562,0.973-1.111,1.005-1.691c0.027-0.484-0.628-1.006-1.064-1.635c0.844-0.059,2.06,0.719,1.998,0.941
					C221.109,174.99,220.465,175.84,219.963,176.723z"/>
				<path fill-rule="evenodd" clip-rule="evenodd" d="M233.532,202.543c0.741,1.1,1.484,2.197,2.226,3.295
					c-0.128,0.092-0.254,0.186-0.382,0.275c-0.733-1.094-1.468-2.186-2.202-3.277C233.293,202.74,233.413,202.639,233.532,202.543z"
					/>
			</g>
			<path fill="#1F140F" d="M178.366,290.842c0,0-11.091,11.465-34.581,7.641c-23.49-3.822-16.342-12.449-14.44-12.705
				c1.905-0.258,3.69,0.195,4.157,1.807c0.465,1.615,0.695,2.703-0.46,2.838c-1.156,0.139-1.636-1.396-1.636-1.396
				s-2.457,2.676,0.92,3.305c3.378,0.629,4.81-3.465,3.787-4.887c-1.021-1.42-3.598-4.227-7.376-2.898
				c-3.776,1.328-4.94,5.994-1.735,9.668c3.204,3.678,28.372,10.121,40.593,5.152c12.214-4.973,12.305-5.525,13.704-7.158
				c1.398-1.633,2.949-8.176,2.653-10.328c-0.3-2.152-2.284-6.361-2.129-7.307c0.153-0.945,0.685-2.477,3.229-2.062
				c2.542,0.414,2.937,0.477,4.907,0.799c1.97,0.32,2.688,2.377,2.238,5.137c-0.45,2.76-2.775,9.094-2.746,11.893
				c0.028,2.797,2.415,17.992,23.54,21.43s26.706,0.465,27.515-4.504c0.808-4.965-4.294-9.922-7.807-5.721
				c-3.517,4.205,2.615,7.791,4.339,5.156c0.847-1.236-0.27-1.822-1.147-1.398s-3.131-1.158-1.259-2.715
				c1.035-0.883,4.588,1.152,3.955,4.529c-0.63,3.377-4.455,5.828-22.007,2.971c-17.549-2.855-23.627-8.941-23.91-17.645
				c-0.16-3.992,0.271-8.615,0.752-9.59c0.48-0.973,1.933-9.393,1.396-12.557c-0.537-3.16-0.84-6.287,0.402-7.943
				c1.241-1.662,2.591-5.973,2.057-8.162c-0.532-2.191-0.039-3.73,1.236-6.111c1.279-2.381,1.144-7.014,1.188-8.789
				c0.046-1.771,0.63-3.861,1.112-4.834c0.48-0.975,0.966-4.449,0.729-6.473c-0.237-2.025-0.098-3.377,0.556-4.404
				c0.651-1.025,2.109-4.025,1.774-6.428c-0.337-2.4,0.274-3.678,0.705-4.334c0.429-0.658,1.173-5.23,1.173-5.23l0.367-0.264
				c0,0,2.042,1.869,4.724,2.307c2.679,0.436,7.644-2.723,8.812-9.895c0.307-1.893-0.881-3.543-0.881-3.543s1.28-3.463,0.313-4.805
				c-0.733-1.018-1.959,0.492-1.959,0.492s-0.901-0.428-1.405-1.301c-0.506-0.871-1.325-2.301-1.325-2.301s-3.361-0.223-9.298,2.938
				c-1.184-3.672-3.319-5.961-7.971-6.717c-4.65-0.758-8.864,2.764-9.237,5.051c-0.371,2.285-1.913,11.258-1.586,13.738
				c0.322,2.482,3.058,6.566,5.186,6.912c1.418,0.23,2.375-0.18,2.375-0.18l0.724,0.523c0,0-1.83,12.242-2.099,13.9
				c-0.27,1.652-1.396,2.602-1.835,4.799c-0.438,2.191-1.199,8.867-1.652,10.654c-0.451,1.787-1.347,1.801-1.834,4.799
				c-0.487,2.994-0.064,0.393-0.346,2.127c-0.282,1.734,0.301,6.117,0.128,9.164c-0.172,3.047-2.928,10.043-5.04,14.068
				c-2.111,4.025-2.428,7.453-1.968,11.088C180.404,284.777,179.518,289.732,178.366,290.842z"/>
		</g>
		<path fill="#D70E18" d="M197.128,184.498c-1.312-0.215-2.589-0.088-3.753,0.258l-0.754,0.256l-0.076,2.037
			c0,0-1.983,1.012-2.06,1.484c-0.077,0.473-0.656,4.02-0.656,4.02s2.68-2.658,3.317-2.857c0.641-0.201,0.753,1.338,0.272,1.682
			c-0.479,0.348-2.629,2-2.145,3.293c0.249,0.525,1.366,0.404,1.784,0.049c0.146-0.158,0.606,0.4-0.24,1.477
			c-0.842,1.078-1.954,4.172-2.416,7.012c-0.463,2.838-0.289,4.381,1.959,4.748c2.244,0.365,4.049-2.133,5.021-5.131
			c0.976-2.996,0.581-5.062,1.041-6.385c0.456-1.322,1.169-2.055,1.476-3.158c0.311-1.102,0.254-1.598,0.318-1.951
			c0.063-0.354,0.625-1.354,0.625-1.354s1.602,0.018,1.788,1.867c0.051,0.436-0.452,0.535-0.637,1.295
			c-0.184,0.758-1.33,3.316-0.894,4.746c0.435,1.428,0.565,2.482,1.514,2.635c0.947,0.156,0.947,0.156,0.947,0.156
			s1.912-6.549,1.538-9.461C203.915,187.543,201.779,185.254,197.128,184.498z"/>
		<path fill="#D70E18" d="M207.357,192.25c1.125,0.547,0.692,3.572-0.041,5.092c-0.732,1.52-1.334,5.73-0.8,6.666
			c0.534,0.938,2.081,3.707,4.631,3.363c2.853-0.385,6.109-3.254,6.325-6.07c0.218-2.816-0.345-5.338-1.975-7.605
			c-1.634-2.268-3.451-3.822-3.57-5.123l0,0c-1.359,0.293-3.258,0.881-5.631,2.033C206.297,190.609,206.234,191.703,207.357,192.25z
			"/>
		<path fill="#4BA82C" d="M205.55,198.51c0.073-1.203,0.109-2.834,0.003-3.336c-0.107-0.504-0.646-0.469-0.646-0.469l-0.002,0.006
			c-0.443,2.877-1.344,5.965-1.344,5.965s-0.006-0.002-0.711-0.117c0,0-0.002,0.91,0.939,1.004c0.946,0.094,1.231,0.203,1.231,0.203
			S205.475,199.711,205.55,198.51z"/>
		<path fill="#4BA82C" d="M200.945,207.047c0.367-1.09,1.65-1.49,2.559,0.719c0.282,0.836-0.493,3.439-0.607,3.725
			c-0.112,0.285-0.858,2.045-1.592,2.168c-0.729,0.123-2.985-2.062-2.926-2.781c0.055-0.719,1.864-0.646,2.062-1.111
			C200.637,209.303,200.594,208.08,200.945,207.047z"/>
		<path fill="#4BA82C" d="M194.775,218.848c-1.011,1.996,1.142,4.918,2.797,5.188c1.656,0.27,3.019-1.025,3.136-1.371
			c0.116-0.346,0.913-3.371,0.653-4.02c-0.258-0.648-0.749-1.943-1.502-2.064C199.109,216.457,195.938,216.549,194.775,218.848z"/>
		<path fill="#4BA82C" d="M196.951,228.973c1.973,0.738,2.831,0.461,2.831,0.461s0.889,1.297,0.453,3.229
			c-0.438,1.93-2.996,3.881-4.959,3.439s-3.499-2.936-2.881-5.625c0.622-2.691,2.438-3.588,2.438-3.588
			S196.031,228.627,196.951,228.973z"/>
		<path fill="#4BA82C" d="M189.855,240.5c-0.967,2.084,0.914,7.434,4.284,7.979c2.096,0.039,3.018-0.766,3.206-1.037
			c0.183-0.271,0.301-2.83,0.109-3.701c-0.102-0.455,0.034-1.58,0.316-1.953c0.263-0.348-0.097-1.592-1.201-1.895
			C195.466,239.592,191.163,237.678,189.855,240.5z"/>
		<path fill="#4BA82C" d="M188.808,254.834c-0.293,1.223,3.185,3.855,3.659,3.934c0.473,0.074,1.967-0.529,2.313-2.658
			c0.346-2.129-0.691-2.844-1.045-2.902C193.38,253.15,189.03,253.898,188.808,254.834z"/>
		<path fill="#4BA82C" d="M186.093,266.104c-0.065,1.744,2.463,2.951,3.446,3.232c0.98,0.279,3.104-0.104,3.104-0.104
			s1.103-2.309-0.316-3.268C190.904,265.006,186.155,264.477,186.093,266.104z"/>
		<path fill-rule="evenodd" clip-rule="evenodd" d="M126.3,237.473c0.894-0.73,1.728-1.543,2.684-2.172
			c2.097-1.379,2.869-1.248,4.601,0.561c1.171,1.223,2.686,0.992,3.154-0.615c0.661-2.254,1.116-4.57,1.655-6.859
			c0.046-0.193,0.003-0.451,0.114-0.58c0.409-0.477,0.865-0.914,1.304-1.367c0.028,0.512,0.144,1.039,0.068,1.537
			c-0.366,2.445-0.827,4.881-1.168,7.332c-0.306,2.172,2.504,4.32,4.55,3.516c0.262-0.104,0.54-0.344,0.643-0.588
			c0.048-0.121-0.27-0.43-0.467-0.602c-0.238-0.207-0.553-0.326-0.786-0.539c-0.713-0.65-0.7-1.434,0.17-1.85
			c1.867-0.889,3.769-1.734,5.721-2.404c0.542-0.186,1.452,0.125,1.958,0.514c2.553,1.982,5.312,3.543,8.474,4.262
			c5.141,1.17,9.802,0.041,13.918-3.225c1.234-0.98,1.752-0.953,2.444,0.447c0.509,1.033,0.421,2.047-0.352,2.895
			c-0.756,0.83-1.637,0.455-2.545,0.17c-0.583-0.182-1.327-0.219-1.893-0.02c-3.266,1.15-6.588,1.855-10.072,1.676
			c-0.871-0.047-1.756,0.109-2.616,0.008c-2.778-0.334-5.117-1.615-7.215-3.436c-0.701-0.609-1.55-1.131-2.418-1.42
			c-0.412-0.137-1.034,0.375-1.561,0.592c0.218,0.379,0.375,0.816,0.666,1.129c0.849,0.922,0.872,1.486,0.054,2.504
			c-2.458,3.062-7.806,3.621-10.729-0.133c-0.644-0.826-1.146-0.916-1.979-0.367c-1.071,0.709-2.114,0.227-3.026-0.359
			c-1.518-0.979-3.009-1.162-4.602-0.25c-0.116,0.066-0.299,0.02-0.451,0.025C126.499,237.727,126.4,237.6,126.3,237.473z"/>
		<path fill-rule="evenodd" clip-rule="evenodd" d="M219.493,256.131c0.327-1.672,3.158-3.328,4.691-2.746
			c1.228,0.465,2.429,1.012,3.683,1.383c1.906,0.562,3.107-0.254,3.439-2.184c0.219-1.262,0.542-2.508,0.677-3.773
			c0.197-1.852,1.511-2.5,2.991-3.02c2.218-0.779,4.436-1.547,6.663-2.309c0.298-0.1,0.62-0.182,0.929-0.166
			c0.197,0.01,0.486,0.172,0.547,0.336c0.062,0.166-0.034,0.508-0.179,0.617c-0.413,0.305-0.858,0.592-1.334,0.779
			c-2.188,0.867-4.385,1.721-6.59,2.537c-0.899,0.332-1.5,0.848-1.671,1.832c-0.168,0.943-0.386,1.877-0.606,2.809
			c-0.892,3.732-5.039,5.723-8.492,3.947c-1.493-0.766-2.804-1.072-4.209,0.02c-0.082,0.064-0.226,0.064-0.345,0.059
			C219.622,256.248,219.559,256.174,219.493,256.131z"/>
		<path fill-rule="evenodd" clip-rule="evenodd" d="M247.74,244.928c-0.003,0.328,0.028,0.664-0.016,0.986
			c-0.351,2.566-0.721,5.131-1.068,7.697c-0.067,0.514-0.109,1.035-0.081,1.551c0.107,1.805,1.531,2.943,3.294,2.564
			c0.293-0.062,0.6-0.547,0.708-0.896c0.317-1.029,1.041-1.822,2.01-1.73c0.72,0.07,1.513,0.789,1.992,1.428
			c0.252,0.334,0.12,1.408-0.212,1.662c-1.649,1.262-3.447,2.314-5.654,2.193c-3.354-0.178-4.161-2.508-3.833-4.748
			c0.458-3.076,1.036-6.133,1.581-9.195c0.058-0.303,0.189-0.613,0.355-0.877c0.171-0.273,0.428-0.496,0.646-0.742
			C247.556,244.855,247.646,244.893,247.74,244.928z"/>
		<path fill-rule="evenodd" clip-rule="evenodd" d="M242.937,252.885c0.584,1.471-0.772,3.896-2.79,5.35
			c-2.018,1.451-5.208,1.908-6.635,0.732C237.851,258.697,240.834,256.508,242.937,252.885z"/>
		<path fill-rule="evenodd" clip-rule="evenodd" d="M133.361,229.268c-0.348-0.254-0.594-0.354-0.713-0.535
			c-0.438-0.668-0.937-0.619-1.507-0.209c-0.656,0.473-1.192,0.197-1.441-0.416c-0.12-0.295,0.064-0.854,0.303-1.125
			c0.454-0.523,1.081-0.775,1.592-0.041c0.452,0.656,0.866,0.766,1.557,0.283c0.277-0.191,0.91-0.152,1.206,0.043
			c0.262,0.18,0.495,0.902,0.361,1.062C134.37,228.744,133.811,228.979,133.361,229.268z"/>
		<path fill-rule="evenodd" clip-rule="evenodd" d="M224.894,249.018c-0.408-0.137-0.672-0.16-0.839-0.297
			c-0.617-0.51-1.079-0.314-1.501,0.248c-0.485,0.645-1.081,0.543-1.499,0.031c-0.203-0.244-0.195-0.834-0.047-1.166
			c0.277-0.633,0.801-1.062,1.505-0.51c0.63,0.492,1.058,0.473,1.574-0.191c0.205-0.268,0.826-0.418,1.161-0.316
			c0.304,0.09,0.745,0.711,0.664,0.902C225.7,248.219,225.237,248.611,224.894,249.018z"/>
		<path fill-rule="evenodd" clip-rule="evenodd" d="M148.702,244.246c-0.834,0.371-1.434,0.848-2.001,0.812
			c-0.368-0.025-0.686-0.799-1.025-1.236c0.563-0.326,1.115-0.873,1.691-0.904C147.73,242.9,148.137,243.652,148.702,244.246z"/>
	</g>
</g>
</svg>
