<?xml version="1.0" encoding="utf-8"?>
<!-- Generator: Adobe Illustrator 16.0.0, SVG Export Plug-In . SVG Version: 6.00 Build 0)  -->
<!DOCTYPE svg PUBLIC "-//W3C//DTD SVG 1.1//EN" "http://www.w3.org/Graphics/SVG/1.1/DTD/svg11.dtd">
<svg version="1.1" id="Layer_1" xmlns="http://www.w3.org/2000/svg" xmlns:xlink="http://www.w3.org/1999/xlink" x="0px" y="0px"
	 width="624px" height="934px" viewBox="0 0 624 934" enable-background="new 0 0 624 934" xml:space="preserve">
<g>
	<polygon opacity="0.75" fill="#006EBE" points="268.169,611 280.442,642.764 268.778,719.819 209,785.836 209,833.953 244.291,865 
		389.884,865 337.619,713.855 350.45,611 	"/>
	<polygon opacity="0.75" fill="#006EBE" points="366.004,611 353.733,642.764 366.31,719.819 427,785.836 427,833.953 
		390.307,864.428 272.389,829.142 314.304,642.996 336.653,611 	"/>
	<polygon opacity="0.5" fill="#666666" points="314.564,97.434 309.058,611 321,611 321,97.756 	"/>
	<polygon opacity="0.75" fill="#666666" points="248.119,141.062 374.828,150.686 389.884,131.438 240.099,120.211 	"/>
	<polygon opacity="0.75" fill="#006EBE" points="333.618,128.23 328.439,97.639 343,86.529 343,73.697 335.961,67.282 361,54.45 
		361,18 273,18 273,54.45 298.04,67.282 291,73.697 291,86.529 304.844,97.639 299.247,125.022 	"/>
	<polygon opacity="0.5" fill="#666666" points="363.601,504.004 410.115,463.449 393.092,447.41 355.058,493.853 347.718,484.3 
		339.306,463.449 357.296,388.064 340,367.214 340,354.383 357.256,338.343 339.419,306.265 331.796,240.504 340.879,234.076 
		339.251,216.446 328.327,194.376 331.701,129 305.368,129 308.752,194.376 297.84,216.638 296.237,234.172 305.368,240.552 
		297.84,306.289 280.776,338.355 299,354.383 299,367.214 280.776,388.064 298.13,463.449 289.651,484.3 284.41,491.471 
		276,487.508 276,482.162 259.653,473.072 243.461,489.441 257.742,501 265.762,501 272.434,507.273 263,519.586 263,553.268 
		278.815,566.236 289.506,611 347.561,611 359.217,566.236 376,553.268 376,519.586 362.782,503.145 	"/>
	<polygon opacity="0.75" fill="#666666" points="397.332,451.406 439.787,400.094 454.222,416.133 404.289,457.961 	"/>
	<polygon opacity="0.75" fill="#666666" points="388.051,914.596 253.221,916.5 255.308,892.888 387.526,903.434 	"/>
	<g opacity="0.75">
		<g>
			<path fill="#006EBE" d="M454.22,408.113c-1.977,0-3.958-0.727-5.508-2.192c-3.218-3.044-3.36-8.119-0.316-11.337
				c0.458-0.484,0.934-0.961,1.43-1.432c3.208-3.053,8.284-2.924,11.337,0.284c3.053,3.21,2.924,8.286-0.285,11.338
				c-0.286,0.273-0.563,0.55-0.828,0.83C458.472,407.271,456.348,408.113,454.22,408.113z"/>
		</g>
		<g>
			<path fill="#006EBE" d="M451.241,812.385c-3.705,0-7.033-2.581-7.835-6.35c-0.922-4.332,1.84-8.592,6.171-9.516
				c0.958-0.203,1.956-0.426,2.993-0.669c2.472-0.577,4.945,0.056,6.795,1.512c0.855-2.197,2.666-3.999,5.092-4.754
				c0.964-0.301,1.945-0.614,2.941-0.942c2.414-0.798,4.934-0.385,6.906,0.906c0.663-2.266,2.313-4.22,4.667-5.182
				c0.938-0.382,1.884-0.779,2.838-1.188c2.334-1.003,4.884-0.812,6.961,0.303c0.465-2.313,1.94-4.4,4.204-5.561
				c0.902-0.464,1.809-0.94,2.719-1.429c2.235-1.199,4.785-1.232,6.948-0.307c0.26-2.339,1.541-4.541,3.684-5.897
				c0.863-0.545,1.726-1.101,2.59-1.67c2.116-1.39,4.646-1.646,6.883-0.926c0.051-2.349,1.129-4.655,3.141-6.196
				c0.805-0.617,1.61-1.246,2.413-1.887c1.98-1.579,4.477-2.07,6.769-1.553c-0.163-2.344,0.698-4.736,2.558-6.453
				c0.747-0.691,1.491-1.393,2.233-2.105c1.827-1.751,4.267-2.467,6.59-2.164c-0.377-2.316,0.259-4.777,1.952-6.659
				c0.683-0.759,1.363-1.526,2.04-2.307c1.658-1.909,4.019-2.862,6.363-2.755c-0.585-2.275-0.171-4.785,1.346-6.811
				c0.609-0.814,1.214-1.641,1.816-2.475c1.481-2.057,3.755-3.203,6.103-3.324c-0.785-2.213-0.594-4.752,0.739-6.904
				c0.538-0.869,1.072-1.748,1.603-2.637c1.299-2.18,3.47-3.52,5.802-3.839c-0.973-2.147-0.995-4.7,0.161-6.964
				c0.464-0.908,0.923-1.828,1.378-2.756c1.118-2.286,3.179-3.801,5.484-4.309c-1.144-2.065-1.368-4.615-0.391-6.965
				c0.395-0.949,0.783-1.906,1.168-2.871c0.944-2.367,2.889-4.036,5.154-4.717c-1.299-1.98-1.71-4.516-0.903-6.937
				c0.326-0.976,0.646-1.96,0.961-2.951c0.774-2.436,2.604-4.243,4.823-5.078c-1.435-1.894-2.018-4.403-1.37-6.881
				c0.261-0.996,0.516-2.001,0.767-3.015c0.616-2.487,2.331-4.414,4.5-5.391c-1.553-1.801-2.293-4.272-1.799-6.788
				c0.201-1.02,0.396-2.044,0.588-3.076c0.468-2.526,2.072-4.555,4.187-5.654c-1.66-1.715-2.54-4.149-2.184-6.694
				c0.144-1.031,0.284-2.066,0.419-3.109c0.331-2.555,1.831-4.671,3.89-5.885c-1.752-1.629-2.76-4.023-2.529-6.593
				c0.093-1.038,0.181-2.083,0.266-3.131c0.206-2.571,1.604-4.763,3.609-6.074c-1.831-1.548-2.95-3.896-2.837-6.476
				c0.044-1.043,0.086-2.092,0.123-3.146c0.09-2.586,1.915-4.843,3.865-6.242c-1.9-1.471-2.594-3.777-2.594-6.366v-0.837
				l-0.523-2.329c-0.01-2.602,0.96-4.919,2.875-6.392c-1.96-1.41-3.395-3.685-3.47-6.283c-0.03-1.063-0.129-2.122-0.165-3.173
				c-0.089-2.596,1.032-4.946,2.894-6.478c-2-1.344-3.39-3.57-3.55-6.163c-0.065-1.056-0.142-2.108-0.215-3.154
				c-0.179-2.586,0.885-4.97,2.689-6.564c-2.042-1.271-3.495-3.439-3.752-6.017c-0.105-1.054-0.215-2.099-0.327-3.139
				c-0.276-2.572,0.693-4.99,2.426-6.652c-2.086-1.181-3.622-3.281-3.989-5.839c-0.15-1.045-0.304-2.085-0.46-3.117
				c-0.389-2.548,0.469-5,2.117-6.735c-2.136-1.082-3.765-3.104-4.252-5.637c-0.198-1.029-0.402-2.051-0.609-3.064
				c-0.516-2.518,0.209-5.002,1.757-6.818c-2.178-0.961-3.908-2.879-4.539-5.365c-0.258-1.016-0.52-2.024-0.786-3.021
				c-0.659-2.473-0.088-4.982,1.337-6.881c-2.223-0.821-4.062-2.616-4.852-5.044c-0.322-0.993-0.649-1.974-0.981-2.944
				c-0.821-2.406-0.432-4.936,0.842-6.924c-2.265-0.653-4.222-2.295-5.192-4.643c-0.396-0.956-0.796-1.898-1.2-2.831
				c-1.007-2.317-0.834-4.853,0.257-6.929c-2.295-0.452-4.374-1.9-5.549-4.131c-0.479-0.91-0.963-1.805-1.451-2.688
				c-1.214-2.192-1.292-4.706-0.429-6.865c-2.309-0.212-4.507-1.418-5.909-3.486c-0.571-0.844-1.146-1.67-1.727-2.482
				c-1.441-2.02-1.813-4.48-1.227-6.707c-2.296,0.059-4.602-0.839-6.246-2.688c-0.667-0.752-1.339-1.485-2.015-2.203
				c-1.685-1.787-2.389-4.145-2.131-6.408c-2.234,0.395-4.621-0.154-6.508-1.711c-0.767-0.633-1.537-1.248-2.309-1.845
				c-1.924-1.484-2.987-3.669-3.108-5.92c-2.116,0.757-4.539,0.62-6.648-0.575c-0.854-0.482-1.708-0.945-2.564-1.388
				c-2.14-1.107-3.569-3.044-4.102-5.213c-1.925,1.126-4.308,1.448-6.589,0.688c-0.921-0.308-1.841-0.593-2.758-0.857
				c-2.301-0.663-4.075-2.266-5.026-4.271c-1.647,1.48-3.899,2.271-6.269,2.007c-0.96-0.109-1.916-0.196-2.861-0.263
				c-2.37-0.166-4.427-1.347-5.777-3.087c-1.279,1.786-3.282,3.041-5.637,3.303c-0.947,0.106-1.882,0.233-2.803,0.381
				c-2.304,0.374-4.534-0.278-6.233-1.616c-0.792,1.991-2.376,3.662-4.529,4.506c-0.858,0.336-1.69,0.691-2.498,1.067
				c-4.015,1.87-8.786,0.133-10.656-3.883c-1.87-4.015-0.131-8.785,3.883-10.655c1.112-0.518,2.263-1.011,3.423-1.465
				c2.743-1.074,5.723-0.534,7.884,1.165c1.011-2.535,3.29-4.49,6.181-4.954c1.175-0.189,2.368-0.352,3.578-0.486
				c2.877-0.325,5.568,0.924,7.222,3.055c1.569-2.187,4.204-3.526,7.083-3.331c1.175,0.082,2.358,0.191,3.55,0.326
				c2.857,0.325,5.192,2.113,6.342,4.532c1.99-1.786,4.827-2.538,7.584-1.743c1.127,0.325,2.257,0.676,3.39,1.053
				c2.71,0.903,4.617,3.114,5.253,5.697c2.294-1.338,5.204-1.511,7.739-0.2c1.032,0.534,2.064,1.093,3.094,1.677
				c2.469,1.398,3.914,3.91,4.058,6.548c2.485-0.884,5.354-0.524,7.595,1.206c0.91,0.703,1.816,1.426,2.72,2.172
				c2.171,1.793,3.157,4.488,2.863,7.092c2.571-0.453,5.314,0.354,7.238,2.398c0.781,0.828,1.557,1.677,2.329,2.545
				c1.853,2.085,2.42,4.866,1.761,7.375c2.587-0.074,5.163,1.094,6.779,3.357c0.653,0.918,1.304,1.852,1.948,2.802
				c1.551,2.289,1.761,5.092,0.807,7.48c2.555,0.235,4.95,1.689,6.287,4.103c0.541,0.979,1.077,1.971,1.608,2.978
				c1.279,2.428,1.189,5.213,0.004,7.472c2.496,0.492,4.718,2.162,5.809,4.674c0.443,1.018,0.88,2.049,1.312,3.094
				c1.042,2.52,0.705,5.265-0.662,7.398c2.431,0.701,4.491,2.539,5.37,5.115c0.355,1.043,0.707,2.099,1.054,3.164
				c0.839,2.581,0.299,5.278-1.213,7.297c2.361,0.873,4.277,2.844,4.974,5.461c0.282,1.061,0.559,2.129,0.833,3.206
				c0.666,2.62-0.044,5.268-1.673,7.18c2.293,1.014,4.079,3.085,4.621,5.729c0.22,1.073,0.436,2.157,0.647,3.248
				c0.509,2.643-0.342,5.231-2.063,7.046c2.23,1.131,3.9,3.286,4.304,5.947c0.165,1.076,0.325,2.16,0.481,3.252
				c0.382,2.659-0.588,5.203-2.39,6.932c2.17,1.23,3.736,3.451,4.024,6.12c0.117,1.081,0.229,2.169,0.338,3.265
				c0.266,2.667-0.806,5.159-2.67,6.809c2.112,1.314,3.584,3.588,3.769,6.26c0.075,1.084,0.146,2.175,0.213,3.271
				c0.165,2.67-0.996,5.115-2.916,6.693c2.062,1.387,3.452,3.71,3.545,6.382c0.038,1.083,0.071,2.169,0.103,3.261
				c0.078,2.674-1.162,5.08-3.132,6.595c2.016,1.448,3.832,3.811,3.844,6.484L610,583.75v0.873c0,2.678-1.828,5.048-3.85,6.498
				c1.971,1.525,2.953,3.944,2.86,6.624c-0.038,1.102-0.207,2.194-0.255,3.284c-0.116,2.684-1.6,5.002-3.688,6.367
				c1.906,1.613,3.002,4.09,2.787,6.769c-0.088,1.101-0.196,2.196-0.294,3.284c-0.24,2.679-1.78,4.93-3.932,6.198
				c1.831,1.702,2.836,4.237,2.49,6.906c-0.142,1.097-0.291,2.188-0.443,3.272c-0.374,2.668-2.024,4.848-4.244,6.003
				c1.743,1.804,2.617,4.392,2.125,7.044c-0.201,1.089-0.408,2.173-0.62,3.248c-0.522,2.65-2.294,4.738-4.584,5.77
				c1.639,1.902,2.363,4.544,1.714,7.167c-0.268,1.083-0.541,2.157-0.82,3.226c-0.685,2.615-2.586,4.591-4.938,5.476
				c1.521,2.007,2.075,4.697,1.254,7.278c-0.338,1.064-0.682,2.119-1.032,3.168c-0.857,2.573-2.895,4.422-5.31,5.146
				c1.384,2.113,1.75,4.844,0.745,7.368c-0.415,1.04-0.833,2.069-1.258,3.091c-1.044,2.512-3.217,4.211-5.685,4.755
				c1.223,2.213,1.383,4.97,0.187,7.413c-0.494,1.011-0.995,2.012-1.5,3.001c-1.239,2.427-3.546,3.954-6.055,4.298
				c1.046,2.311,0.983,5.08-0.416,7.424c-0.575,0.966-1.157,1.92-1.741,2.864c-1.439,2.324-3.875,3.657-6.412,3.789
				c0.847,2.395,0.547,5.151-1.05,7.369c-0.66,0.917-1.325,1.82-1.993,2.713c-1.64,2.191-4.192,3.286-6.727,3.21
				c0.634,2.465,0.085,5.191-1.711,7.262c-0.738,0.849-1.479,1.688-2.224,2.517c-1.833,2.038-4.471,2.915-7.001,2.591
				c0.41,2.516-0.384,5.183-2.363,7.081c-0.815,0.782-1.633,1.552-2.452,2.309c-2.013,1.861-4.723,2.492-7.21,1.935
				c0.177,2.541-0.857,5.123-3,6.832c-0.885,0.707-1.771,1.399-2.659,2.079c-2.176,1.666-4.932,2.049-7.355,1.263
				c-0.057,2.548-1.324,5.027-3.614,6.533c-0.942,0.618-1.884,1.225-2.822,1.819c-2.317,1.466-5.101,1.6-7.444,0.596
				c-0.283,2.532-1.765,4.89-4.18,6.185c-0.999,0.536-1.993,1.06-2.983,1.566c-2.436,1.252-5.212,1.135-7.455-0.068
				c-0.502,2.496-2.182,4.713-4.699,5.794c-1.043,0.448-2.079,0.882-3.104,1.302c-2.536,1.035-5.294,0.676-7.427-0.715
				c-0.715,2.447-2.582,4.513-5.187,5.371c-1.083,0.357-2.149,0.699-3.197,1.024c-2.624,0.816-5.348,0.22-7.353-1.359
				c-0.927,2.381-2.974,4.279-5.648,4.905c-1.146,0.268-2.249,0.516-3.306,0.741C452.357,812.327,451.794,812.385,451.241,812.385z"
				/>
		</g>
		<g>
			<path fill="#006EBE" d="M436.595,814.705c-4.188,0-7.724-3.249-8.006-7.486c-0.294-4.414,3.03-8.232,7.445-8.533
				c0.061-0.004,0.501-0.039,1.269-0.122c4.405-0.468,8.361,2.705,8.839,7.106c0.478,4.403-2.704,8.361-7.107,8.839
				c-1.248,0.136-1.91,0.179-1.91,0.179C436.947,814.7,436.77,814.705,436.595,814.705z"/>
		</g>
	</g>
	<g opacity="0.75">
		<g>
			<path fill="#006EBE" d="M191.982,815c-4.43,0-8.02-3.736-8.02-8.166c0-1.88,0.694-8.094,9.624-8.094c4.43,0,8.02,3.7,8.02,8.13
				s-3.59,8.13-8.02,8.13h-1.505C192.047,815,192.015,815,191.982,815z"/>
		</g>
		<g>
			<path fill="#006EBE" d="M226.905,913c-0.055,0-0.109,0-0.165,0l-3.262-0.365c-2.684-0.062-5.028-1.586-6.437-3.645
				c-1.535,1.967-3.964,3.128-6.648,3.007l-3.272-0.175c-2.681-0.123-4.996-1.565-6.357-3.654c-1.579,1.931-4.037,3.101-6.713,2.923
				l-3.27-0.216c-2.681-0.18-4.966-1.661-6.282-3.784c-1.625,1.898-4.104,3.017-6.792,2.778l-3.254-0.291
				c-2.678-0.242-4.931-1.777-6.195-3.933c-1.671,1.859-4.182,2.917-6.86,2.61c-1.091-0.121-2.179-0.245-3.259-0.372
				c-2.672-0.313-4.881-1.905-6.088-4.093c-1.723,1.818-4.271,2.797-6.937,2.431l-3.241-0.462c-2.669-0.385-4.839-2.043-5.986-4.269
				c-1.774,1.769-4.348,2.677-7.007,2.229c-1.088-0.186-2.169-0.371-3.242-0.561c-2.657-0.469-4.774-2.193-5.852-4.455
				c-1.832,1.715-4.438,2.55-7.089,2.004c-1.084-0.222-2.16-0.445-3.228-0.671c-2.645-0.561-4.706-2.365-5.703-4.673
				c-1.895,1.648-4.53,2.383-7.159,1.744c-1.083-0.264-2.156-0.531-3.219-0.801c-2.631-0.667-4.625-2.564-5.525-4.92
				c-1.976,1.571-4.663,2.186-7.269,1.421c-1.073-0.316-2.134-0.636-3.183-0.957c-2.608-0.799-4.512-2.809-5.288-5.222
				c-2.071,1.474-4.805,1.938-7.376,1.012c-1.064-0.385-2.113-0.772-3.145-1.161c-2.579-0.973-4.363-3.131-4.967-5.622
				c-2.203,1.334-5.008,1.584-7.522,0.427c-1.048-0.484-2.072-0.97-3.074-1.457c-2.53-1.231-4.124-3.616-4.451-6.215
				c-2.403,1.103-5.302,0.994-7.692-0.542c-1.029-0.662-2.018-1.33-2.966-1.997c-2.443-1.724-3.632-4.562-3.362-7.337
				c-2.847,0.568-5.908-0.434-7.846-2.859c-0.913-1.143-1.732-2.311-2.44-3.472c-1.897-3.115-1.417-7.013,0.926-9.578
				c-3.189-1.914-4.709-5.864-3.434-9.515c0.528-1.514,1.243-3.01,2.124-4.445c1.775-2.892,5.086-4.26,8.238-3.707
				c-0.296-2.937,1.049-5.925,3.718-7.601c1.003-0.63,2.086-1.261,3.22-1.878c2.542-1.388,5.503-1.252,7.843,0.094
				c0.58-2.586,2.429-4.829,5.106-5.794c1.056-0.381,2.139-0.757,3.257-1.126c2.638-0.873,5.403-0.304,7.445,1.278
				c0.891-2.407,2.921-4.347,5.603-5.008c1.066-0.263,2.153-0.523,3.261-0.778c2.664-0.615,5.322,0.17,7.203,1.879
				c1.059-2.302,3.189-4.065,5.873-4.548c1.071-0.191,2.159-0.382,3.262-0.57c2.675-0.45,5.263,0.472,7.039,2.259
				c1.164-2.225,3.356-3.871,6.036-4.23c1.08-0.146,2.174-0.289,3.279-0.428c2.674-0.337,5.209,0.684,6.907,2.529
				c1.244-2.171,3.483-3.729,6.162-3.999c1.081-0.108,2.17-0.213,3.272-0.316c2.675-0.252,5.172,0.847,6.811,2.733
				c1.303-2.127,3.578-3.618,6.256-3.814c1.083-0.079,2.173-0.156,3.274-0.229c2.671-0.184,5.137,0.973,6.727,2.895
				c1.353-2.096,3.662-3.53,6.343-3.665l3.262-0.157c2.685-0.095,5.109,1.083,6.657,3.031c1.393-2.064,3.726-3.454,6.406-3.537
				l3.262-0.095c2.678-0.043,5.079,1.171,6.59,3.143c1.426-2.039,3.779-3.386,6.459-3.426l3.25-0.047
				c4.393-0.05,8.065,3.487,8.123,7.915c0.057,4.43-3.487,8.066-7.915,8.124l-3.225,0.045c-2.676,0.068-4.998-1.2-6.488-3.146
				c-1.407,2.01-3.714,3.352-6.355,3.424l-3.21,0.096c-2.634,0.055-5.011-1.118-6.531-3.036c-1.37,2.03-3.648,3.41-6.282,3.532
				l-3.206,0.153c-2.633,0.119-5.025-1.02-6.583-2.903c-1.326,2.054-3.572,3.479-6.198,3.655c-1.07,0.074-2.132,0.147-3.185,0.225
				c-2.63,0.2-5.048-0.9-6.649-2.746c-1.274,2.08-3.478,3.556-6.093,3.802c-1.067,0.101-2.126,0.202-3.174,0.307
				c-2.609,0.261-5.053-0.761-6.703-2.553c-1.209,2.111-3.361,3.647-5.96,3.976c-1.059,0.133-2.106,0.27-3.141,0.408
				c-2.587,0.345-5.056-0.579-6.765-2.301c-1.123,2.143-3.196,3.754-5.764,4.191c-1.054,0.179-2.093,0.36-3.115,0.545
				c-2.549,0.448-5.034-0.346-6.812-1.961c-1.002,2.178-2.966,3.887-5.481,4.467c-1.032,0.24-2.043,0.481-3.035,0.726
				c-2.479,0.61-4.971-0.001-6.842-1.454c-0.816,2.207-2.593,4.037-5,4.836c-0.981,0.326-1.936,0.654-2.862,0.988
				c-2.31,0.833-4.754,0.541-6.728-0.597c-0.488,2.179-1.877,4.143-3.991,5.294c-0.833,0.454-1.622,0.913-2.366,1.38
				c-1.756,1.102-3.776,1.439-5.667,1.103c0.174,1.689-0.187,3.446-1.144,5.005c-0.282,0.46-0.501,0.913-0.652,1.347
				c-0.369,1.056-0.938,1.986-1.647,2.764c1.076,0.646,2.016,1.557,2.714,2.703c0.355,0.582,0.782,1.188,1.272,1.801
				c1.357,1.699,1.912,3.783,1.714,5.789c2.083-0.42,4.328-0.014,6.203,1.307c0.768,0.542,1.569,1.081,2.403,1.618
				c2.08,1.338,3.333,3.474,3.618,5.75c2.107-0.968,4.613-1.021,6.862,0.073c0.905,0.44,1.832,0.879,2.779,1.316
				c2.314,1.068,3.879,3.1,4.436,5.398c2.034-1.232,4.593-1.552,6.991-0.648c0.963,0.363,1.939,0.724,2.932,1.082
				c2.433,0.879,4.181,2.812,4.915,5.1c1.961-1.396,4.525-1.895,7.004-1.137c0.995,0.306,2.001,0.606,3.021,0.907
				c2.497,0.737,4.364,2.581,5.225,4.839c1.894-1.507,4.445-2.142,6.972-1.502c1.012,0.256,2.033,0.512,3.064,0.762
				c2.545,0.619,4.509,2.388,5.473,4.619c1.834-1.594,4.365-2.34,6.929-1.796c1.03,0.22,2.068,0.434,3.114,0.648
				c2.565,0.524,4.591,2.22,5.637,4.414c1.778-1.663,4.291-2.5,6.875-2.044c1.04,0.183,2.087,0.363,3.141,0.541
				c2.588,0.44,4.674,2.072,5.791,4.24c1.726-1.721,4.213-2.637,6.811-2.26l3.171,0.449c2.6,0.365,4.734,1.937,5.912,4.071
				c1.68-1.774,4.152-2.765,6.761-2.453c1.053,0.124,2.111,0.244,3.174,0.363c2.613,0.293,4.792,1.811,6.028,3.916
				c1.634-1.815,4.075-2.86,6.691-2.628l3.197,0.283c2.621,0.229,4.836,1.693,6.124,3.769c1.591-1.856,4.008-2.943,6.634-2.791
				l3.192,0.208c2.63,0.164,4.885,1.577,6.223,3.628c1.549-1.894,3.945-3.032,6.575-2.942l3.197,0.137
				c2.633,0.106,4.917,1.471,6.298,3.49c1.507-1.93,3.878-3.145,6.511-3.086l3.212,0.068c4.429,0.09,7.946,4.05,7.855,8.479
				C234.831,909.219,231.258,913,226.905,913z"/>
		</g>
		<g>
			<path fill="#006EBE" d="M241.703,913h-1.604c-4.43,0-8.02-3.57-8.02-8s3.59-8,8.02-8h1.604c4.43,0,8.02,3.57,8.02,8
				S246.133,913,241.703,913z"/>
		</g>
	</g>
</g>
</svg>
