<?xml version="1.0" encoding="utf-8"?>
<!-- Generator: Adobe Illustrator 16.0.0, SVG Export Plug-In . SVG Version: 6.00 Build 0)  -->
<!DOCTYPE svg PUBLIC "-//W3C//DTD SVG 1.1//EN" "http://www.w3.org/Graphics/SVG/1.1/DTD/svg11.dtd">
<svg version="1.1" id="Layer_1" xmlns="http://www.w3.org/2000/svg" xmlns:xlink="http://www.w3.org/1999/xlink" x="0px" y="0px"
	 width="40px" height="40px" viewBox="0 0 40 40" enable-background="new 0 0 40 40" xml:space="preserve">
<g>
	<path fill="#FFFFFF" d="M36.805,9.591c0,1.154-0.939,2.089-2.095,2.089H5.286c-1.153,0-2.091-0.935-2.091-2.089l0,0
		c0-1.156,0.938-2.091,2.091-2.091H34.71C35.863,7.5,36.805,8.436,36.805,9.591L36.805,9.591z"/>
	<path fill="#FFFFFF" d="M36.805,20c0,1.156-0.939,2.091-2.095,2.091H5.286c-1.153,0-2.091-0.935-2.091-2.091l0,0
		c0-1.153,0.938-2.09,2.091-2.09H34.71C35.863,17.91,36.805,18.847,36.805,20L36.805,20z"/>
	<path fill="#FFFFFF" d="M36.805,30.411c0,1.151-0.939,2.089-2.095,2.089H5.286c-1.153,0-2.091-0.938-2.091-2.089l0,0
		c0-1.155,0.938-2.093,2.091-2.093H34.71C35.863,28.318,36.805,29.256,36.805,30.411L36.805,30.411z"/>
</g>
</svg>
